<?xml version="1.0" encoding="utf-8"?>
<!-- Generator: Adobe Illustrator 16.0.0, SVG Export Plug-In . SVG Version: 6.00 Build 0)  -->
<!DOCTYPE svg PUBLIC "-//W3C//DTD SVG 1.1//EN" "http://www.w3.org/Graphics/SVG/1.1/DTD/svg11.dtd">
<svg version="1.1" id="Capa_1" xmlns="http://www.w3.org/2000/svg" xmlns:xlink="http://www.w3.org/1999/xlink" x="0px" y="0px"
	 width="546.703px" height="102px" viewBox="0 0 546.703 85.559" enable-background="new 0 0 546.703 85.559"
	 xml:space="preserve">
<g>
	<path fill="#E63027" d="M0.008,77.547c-0.186,4.115,2.75,5.914,6.747,5.914c5.986,0,6.457-3.67,6.457-4.826
		c0-2.765-1.986-3.809-4.377-4.447l-4.117-1.02c-1.37-0.327-2.551-0.991-2.551-2.58c0-2.504,2.038-3.357,4.237-3.357
		c2.387,0,4.512,1.304,4.608,3.875h1.606c0.03-3.448-2.908-5.247-6.241-5.247c-4.757,0-5.821,3.096-5.821,4.754
		c0,2.622,1.824,3.573,3.81,4.071l3.761,0.921c1.562,0.378,3.477,1.128,3.477,3.047c0,2.464-2.696,3.43-4.466,3.43
		c-3.077,0-5.586-1.066-5.517-4.539H0.008"/>
	<path fill-rule="evenodd" clip-rule="evenodd" fill="#E63027" d="M16.311,74.64c0.048-1.992,1.421-2.845,3.264-2.845
		c1.749,0,3.195,0.492,3.195,2.511c0,1.351-0.688,1.514-1.917,1.649c-3.219,0.385-6.551,0.503-6.551,3.933
		c0,2.458,1.843,3.573,4.092,3.573c2.339,0,3.406-0.899,4.444-2.484h0.048c0,1.278,0.235,2.128,1.749,2.128
		c0.407,0,0.639-0.029,0.969-0.091v-1.256c-0.116,0.045-0.304,0.096-0.468,0.096c-0.591,0-0.877-0.329-0.877-0.903v-6.478
		c0-3.265-2.344-3.926-4.494-3.926c-2.791,0-4.806,1.229-4.947,4.093H16.311 M22.77,78.377c0.022,2.386-1.988,3.831-4.258,3.831
		c-1.399,0-2.721-0.928-2.721-2.417c0-2.384,3.146-2.364,5.676-2.813c0.403-0.069,1.065-0.189,1.255-0.545h0.048V78.377z"/>
	<rect x="26.74" y="66.22" fill="#E63027" width="1.494" height="16.885"/>
	<path fill="#E63027" d="M40.46,70.898h-1.491v6.411c0,2.482-1.114,4.893-3.668,4.893c-2.36,0-3.194-1.155-3.262-3.357v-7.946
		h-1.487v7.924c0,2.84,1.205,4.639,4.278,4.639c1.822,0,3.434-0.931,4.209-2.553h0.051v2.202h1.37V70.898"/>
	<path fill-rule="evenodd" clip-rule="evenodd" fill="#E63027" d="M53.496,66.249h-1.493v7.007h-0.044
		c-0.642-1.759-2.417-2.673-4.235-2.673c-3.717,0-5.492,2.996-5.492,6.453c0,3.459,1.775,6.462,5.492,6.462
		c1.773,0,3.713-1.093,4.352-2.671h0.044v2.315h1.376V66.249 M43.727,77.035c0-2.531,1.155-5.202,3.998-5.202
		c3.168,0,4.279,2.671,4.279,5.202c0,2.535-1.111,5.208-4.279,5.208C44.882,82.244,43.727,79.57,43.727,77.035"/>
	<polygon fill="#0097D8" points="56.052,83.141 57.658,83.141 57.658,68.543 57.708,68.543 63.5,83.141 65.015,83.141 
		70.787,68.543 70.835,68.543 70.835,83.141 72.445,83.141 72.445,66.249 70.083,66.249 64.259,81.062 58.417,66.249 56.052,66.249 
			"/>
	<path fill-rule="evenodd" clip-rule="evenodd" fill="#0097D8" d="M76.342,74.676c0.045-1.992,1.418-2.842,3.264-2.842
		c1.752,0,3.191,0.496,3.191,2.506c0,1.351-0.687,1.522-1.913,1.66c-3.22,0.376-6.557,0.49-6.557,3.924
		c0,2.464,1.849,3.573,4.093,3.573c2.344,0,3.408-0.899,4.448-2.489h0.051c0,1.28,0.238,2.132,1.75,2.132
		c0.404,0,0.636-0.029,0.971-0.091v-1.251c-0.123,0.038-0.31,0.085-0.471,0.085c-0.597,0-0.877-0.33-0.877-0.897v-6.478
		c0-3.27-2.341-3.926-4.499-3.926c-2.79,0-4.798,1.224-4.941,4.093H76.342 M82.797,78.411c0.024,2.386-1.987,3.833-4.257,3.833
		c-1.395,0-2.719-0.928-2.719-2.419c0-2.391,3.144-2.362,5.677-2.818c0.403-0.062,1.066-0.178,1.253-0.539h0.046V78.411z"/>
	<path fill-rule="evenodd" clip-rule="evenodd" fill="#0097D8" d="M97.49,66.249H96v7.007h-0.046
		c-0.642-1.759-2.413-2.673-4.233-2.673c-3.721,0-5.493,2.996-5.493,6.453c0,3.459,1.772,6.462,5.493,6.462
		c1.771,0,3.71-1.093,4.351-2.671h0.051v2.315h1.368V66.249 M87.722,77.035c0-2.531,1.158-5.202,3.999-5.202
		c3.165,0,4.279,2.671,4.279,5.202c0,2.535-1.114,5.208-4.279,5.208C88.88,82.244,87.722,79.57,87.722,77.035"/>
	<path fill="#0097D8" d="M99.81,83.141h1.489v-6.504c0-2.531,1.846-4.523,4.545-4.374V70.77c-2.2-0.096-3.861,1.064-4.619,3.027
		h-0.043v-2.858H99.81V83.141"/>
	<path fill-rule="evenodd" clip-rule="evenodd" fill="#0097D8" d="M106.763,68.642h1.491v-2.393h-1.491V68.642z M106.763,83.141
		h1.491V70.938h-1.491V83.141z"/>
	<path fill-rule="evenodd" clip-rule="evenodd" fill="#0097D8" d="M121.336,66.249h-1.492v7.007h-0.048
		c-0.639-1.759-2.411-2.673-4.235-2.673c-3.714,0-5.488,2.996-5.488,6.453c0,3.459,1.774,6.462,5.488,6.462
		c1.775,0,3.715-1.093,4.352-2.671h0.048v2.315h1.375V66.249 M111.563,77.035c0-2.531,1.16-5.202,3.998-5.202
		c3.17,0,4.283,2.671,4.283,5.202c0,2.535-1.112,5.208-4.283,5.208C112.723,82.244,111.563,79.57,111.563,77.035"/>
	<rect x="63.053" fill="#E63027" width="58.319" height="57.532"/>
	<polygon fill="#FFFFFF" points="74.231,19.29 73.058,22.902 69.214,22.951 72.334,25.139 71.208,28.671 74.231,26.506 
		77.299,28.631 76.125,25.097 79.19,22.857 75.418,22.902 	"/>
	<polygon fill="#FFFFFF" points="86.316,19.29 85.148,22.902 81.308,22.951 84.42,25.139 83.298,28.671 86.316,26.506 
		89.382,28.631 88.215,25.097 91.283,22.857 87.508,22.902 	"/>
	<polygon fill="#FFFFFF" points="98.459,19.29 97.29,22.902 93.446,22.951 96.566,25.139 95.44,28.671 98.459,26.506 
		101.527,28.631 100.356,25.097 103.421,22.857 99.657,22.902 	"/>
	<polygon fill="#FFFFFF" points="92.353,27.527 91.182,31.14 87.336,31.185 90.458,33.379 89.321,36.91 92.353,34.744 95.42,36.87 
		94.25,33.334 97.312,31.095 93.542,31.14 	"/>
	<polygon fill="#FFFFFF" points="80.242,27.527 79.068,31.14 75.234,31.185 78.343,33.379 77.219,36.91 80.242,34.744 83.304,36.87 
		82.134,33.334 85.199,31.095 81.431,31.14 	"/>
	<polygon fill="#FFFFFF" points="104.513,27.527 103.343,31.14 99.504,31.185 102.616,33.379 101.491,36.91 104.513,34.744 
		107.58,36.87 106.412,33.334 109.477,31.095 105.708,31.14 	"/>
	<polygon fill="#FFFFFF" points="110.59,19.29 109.41,22.902 105.579,22.951 108.688,25.139 107.565,28.671 110.59,26.506 
		113.652,28.631 112.478,25.097 115.546,22.857 111.781,22.902 	"/>
	<polygon fill="#0097D8" points="44.491,57.532 13.797,56.33 13.116,45.528 0.253,44.148 3.684,15.176 12.603,14.484 12.771,0.084 
		26.657,0.427 27.686,16.029 8.141,24.607 29.576,30.096 32.148,51.861 43.634,33.01 59.579,36.778 60.267,44.84 45.18,45.866 	"/>
	<polygon fill="#0097D8" points="31.758,0.592 40.731,10.413 44.119,8.726 43.443,0.768 	"/>
	<polygon fill="#0097D8" points="49.882,20.411 59.36,31.26 59.532,14.989 54.278,14.143 	"/>
	<g>
		<path fill="#0097D8" d="M140.698,0.254h6.26v10.924h11.522V0.254h6.26v28.467h-6.26v-12.28h-11.522v12.28h-6.26V0.254z"/>
		<path fill="#0097D8" d="M179.652,7.55c6.499,0,10.685,4.306,10.685,10.884c0,6.539-4.187,10.845-10.685,10.845
			c-6.459,0-10.646-4.306-10.646-10.845C169.006,11.856,173.193,7.55,179.652,7.55z M179.652,25.013
			c3.867,0,5.023-3.309,5.023-6.579c0-3.309-1.156-6.618-5.023-6.618c-3.828,0-4.984,3.309-4.984,6.618
			C174.668,21.704,175.824,25.013,179.652,25.013z"/>
		<path fill="#0097D8" d="M198.39,22.023c0.04,2.472,2.113,3.469,4.346,3.469c1.634,0,3.708-0.638,3.708-2.631
			c0-1.714-2.352-2.312-6.419-3.19c-3.27-0.717-6.539-1.874-6.539-5.502c0-5.263,4.545-6.618,8.971-6.618
			c4.505,0,8.652,1.515,9.09,6.578h-5.382c-0.16-2.192-1.834-2.791-3.868-2.791c-1.276,0-3.149,0.239-3.149,1.914
			c0,2.033,3.189,2.312,6.419,3.07c3.309,0.757,6.539,1.954,6.539,5.781c0,5.422-4.705,7.177-9.409,7.177
			c-4.785,0-9.449-1.794-9.688-7.256H198.39z"/>
		<path fill="#0097D8" d="M215.415,8.108h5.383v2.631h0.08c1.355-2.193,3.588-3.189,6.14-3.189c6.459,0,9.369,5.223,9.369,11.083
			c0,5.502-3.03,10.646-9.05,10.646c-2.472,0-4.824-1.077-6.18-3.11h-0.08v9.808h-5.662V8.108z M230.725,18.475
			c0-3.27-1.316-6.658-4.944-6.658c-3.708,0-4.904,3.309-4.904,6.658s1.276,6.539,4.944,6.539
			C229.529,25.013,230.725,21.824,230.725,18.475z"/>
		<path fill="#0097D8" d="M245.596,4.918h-5.662V0.254h5.662V4.918z M239.935,8.108h5.662v20.613h-5.662V8.108z"/>
		<path fill="#0097D8" d="M257.238,8.108h4.146v3.788h-4.146v10.207c0,1.914,0.479,2.393,2.392,2.393c0.598,0,1.156-0.04,1.754-0.16
			v4.426c-0.957,0.159-2.193,0.199-3.309,0.199c-3.469,0-6.499-0.797-6.499-4.904v-12.16h-3.429V8.108h3.429v-6.18h5.662V8.108z"/>
		<path fill="#0097D8" d="M263.856,14.448c0.319-5.303,5.063-6.897,9.688-6.897c4.107,0,9.051,0.917,9.051,5.861v10.725
			c0,1.874,0.199,3.748,0.718,4.585h-5.742c-0.199-0.638-0.358-1.316-0.398-1.994c-1.794,1.874-4.426,2.552-6.938,2.552
			c-3.907,0-7.017-1.954-7.017-6.18c0-4.665,3.509-5.781,7.017-6.26c3.469-0.518,6.698-0.399,6.698-2.711
			c0-2.432-1.674-2.791-3.668-2.791c-2.153,0-3.548,0.877-3.748,3.11H263.856z M276.934,18.634c-0.957,0.837-2.95,0.877-4.705,1.196
			c-1.754,0.359-3.349,0.957-3.349,3.03c0,2.113,1.635,2.631,3.469,2.631c4.425,0,4.585-3.509,4.585-4.745V18.634z"/>
		<path fill="#0097D8" d="M287.141,0.254h5.662v28.467h-5.662V0.254z"/>
		<path fill="#0097D8" d="M333.11,17.956c0,7.695-4.545,11.443-12.16,11.443c-7.655,0-12.12-3.708-12.12-11.443V0.254h6.259v17.702
			c0,3.11,0.798,6.18,5.861,6.18c4.466,0,5.9-1.954,5.9-6.18V0.254h6.26V17.956z"/>
		<path fill="#0097D8" d="M337.896,8.108h5.382v2.871h0.12c1.436-2.312,3.907-3.429,6.299-3.429c6.021,0,7.536,3.389,7.536,8.492
			v12.679h-5.662V17.079c0-3.389-0.996-5.063-3.628-5.063c-3.07,0-4.386,1.714-4.386,5.901v10.805h-5.661V8.108z"/>
		<path fill="#0097D8" d="M367.358,4.918h-5.661V0.254h5.661V4.918z M361.697,8.108h5.661v20.613h-5.661V8.108z"/>
		<path fill="#0097D8" d="M383.227,28.721h-6.299L369.87,8.108h5.94l4.347,14.074h0.079l4.346-14.074h5.622L383.227,28.721z"/>
		<path fill="#0097D8" d="M397.221,19.79c0.16,3.588,1.914,5.223,5.063,5.223c2.273,0,4.107-1.396,4.466-2.671h4.984
			c-1.596,4.864-4.984,6.938-9.649,6.938c-6.498,0-10.525-4.465-10.525-10.845c0-6.18,4.266-10.884,10.525-10.884
			c7.018,0,10.406,5.9,10.008,12.24H397.221z M406.431,16.202c-0.518-2.871-1.754-4.386-4.505-4.386
			c-3.588,0-4.625,2.791-4.705,4.386H406.431z"/>
		<path fill="#0097D8" d="M415.442,8.108h5.382v3.828h0.08c1.036-2.592,3.827-4.386,6.578-4.386c0.399,0,0.878,0.08,1.236,0.199
			v5.263c-0.519-0.12-1.355-0.199-2.033-0.199c-4.146,0-5.582,2.99-5.582,6.619v9.29h-5.661V8.108z"/>
		<path fill="#0097D8" d="M435.337,22.023c0.039,2.472,2.112,3.469,4.346,3.469c1.635,0,3.708-0.638,3.708-2.631
			c0-1.714-2.353-2.312-6.419-3.19c-3.27-0.717-6.539-1.874-6.539-5.502c0-5.263,4.545-6.618,8.971-6.618
			c4.505,0,8.652,1.515,9.091,6.578h-5.383c-0.159-2.192-1.834-2.791-3.867-2.791c-1.276,0-3.15,0.239-3.15,1.914
			c0,2.033,3.19,2.312,6.42,3.07c3.309,0.757,6.538,1.954,6.538,5.781c0,5.422-4.704,7.177-9.409,7.177
			c-4.784,0-9.449-1.794-9.688-7.256H435.337z"/>
		<path fill="#0097D8" d="M458.182,4.918h-5.661V0.254h5.661V4.918z M452.521,8.108h5.661v20.613h-5.661V8.108z"/>
		<path fill="#0097D8" d="M469.824,8.108h4.146v3.788h-4.146v10.207c0,1.914,0.478,2.393,2.392,2.393c0.599,0,1.156-0.04,1.755-0.16
			v4.426c-0.957,0.159-2.193,0.199-3.31,0.199c-3.469,0-6.499-0.797-6.499-4.904v-12.16h-3.429V8.108h3.429v-6.18h5.662V8.108z"/>
		<path fill="#0097D8" d="M476.442,14.448c0.318-5.303,5.063-6.897,9.688-6.897c4.106,0,9.05,0.917,9.05,5.861v10.725
			c0,1.874,0.2,3.748,0.718,4.585h-5.741c-0.199-0.638-0.358-1.316-0.398-1.994c-1.794,1.874-4.426,2.552-6.938,2.552
			c-3.907,0-7.018-1.954-7.018-6.18c0-4.665,3.509-5.781,7.018-6.26c3.469-0.518,6.698-0.399,6.698-2.711
			c0-2.432-1.675-2.791-3.668-2.791c-2.153,0-3.549,0.877-3.748,3.11H476.442z M489.52,18.634c-0.957,0.837-2.95,0.877-4.705,1.196
			c-1.754,0.359-3.349,0.957-3.349,3.03c0,2.113,1.635,2.631,3.469,2.631c4.426,0,4.585-3.509,4.585-4.745V18.634z"/>
		<path fill="#0097D8" d="M499.567,8.108h5.382v3.828h0.08c1.036-2.592,3.827-4.386,6.578-4.386c0.399,0,0.878,0.08,1.236,0.199
			v5.263c-0.519-0.12-1.355-0.199-2.033-0.199c-4.146,0-5.582,2.99-5.582,6.619v9.29h-5.661V8.108z"/>
		<path fill="#0097D8" d="M520.896,4.918h-5.661V0.254h5.661V4.918z M515.235,8.108h5.661v20.613h-5.661V8.108z"/>
		<path fill="#0097D8" d="M535.369,7.55c6.499,0,10.686,4.306,10.686,10.884c0,6.539-4.187,10.845-10.686,10.845
			c-6.459,0-10.646-4.306-10.646-10.845C524.724,11.856,528.91,7.55,535.369,7.55z M535.369,25.013c3.868,0,5.024-3.309,5.024-6.579
			c0-3.309-1.156-6.618-5.024-6.618c-3.827,0-4.983,3.309-4.983,6.618C530.386,21.704,531.542,25.013,535.369,25.013z"/>
	</g>
	<g>
		<path fill="#0097D8" d="M140.684,41.686h9.12v33.809h20.215v7.668h-29.335V41.686z"/>
		<path fill="#0097D8" d="M173.91,62.366c0.465-7.726,7.378-10.049,14.116-10.049c5.983,0,13.187,1.336,13.187,8.539v15.626
			c0,2.73,0.291,5.46,1.045,6.68h-8.365c-0.291-0.93-0.523-1.917-0.581-2.904c-2.614,2.73-6.448,3.718-10.107,3.718
			c-5.693,0-10.224-2.847-10.224-9.004c0-6.796,5.112-8.423,10.224-9.12c5.054-0.755,9.759-0.581,9.759-3.95
			c0-3.543-2.439-4.066-5.344-4.066c-3.137,0-5.17,1.278-5.46,4.531H173.91z M192.964,68.466c-1.394,1.22-4.298,1.278-6.854,1.743
			c-2.556,0.523-4.879,1.394-4.879,4.415c0,3.079,2.381,3.834,5.054,3.834c6.448,0,6.68-5.112,6.68-6.913V68.466z"/>
		<path fill="#0097D8" d="M224.623,41.686h18.705c10.34,0,14.348,6.564,14.348,13.303c0,6.739-4.008,13.303-14.348,13.303h-9.585
			v14.871h-9.12V41.686z M233.743,61.205h7.087c4.241,0,8.017-0.93,8.017-6.216s-3.776-6.216-8.017-6.216h-7.087V61.205z"/>
		<path fill="#0097D8" d="M262.147,62.366c0.465-7.726,7.378-10.049,14.116-10.049c5.983,0,13.187,1.336,13.187,8.539v15.626
			c0,2.73,0.291,5.46,1.045,6.68h-8.365c-0.291-0.93-0.523-1.917-0.581-2.904c-2.614,2.73-6.448,3.718-10.107,3.718
			c-5.693,0-10.224-2.847-10.224-9.004c0-6.796,5.112-8.423,10.224-9.12c5.054-0.755,9.759-0.581,9.759-3.95
			c0-3.543-2.439-4.066-5.344-4.066c-3.137,0-5.17,1.278-5.46,4.531H262.147z M281.201,68.466c-1.394,1.22-4.298,1.278-6.854,1.743
			c-2.556,0.523-4.879,1.394-4.879,4.415c0,3.079,2.381,3.834,5.054,3.834c6.448,0,6.68-5.112,6.68-6.913V68.466z"/>
		<path fill="#0097D8" d="M293.98,76.947l15.626-17.601h-14.464V53.13h25.327v6.216l-15.626,17.601h16.729v6.216H293.98V76.947z"/>
	</g>
</g>
<g>
	<path fill="#0097D8" d="M395.757,50.431h2.826v4.932h5.202v-4.932h2.826v12.852h-2.826v-5.544h-5.202v5.544h-2.826V50.431z"/>
	<path fill="#0097D8" d="M413.343,53.725c2.934,0,4.824,1.944,4.824,4.914c0,2.952-1.891,4.896-4.824,4.896
		c-2.916,0-4.806-1.944-4.806-4.896C408.537,55.669,410.427,53.725,413.343,53.725z M413.343,61.609c1.746,0,2.268-1.494,2.268-2.97
		c0-1.494-0.521-2.988-2.268-2.988c-1.728,0-2.25,1.494-2.25,2.988C411.093,60.115,411.615,61.609,413.343,61.609z"/>
	<path fill="#0097D8" d="M421.804,60.259c0.018,1.116,0.953,1.566,1.961,1.566c0.738,0,1.674-0.288,1.674-1.188
		c0-0.774-1.062-1.044-2.897-1.44c-1.476-0.324-2.952-0.846-2.952-2.484c0-2.376,2.053-2.988,4.051-2.988
		c2.033,0,3.905,0.684,4.104,2.97h-2.43c-0.072-0.99-0.828-1.26-1.746-1.26c-0.576,0-1.422,0.108-1.422,0.864
		c0,0.918,1.439,1.044,2.897,1.386c1.494,0.342,2.952,0.882,2.952,2.61c0,2.448-2.124,3.24-4.248,3.24
		c-2.16,0-4.266-0.81-4.374-3.276H421.804z"/>
	<path fill="#0097D8" d="M429.489,53.977h2.43v1.188h0.035c0.612-0.99,1.621-1.44,2.772-1.44c2.916,0,4.229,2.358,4.229,5.004
		c0,2.484-1.367,4.806-4.086,4.806c-1.115,0-2.178-0.486-2.789-1.404h-0.037v4.428h-2.555V53.977z M436.401,58.657
		c0-1.476-0.595-3.006-2.232-3.006c-1.674,0-2.215,1.494-2.215,3.006c0,1.512,0.576,2.952,2.232,2.952
		C435.86,61.609,436.401,60.169,436.401,58.657z"/>
	<path fill="#0097D8" d="M443.114,52.537h-2.556v-2.106h2.556V52.537z M440.559,53.977h2.556v9.306h-2.556V53.977z"/>
	<path fill="#0097D8" d="M448.37,53.977h1.873v1.71h-1.873v4.608c0,0.864,0.217,1.08,1.08,1.08c0.271,0,0.522-0.018,0.793-0.072
		v1.998c-0.433,0.072-0.99,0.09-1.494,0.09c-1.566,0-2.935-0.36-2.935-2.214v-5.49h-1.548v-1.71h1.548v-2.79h2.556V53.977z"/>
	<path fill="#0097D8" d="M451.358,56.839c0.144-2.394,2.285-3.114,4.373-3.114c1.854,0,4.087,0.414,4.087,2.646v4.842
		c0,0.846,0.09,1.692,0.323,2.07h-2.592c-0.09-0.288-0.162-0.594-0.18-0.9c-0.811,0.846-1.998,1.152-3.132,1.152
		c-1.765,0-3.168-0.882-3.168-2.79c0-2.106,1.584-2.61,3.168-2.826c1.565-0.234,3.024-0.18,3.024-1.224
		c0-1.098-0.756-1.26-1.656-1.26c-0.973,0-1.603,0.396-1.692,1.404H451.358z M457.263,58.729c-0.433,0.378-1.332,0.396-2.125,0.54
		c-0.791,0.162-1.512,0.432-1.512,1.368c0,0.954,0.738,1.188,1.566,1.188c1.998,0,2.07-1.584,2.07-2.142V58.729z"/>
	<path fill="#0097D8" d="M461.87,50.431h2.557v12.852h-2.557V50.431z"/>
	<path fill="#0097D8" d="M480.284,54.751c-0.18-1.278-1.404-2.25-2.809-2.25c-2.537,0-3.491,2.16-3.491,4.41
		c0,2.142,0.954,4.302,3.491,4.302c1.729,0,2.701-1.188,2.916-2.88h2.736c-0.287,3.204-2.502,5.256-5.652,5.256
		c-3.978,0-6.317-2.97-6.317-6.678c0-3.816,2.34-6.786,6.317-6.786c2.826,0,5.203,1.656,5.545,4.626H480.284z"/>
	<path fill="#0097D8" d="M484.676,56.839c0.144-2.394,2.286-3.114,4.374-3.114c1.854,0,4.086,0.414,4.086,2.646v4.842
		c0,0.846,0.09,1.692,0.324,2.07h-2.592c-0.09-0.288-0.162-0.594-0.18-0.9c-0.811,0.846-1.998,1.152-3.133,1.152
		c-1.764,0-3.168-0.882-3.168-2.79c0-2.106,1.584-2.61,3.168-2.826c1.566-0.234,3.024-0.18,3.024-1.224
		c0-1.098-0.756-1.26-1.656-1.26c-0.972,0-1.602,0.396-1.692,1.404H484.676z M490.58,58.729c-0.433,0.378-1.332,0.396-2.124,0.54
		c-0.792,0.162-1.512,0.432-1.512,1.368c0,0.954,0.738,1.188,1.566,1.188c1.997,0,2.069-1.584,2.069-2.142V58.729z"/>
	<path fill="#0097D8" d="M495.116,53.977h2.43v1.728h0.036c0.468-1.17,1.728-1.98,2.97-1.98c0.18,0,0.396,0.036,0.559,0.09v2.376
		c-0.234-0.054-0.612-0.09-0.918-0.09c-1.872,0-2.521,1.35-2.521,2.988v4.194h-2.556V53.977z"/>
	<path fill="#0097D8" d="M502.189,50.431h2.556v12.852h-2.556V50.431z"/>
	<path fill="#0097D8" d="M511.28,53.725c2.934,0,4.823,1.944,4.823,4.914c0,2.952-1.89,4.896-4.823,4.896
		c-2.916,0-4.807-1.944-4.807-4.896C506.474,55.669,508.364,53.725,511.28,53.725z M511.28,61.609c1.745,0,2.268-1.494,2.268-2.97
		c0-1.494-0.522-2.988-2.268-2.988c-1.729,0-2.25,1.494-2.25,2.988C509.03,60.115,509.552,61.609,511.28,61.609z"/>
	<path fill="#0097D8" d="M519.739,60.259c0.019,1.116,0.955,1.566,1.963,1.566c0.737,0,1.674-0.288,1.674-1.188
		c0-0.774-1.062-1.044-2.898-1.44c-1.477-0.324-2.952-0.846-2.952-2.484c0-2.376,2.052-2.988,4.05-2.988
		c2.035,0,3.906,0.684,4.104,2.97h-2.431c-0.071-0.99-0.827-1.26-1.746-1.26c-0.575,0-1.422,0.108-1.422,0.864
		c0,0.918,1.44,1.044,2.898,1.386c1.494,0.342,2.952,0.882,2.952,2.61c0,2.448-2.124,3.24-4.248,3.24
		c-2.16,0-4.267-0.81-4.374-3.276H519.739z"/>
	<path fill="#0097D8" d="M532.699,50.431h2.825v12.852h-2.825V50.431z"/>
	<path fill="#0097D8" d="M538.009,50.431h2.826v12.852h-2.826V50.431z"/>
	<path fill="#0097D8" d="M543.319,50.431h2.826v12.852h-2.826V50.431z"/>
	<path fill="#0097D8" d="M363.017,69.431h2.825v4.932h5.202v-4.932h2.826v12.852h-2.826v-5.544h-5.202v5.544h-2.825V69.431z"/>
	<path fill="#0097D8" d="M380.603,72.725c2.934,0,4.823,1.944,4.823,4.914c0,2.952-1.89,4.896-4.823,4.896
		c-2.916,0-4.807-1.944-4.807-4.896C375.796,74.669,377.687,72.725,380.603,72.725z M380.603,80.609c1.745,0,2.268-1.494,2.268-2.97
		c0-1.494-0.522-2.988-2.268-2.988c-1.729,0-2.25,1.494-2.25,2.988C378.353,79.115,378.874,80.609,380.603,80.609z"/>
	<path fill="#0097D8" d="M389.062,79.259c0.019,1.116,0.955,1.566,1.963,1.566c0.737,0,1.674-0.288,1.674-1.188
		c0-0.774-1.062-1.044-2.898-1.44c-1.477-0.324-2.952-0.846-2.952-2.484c0-2.376,2.052-2.988,4.05-2.988
		c2.035,0,3.906,0.684,4.104,2.97h-2.431c-0.071-0.99-0.827-1.26-1.746-1.26c-0.575,0-1.422,0.108-1.422,0.864
		c0,0.918,1.44,1.044,2.898,1.386c1.494,0.342,2.952,0.882,2.952,2.61c0,2.448-2.124,3.24-4.248,3.24
		c-2.16,0-4.267-0.81-4.374-3.276H389.062z"/>
	<path fill="#0097D8" d="M396.747,72.977h2.43v1.188h0.037c0.611-0.99,1.619-1.44,2.771-1.44c2.916,0,4.23,2.358,4.23,5.004
		c0,2.484-1.368,4.806-4.086,4.806c-1.117,0-2.179-0.486-2.791-1.404h-0.035v4.428h-2.557V72.977z M403.659,77.657
		c0-1.476-0.594-3.006-2.232-3.006c-1.674,0-2.213,1.494-2.213,3.006c0,1.512,0.576,2.952,2.231,2.952
		C403.12,80.609,403.659,79.169,403.659,77.657z"/>
	<path fill="#0097D8" d="M410.374,71.537h-2.557v-2.106h2.557V71.537z M407.817,72.977h2.557v9.306h-2.557V72.977z"/>
	<path fill="#0097D8" d="M415.63,72.977h1.871v1.71h-1.871v4.608c0,0.864,0.216,1.08,1.08,1.08c0.27,0,0.521-0.018,0.791-0.072
		v1.998c-0.432,0.072-0.989,0.09-1.494,0.09c-1.565,0-2.934-0.36-2.934-2.214v-5.49h-1.548v-1.71h1.548v-2.79h2.557V72.977z"/>
	<path fill="#0097D8" d="M418.616,75.839c0.145-2.394,2.287-3.114,4.375-3.114c1.854,0,4.086,0.414,4.086,2.646v4.842
		c0,0.846,0.09,1.692,0.324,2.07h-2.592c-0.091-0.288-0.162-0.594-0.181-0.9c-0.81,0.846-1.998,1.152-3.132,1.152
		c-1.764,0-3.168-0.882-3.168-2.79c0-2.106,1.584-2.61,3.168-2.826c1.566-0.234,3.023-0.18,3.023-1.224
		c0-1.098-0.756-1.26-1.656-1.26c-0.971,0-1.602,0.396-1.691,1.404H418.616z M424.521,77.729c-0.432,0.378-1.332,0.396-2.123,0.54
		c-0.793,0.162-1.513,0.432-1.513,1.368c0,0.954,0.738,1.188,1.566,1.188c1.998,0,2.069-1.584,2.069-2.142V77.729z"/>
	<path fill="#0097D8" d="M429.129,69.431h2.556v12.852h-2.556V69.431z"/>
	<path fill="#0097D8" d="M447.543,73.751c-0.181-1.278-1.403-2.25-2.808-2.25c-2.539,0-3.492,2.16-3.492,4.41
		c0,2.142,0.953,4.302,3.492,4.302c1.728,0,2.699-1.188,2.916-2.88h2.736c-0.289,3.204-2.503,5.256-5.652,5.256
		c-3.979,0-6.318-2.97-6.318-6.678c0-3.816,2.34-6.786,6.318-6.786c2.826,0,5.201,1.656,5.543,4.626H447.543z"/>
	<path fill="#0097D8" d="M451.935,75.839c0.145-2.394,2.286-3.114,4.374-3.114c1.854,0,4.087,0.414,4.087,2.646v4.842
		c0,0.846,0.09,1.692,0.323,2.07h-2.592c-0.091-0.288-0.162-0.594-0.181-0.9c-0.81,0.846-1.998,1.152-3.131,1.152
		c-1.765,0-3.168-0.882-3.168-2.79c0-2.106,1.584-2.61,3.168-2.826c1.565-0.234,3.023-0.18,3.023-1.224
		c0-1.098-0.756-1.26-1.656-1.26c-0.972,0-1.602,0.396-1.691,1.404H451.935z M457.839,77.729c-0.432,0.378-1.332,0.396-2.124,0.54
		c-0.792,0.162-1.513,0.432-1.513,1.368c0,0.954,0.738,1.188,1.566,1.188c1.998,0,2.07-1.584,2.07-2.142V77.729z"/>
	<path fill="#0097D8" d="M462.375,72.977h2.43v1.296h0.054c0.648-1.044,1.765-1.548,2.844-1.548c2.719,0,3.402,1.53,3.402,3.834
		v5.724h-2.556v-5.256c0-1.53-0.45-2.286-1.638-2.286c-1.387,0-1.98,0.774-1.98,2.664v4.878h-2.556V72.977z"/>
	<path fill="#0097D8" d="M476.288,72.977h1.872v1.71h-1.872v4.608c0,0.864,0.217,1.08,1.08,1.08c0.27,0,0.521-0.018,0.792-0.072
		v1.998c-0.433,0.072-0.989,0.09-1.494,0.09c-1.565,0-2.934-0.36-2.934-2.214v-5.49h-1.548v-1.71h1.548v-2.79h2.556V72.977z"/>
	<path fill="#0097D8" d="M483.902,72.725c2.934,0,4.823,1.944,4.823,4.914c0,2.952-1.89,4.896-4.823,4.896
		c-2.916,0-4.806-1.944-4.806-4.896C479.097,74.669,480.986,72.725,483.902,72.725z M483.902,80.609c1.745,0,2.268-1.494,2.268-2.97
		c0-1.494-0.522-2.988-2.268-2.988c-1.728,0-2.25,1.494-2.25,2.988C481.652,79.115,482.175,80.609,483.902,80.609z"/>
	<path fill="#0097D8" d="M490.382,69.431h2.557v4.68h0.035c0.631-0.954,1.783-1.386,2.935-1.386c1.854,0,3.853,1.494,3.853,4.896
		c0,3.42-1.998,4.914-3.853,4.914c-1.368,0-2.502-0.414-3.06-1.44h-0.037v1.188h-2.43V69.431z M495.026,74.651
		c-1.512,0-2.178,1.422-2.178,2.988c0,1.548,0.666,2.97,2.178,2.97s2.178-1.422,2.178-2.97
		C497.204,76.073,496.538,74.651,495.026,74.651z"/>
	<path fill="#0097D8" d="M501.452,69.431h2.556v12.852h-2.556V69.431z"/>
	<path fill="#0097D8" d="M505.915,75.839c0.145-2.394,2.287-3.114,4.375-3.114c1.854,0,4.086,0.414,4.086,2.646v4.842
		c0,0.846,0.09,1.692,0.324,2.07h-2.592c-0.091-0.288-0.162-0.594-0.181-0.9c-0.81,0.846-1.998,1.152-3.132,1.152
		c-1.764,0-3.168-0.882-3.168-2.79c0-2.106,1.584-2.61,3.168-2.826c1.566-0.234,3.023-0.18,3.023-1.224
		c0-1.098-0.756-1.26-1.656-1.26c-0.971,0-1.602,0.396-1.691,1.404H505.915z M511.819,77.729c-0.432,0.378-1.332,0.396-2.123,0.54
		c-0.793,0.162-1.513,0.432-1.513,1.368c0,0.954,0.738,1.188,1.566,1.188c1.998,0,2.069-1.584,2.069-2.142V77.729z"/>
	<path fill="#0097D8" d="M516.356,72.977h2.43v1.296h0.054c0.647-1.044,1.765-1.548,2.844-1.548c2.718,0,3.402,1.53,3.402,3.834
		v5.724h-2.556v-5.256c0-1.53-0.45-2.286-1.639-2.286c-1.386,0-1.98,0.774-1.98,2.664v4.878h-2.555V72.977z"/>
	<path fill="#0097D8" d="M533.366,76.253c-0.162-1.044-0.828-1.602-1.891-1.602c-1.639,0-2.178,1.656-2.178,3.024
		c0,1.332,0.521,2.934,2.124,2.934c1.188,0,1.872-0.756,2.034-1.89h2.466c-0.324,2.466-2.034,3.816-4.482,3.816
		c-2.808,0-4.698-1.98-4.698-4.77c0-2.898,1.729-5.04,4.752-5.04c2.196,0,4.213,1.152,4.375,3.528H533.366z"/>
	<path fill="#0097D8" d="M541.88,72.725c2.934,0,4.823,1.944,4.823,4.914c0,2.952-1.89,4.896-4.823,4.896
		c-2.916,0-4.807-1.944-4.807-4.896C537.073,74.669,538.964,72.725,541.88,72.725z M541.88,80.609c1.745,0,2.268-1.494,2.268-2.97
		c0-1.494-0.522-2.988-2.268-2.988c-1.729,0-2.25,1.494-2.25,2.988C539.63,79.115,540.151,80.609,541.88,80.609z"/>
</g>
</svg>
