<?xml version="1.0" encoding="utf-8"?>
<!-- Generator: Adobe Illustrator 16.0.0, SVG Export Plug-In . SVG Version: 6.00 Build 0)  -->
<!DOCTYPE svg PUBLIC "-//W3C//DTD SVG 1.1//EN" "http://www.w3.org/Graphics/SVG/1.1/DTD/svg11.dtd">
<svg version="1.1" id="Capa_1" xmlns="http://www.w3.org/2000/svg" xmlns:xlink="http://www.w3.org/1999/xlink" x="0px" y="0px"
	 width="344.612px" height="44.5px" viewBox="0 0 344.612 44.407" enable-background="new 0 0 344.612 44.407"
	 xml:space="preserve">
<g>
	<path fill="#E63027" d="M0.004,36.412c-0.082,1.805,1.207,2.594,2.96,2.594c2.626,0,2.833-1.609,2.833-2.117
		c0-1.213-0.871-1.67-1.92-1.951L2.07,34.49c-0.602-0.143-1.119-0.434-1.119-1.131c0-1.1,0.895-1.473,1.859-1.473
		c1.047,0,1.979,0.572,2.021,1.699h0.705c0.013-1.512-1.276-2.301-2.738-2.301c-2.088,0-2.555,1.357-2.555,2.086
		c0,1.15,0.801,1.566,1.672,1.785l1.65,0.404c0.686,0.166,1.525,0.496,1.525,1.338c0,1.08-1.184,1.504-1.96,1.504
		c-1.351,0-2.45-0.467-2.421-1.99H0.004"/>
	<path fill-rule="evenodd" clip-rule="evenodd" fill="#E63027" d="M7.156,35.137c0.021-0.875,0.623-1.248,1.432-1.248
		c0.768,0,1.402,0.215,1.402,1.102c0,0.592-0.302,0.664-0.841,0.723c-1.412,0.17-2.874,0.221-2.874,1.727
		c0,1.078,0.809,1.566,1.795,1.566c1.027,0,1.494-0.395,1.95-1.09h0.021c0,0.561,0.104,0.934,0.768,0.934
		c0.179,0,0.28-0.012,0.426-0.039V38.26c-0.051,0.02-0.134,0.041-0.206,0.041c-0.259,0-0.385-0.145-0.385-0.396v-2.842
		c0-1.432-1.028-1.723-1.972-1.723c-1.225,0-2.108,0.539-2.17,1.797H7.156 M9.99,36.775c0.01,1.047-0.872,1.682-1.868,1.682
		c-0.614,0-1.194-0.408-1.194-1.061c0-1.047,1.381-1.037,2.49-1.234c0.178-0.031,0.468-0.084,0.551-0.24H9.99V36.775z"/>
	<rect x="11.732" y="31.441" fill="#E63027" width="0.654" height="7.408"/>
	<path fill="#E63027" d="M17.752,33.494h-0.654v2.812c0,1.09-0.489,2.146-1.609,2.146c-1.036,0-1.402-0.506-1.432-1.473v-3.486
		h-0.652v3.477c0,1.246,0.529,2.035,1.877,2.035c0.799,0,1.506-0.408,1.847-1.119h0.022v0.965h0.602V33.494"/>
	<path fill-rule="evenodd" clip-rule="evenodd" fill="#E63027" d="M23.471,31.455h-0.654v3.074h-0.02
		c-0.282-0.771-1.061-1.174-1.858-1.174c-1.631,0-2.409,1.314-2.409,2.832s0.778,2.834,2.409,2.834c0.778,0,1.629-0.479,1.909-1.172
		h0.02v1.016h0.604V31.455 M19.185,36.188c0-1.111,0.507-2.283,1.754-2.283c1.39,0,1.878,1.172,1.878,2.283
		s-0.488,2.285-1.878,2.285C19.691,38.473,19.185,37.299,19.185,36.188"/>
	<polygon fill="#0097D8" points="24.592,38.865 25.297,38.865 25.297,32.461 25.318,32.461 27.859,38.865 28.524,38.865 
		31.057,32.461 31.078,32.461 31.078,38.865 31.784,38.865 31.784,31.455 30.748,31.455 28.193,37.953 25.63,31.455 24.592,31.455 	
		"/>
	<path fill-rule="evenodd" clip-rule="evenodd" fill="#0097D8" d="M33.494,35.152c0.02-0.875,0.622-1.248,1.432-1.248
		c0.77,0,1.4,0.219,1.4,1.1c0,0.594-0.301,0.668-0.84,0.729c-1.412,0.166-2.876,0.215-2.876,1.723c0,1.08,0.812,1.566,1.796,1.566
		c1.028,0,1.495-0.395,1.951-1.092h0.022c0,0.562,0.104,0.936,0.768,0.936c0.177,0,0.278-0.012,0.426-0.039v-0.549
		c-0.054,0.016-0.136,0.037-0.206,0.037c-0.262,0-0.385-0.145-0.385-0.395v-2.842c0-1.434-1.027-1.723-1.975-1.723
		c-1.224,0-2.104,0.537-2.168,1.797H33.494 M36.326,36.791c0.011,1.047-0.871,1.682-1.867,1.682c-0.612,0-1.193-0.408-1.193-1.062
		c0-1.049,1.379-1.035,2.49-1.236c0.178-0.027,0.469-0.078,0.551-0.236h0.02V36.791z"/>
	<path fill-rule="evenodd" clip-rule="evenodd" fill="#0097D8" d="M42.772,31.455h-0.653v3.074h-0.021
		c-0.282-0.771-1.059-1.174-1.857-1.174c-1.632,0-2.41,1.314-2.41,2.832s0.778,2.834,2.41,2.834c0.776,0,1.628-0.479,1.909-1.172
		h0.021v1.016h0.601V31.455 M38.486,36.188c0-1.111,0.509-2.283,1.755-2.283c1.389,0,1.878,1.172,1.878,2.283
		s-0.489,2.285-1.878,2.285C38.995,38.473,38.486,37.299,38.486,36.188"/>
	<path fill="#0097D8" d="M43.79,38.865h0.653v-2.854c0-1.109,0.811-1.984,1.994-1.918v-0.656c-0.965-0.041-1.693,0.467-2.026,1.328
		h-0.019v-1.254H43.79V38.865"/>
	<path fill-rule="evenodd" clip-rule="evenodd" fill="#0097D8" d="M46.841,32.504h0.654v-1.049h-0.654V32.504z M46.841,38.865h0.654
		v-5.354h-0.654V38.865z"/>
	<path fill-rule="evenodd" clip-rule="evenodd" fill="#0097D8" d="M53.234,31.455H52.58v3.074h-0.021
		c-0.28-0.771-1.058-1.174-1.857-1.174c-1.63,0-2.408,1.314-2.408,2.832s0.778,2.834,2.408,2.834c0.778,0,1.629-0.479,1.908-1.172
		h0.021v1.016h0.604V31.455 M48.947,36.188c0-1.111,0.508-2.283,1.754-2.283c1.391,0,1.879,1.172,1.879,2.283
		s-0.488,2.285-1.879,2.285C49.455,38.473,48.947,37.299,48.947,36.188"/>
	<rect x="27.664" y="2.39" fill="#E63027" stroke="#FFFFFF" width="25.586" height="25.241"/>
	<polygon fill="#FFFFFF" points="32.568,10.853 32.053,12.438 30.367,12.459 31.736,13.419 31.242,14.969 32.568,14.019 
		33.914,14.951 33.398,13.4 34.744,12.418 33.089,12.438 	"/>
	<polygon fill="#FFFFFF" points="37.87,10.853 37.357,12.438 35.673,12.459 37.038,13.419 36.546,14.969 37.87,14.019 
		39.215,14.951 38.703,13.4 40.049,12.418 38.393,12.438 	"/>
	<polygon fill="#FFFFFF" points="43.197,10.853 42.685,12.438 40.998,12.459 42.367,13.419 41.873,14.969 43.197,14.019 
		44.543,14.951 44.029,13.4 45.375,12.418 43.723,12.438 	"/>
	<polygon fill="#FFFFFF" points="40.519,14.467 40.005,16.052 38.317,16.071 39.688,17.034 39.188,18.583 40.519,17.633 
		41.864,18.565 41.351,17.015 42.694,16.032 41.04,16.052 	"/>
	<polygon fill="#FFFFFF" points="35.205,14.467 34.689,16.052 33.008,16.071 34.372,17.034 33.879,18.583 35.205,17.633 
		36.549,18.565 36.035,17.015 37.38,16.032 35.727,16.052 	"/>
	<polygon fill="#FFFFFF" points="45.854,14.467 45.34,16.052 43.656,16.071 45.021,17.034 44.527,18.583 45.854,17.633 
		47.199,18.565 46.687,17.015 48.031,16.032 46.378,16.052 	"/>
	<polygon fill="#FFFFFF" points="48.52,10.853 48.002,12.438 46.321,12.459 47.686,13.419 47.193,14.969 48.52,14.019 
		49.863,14.951 49.348,13.4 50.694,12.418 49.043,12.438 	"/>
	<polygon fill="#0097D8" points="19.52,27.631 6.054,27.104 5.755,22.363 0.111,21.759 1.617,9.048 5.529,8.744 5.604,2.427 
		11.695,2.577 12.146,9.422 3.572,13.186 12.977,15.594 14.105,25.143 19.145,16.872 26.14,18.525 26.441,22.062 19.822,22.512 	"/>
	<polygon fill="#0097D8" points="13.934,2.649 17.871,6.958 19.357,6.218 19.061,2.727 	"/>
	<polygon fill="#0097D8" points="21.885,11.345 26.043,16.104 26.119,8.966 23.814,8.595 	"/>
	<g>
		<path fill="#0097D8" d="M64.476,2.502v4.793h5.056V2.502h2.746v12.489h-2.746V9.604h-5.056v5.388h-2.746V2.502H64.476z"/>
		<path fill="#0097D8" d="M74.481,8.51c0.221-0.588,0.536-1.09,0.945-1.504c0.408-0.414,0.897-0.734,1.469-0.962
			c0.571-0.228,1.212-0.341,1.924-0.341c0.711,0,1.355,0.113,1.933,0.341s1.07,0.548,1.478,0.962s0.723,0.916,0.945,1.504
			c0.221,0.59,0.333,1.245,0.333,1.969c0,0.723-0.111,1.376-0.333,1.959c-0.222,0.583-0.537,1.082-0.945,1.495
			c-0.408,0.414-0.901,0.732-1.478,0.954c-0.577,0.221-1.222,0.332-1.933,0.332c-0.712,0-1.353-0.111-1.924-0.332
			c-0.572-0.222-1.062-0.54-1.469-0.954c-0.409-0.413-0.724-0.912-0.945-1.495c-0.222-0.583-0.333-1.236-0.333-1.959
			C74.149,9.755,74.26,9.1,74.481,8.51z M76.738,11.536c0.07,0.345,0.189,0.653,0.359,0.928c0.169,0.273,0.394,0.492,0.673,0.655
			c0.28,0.164,0.63,0.245,1.05,0.245c0.419,0,0.772-0.081,1.058-0.245c0.286-0.163,0.513-0.382,0.682-0.655
			c0.169-0.274,0.289-0.583,0.358-0.928c0.07-0.344,0.105-0.696,0.105-1.058s-0.035-0.718-0.105-1.067
			c-0.07-0.35-0.189-0.659-0.358-0.927c-0.169-0.269-0.396-0.487-0.682-0.656c-0.286-0.169-0.639-0.254-1.058-0.254
			c-0.42,0-0.77,0.085-1.05,0.254s-0.504,0.388-0.673,0.656c-0.169,0.268-0.289,0.577-0.359,0.927
			c-0.07,0.35-0.105,0.706-0.105,1.067S76.668,11.192,76.738,11.536z"/>
		<path fill="#0097D8" d="M87.208,12.743c0.11,0.192,0.253,0.351,0.428,0.473c0.175,0.122,0.376,0.213,0.604,0.271
			c0.228,0.058,0.464,0.087,0.708,0.087c0.175,0,0.359-0.021,0.551-0.062c0.192-0.04,0.367-0.104,0.524-0.192
			c0.158-0.087,0.289-0.203,0.394-0.35c0.105-0.146,0.158-0.329,0.158-0.551c0-0.373-0.248-0.653-0.744-0.84
			s-1.187-0.373-2.073-0.56c-0.362-0.081-0.714-0.178-1.058-0.289c-0.344-0.11-0.65-0.256-0.918-0.437
			c-0.269-0.181-0.484-0.408-0.647-0.683c-0.163-0.273-0.245-0.609-0.245-1.006c0-0.583,0.114-1.061,0.341-1.435
			c0.228-0.373,0.528-0.667,0.901-0.883s0.793-0.368,1.26-0.455c0.466-0.088,0.944-0.131,1.434-0.131s0.965,0.046,1.426,0.14
			c0.46,0.094,0.872,0.251,1.233,0.472c0.361,0.222,0.662,0.517,0.901,0.884c0.239,0.367,0.382,0.831,0.428,1.391h-2.361
			c-0.035-0.478-0.216-0.802-0.542-0.971c-0.326-0.169-0.711-0.254-1.154-0.254c-0.14,0-0.292,0.009-0.455,0.026
			c-0.164,0.018-0.312,0.056-0.446,0.114c-0.134,0.058-0.248,0.143-0.341,0.253c-0.094,0.111-0.14,0.26-0.14,0.446
			c0,0.222,0.082,0.402,0.245,0.542C87.782,8.887,87.995,9,88.257,9.088c0.262,0.087,0.562,0.166,0.901,0.235
			c0.338,0.07,0.682,0.146,1.032,0.228c0.361,0.082,0.714,0.182,1.058,0.298c0.344,0.116,0.65,0.271,0.918,0.463
			c0.268,0.192,0.484,0.432,0.647,0.718c0.164,0.286,0.245,0.639,0.245,1.059c0,0.595-0.12,1.093-0.358,1.495
			c-0.239,0.402-0.551,0.726-0.936,0.971s-0.825,0.417-1.321,0.517c-0.496,0.099-1,0.148-1.513,0.148
			c-0.524,0-1.038-0.053-1.539-0.157c-0.501-0.105-0.948-0.28-1.338-0.525c-0.391-0.244-0.711-0.568-0.962-0.971
			c-0.251-0.402-0.388-0.906-0.411-1.513h2.361C87.041,12.321,87.096,12.551,87.208,12.743z"/>
		<path fill="#0097D8" d="M96.872,5.947v1.155h0.035c0.303-0.49,0.688-0.846,1.154-1.067c0.466-0.222,0.979-0.332,1.539-0.332
			c0.711,0,1.324,0.134,1.837,0.402c0.513,0.268,0.938,0.624,1.277,1.066c0.338,0.443,0.589,0.96,0.752,1.548
			c0.163,0.59,0.245,1.205,0.245,1.846c0,0.606-0.082,1.189-0.245,1.749c-0.164,0.561-0.411,1.056-0.744,1.487
			c-0.332,0.432-0.747,0.775-1.242,1.032c-0.496,0.256-1.076,0.385-1.741,0.385c-0.56,0-1.076-0.114-1.548-0.341
			c-0.473-0.228-0.86-0.562-1.164-1.006h-0.035v4.285H94.51V5.947H96.872z M100.099,13.119c0.274-0.163,0.496-0.376,0.665-0.638
			c0.169-0.263,0.289-0.569,0.358-0.919c0.07-0.35,0.105-0.705,0.105-1.066s-0.038-0.718-0.114-1.067s-0.201-0.662-0.376-0.936
			c-0.175-0.274-0.399-0.496-0.673-0.665c-0.274-0.169-0.609-0.254-1.006-0.254c-0.408,0-0.75,0.085-1.023,0.254
			s-0.496,0.388-0.665,0.656c-0.169,0.268-0.289,0.577-0.359,0.927c-0.07,0.35-0.104,0.712-0.104,1.085
			c0,0.361,0.038,0.717,0.113,1.066s0.198,0.656,0.368,0.919c0.169,0.262,0.394,0.475,0.673,0.638
			c0.28,0.164,0.618,0.245,1.015,0.245C99.483,13.364,99.825,13.283,100.099,13.119z"/>
		<path fill="#0097D8" d="M105.268,4.548V2.502h2.484v2.046H105.268z M107.752,5.947v9.044h-2.484V5.947H107.752z"/>
		<path fill="#0097D8" d="M114.679,5.947v1.662h-1.819v4.479c0,0.419,0.07,0.699,0.21,0.839c0.14,0.141,0.42,0.21,0.839,0.21
			c0.14,0,0.274-0.006,0.402-0.018c0.128-0.011,0.251-0.028,0.368-0.052v1.924c-0.21,0.035-0.443,0.059-0.7,0.07
			c-0.257,0.011-0.507,0.018-0.752,0.018c-0.385,0-0.75-0.026-1.093-0.079s-0.647-0.154-0.91-0.307
			c-0.262-0.151-0.469-0.367-0.621-0.646c-0.152-0.28-0.228-0.647-0.228-1.103V7.609h-1.504V5.947h1.504V3.236h2.484v2.711H114.679z
			"/>
		<path fill="#0097D8" d="M116.201,7.277c0.256-0.385,0.583-0.694,0.979-0.928c0.396-0.232,0.843-0.399,1.338-0.498
			s0.994-0.148,1.496-0.148c0.455,0,0.916,0.032,1.382,0.096c0.466,0.064,0.892,0.189,1.277,0.376s0.7,0.446,0.945,0.778
			c0.245,0.333,0.367,0.773,0.367,1.321v4.705c0,0.408,0.023,0.799,0.07,1.172c0.047,0.374,0.128,0.653,0.245,0.84h-2.519
			c-0.046-0.14-0.084-0.282-0.114-0.429c-0.029-0.146-0.049-0.294-0.061-0.446c-0.396,0.409-0.863,0.694-1.399,0.857
			c-0.537,0.163-1.084,0.245-1.644,0.245c-0.432,0-0.834-0.053-1.207-0.157c-0.374-0.105-0.7-0.269-0.98-0.49
			c-0.28-0.222-0.499-0.501-0.656-0.84c-0.157-0.338-0.236-0.74-0.236-1.207c0-0.513,0.09-0.936,0.271-1.268
			c0.181-0.333,0.414-0.598,0.7-0.796c0.286-0.198,0.612-0.347,0.979-0.446c0.367-0.099,0.737-0.178,1.111-0.236
			c0.373-0.058,0.74-0.104,1.102-0.14c0.361-0.035,0.682-0.088,0.962-0.157c0.28-0.07,0.501-0.172,0.665-0.307
			c0.164-0.134,0.239-0.329,0.228-0.586c0-0.268-0.044-0.48-0.131-0.639c-0.087-0.157-0.204-0.279-0.35-0.367
			c-0.146-0.087-0.315-0.146-0.507-0.175s-0.399-0.044-0.621-0.044c-0.49,0-0.875,0.105-1.154,0.315s-0.443,0.56-0.49,1.049h-2.484
			C115.798,8.146,115.944,7.662,116.201,7.277z M121.107,10.784c-0.157,0.053-0.327,0.097-0.507,0.131
			c-0.181,0.035-0.37,0.064-0.568,0.088c-0.199,0.023-0.396,0.053-0.595,0.088c-0.187,0.034-0.371,0.081-0.551,0.14
			s-0.338,0.137-0.472,0.236c-0.134,0.099-0.242,0.225-0.324,0.376s-0.123,0.344-0.123,0.577c0,0.222,0.041,0.408,0.123,0.56
			s0.192,0.271,0.333,0.358c0.14,0.088,0.303,0.149,0.49,0.184c0.187,0.035,0.379,0.053,0.577,0.053c0.49,0,0.869-0.081,1.137-0.245
			c0.268-0.163,0.466-0.358,0.595-0.586c0.128-0.228,0.207-0.457,0.236-0.69c0.029-0.233,0.044-0.42,0.044-0.56v-0.928
			C121.396,10.659,121.265,10.731,121.107,10.784z"/>
		<path fill="#0097D8" d="M128.463,2.502v12.489h-2.484V2.502H128.463z"/>
		<path fill="#0097D8" d="M143.559,5.834c-0.163-0.263-0.367-0.492-0.611-0.691c-0.246-0.198-0.522-0.353-0.832-0.463
			c-0.309-0.111-0.633-0.166-0.971-0.166c-0.618,0-1.143,0.119-1.574,0.358c-0.432,0.239-0.782,0.56-1.05,0.962
			c-0.269,0.402-0.463,0.86-0.586,1.373c-0.123,0.514-0.184,1.044-0.184,1.592c0,0.524,0.061,1.035,0.184,1.53
			c0.123,0.496,0.317,0.942,0.586,1.339c0.268,0.396,0.618,0.714,1.05,0.953c0.431,0.239,0.956,0.358,1.574,0.358
			c0.839,0,1.496-0.256,1.968-0.77c0.472-0.513,0.76-1.189,0.865-2.029h2.659c-0.07,0.781-0.251,1.487-0.542,2.117
			c-0.292,0.629-0.677,1.166-1.154,1.608c-0.479,0.443-1.039,0.782-1.68,1.015c-0.642,0.233-1.347,0.351-2.117,0.351
			c-0.957,0-1.816-0.167-2.58-0.499c-0.764-0.332-1.408-0.79-1.933-1.373s-0.927-1.269-1.207-2.056s-0.42-1.636-0.42-2.545
			c0-0.933,0.14-1.799,0.42-2.598s0.682-1.495,1.207-2.09s1.169-1.062,1.933-1.399c0.764-0.339,1.624-0.508,2.58-0.508
			c0.688,0,1.337,0.1,1.951,0.298c0.611,0.198,1.16,0.486,1.645,0.865c0.483,0.379,0.883,0.849,1.197,1.408
			c0.315,0.56,0.514,1.201,0.596,1.925h-2.66C143.827,6.385,143.723,6.097,143.559,5.834z"/>
		<path fill="#0097D8" d="M150.906,12.822c0.373,0.361,0.909,0.542,1.609,0.542c0.5,0,0.932-0.125,1.294-0.376
			c0.361-0.251,0.583-0.516,0.665-0.796h2.186c-0.35,1.085-0.886,1.86-1.609,2.326c-0.723,0.467-1.598,0.7-2.623,0.7
			c-0.711,0-1.354-0.114-1.924-0.341c-0.572-0.228-1.057-0.552-1.453-0.972c-0.396-0.419-0.702-0.921-0.918-1.504
			s-0.323-1.225-0.323-1.924c0-0.677,0.11-1.307,0.333-1.89c0.221-0.583,0.535-1.087,0.943-1.513s0.896-0.762,1.461-1.006
			c0.566-0.245,1.192-0.367,1.881-0.367c0.77,0,1.439,0.148,2.012,0.445c0.57,0.298,1.041,0.697,1.408,1.198
			c0.367,0.502,0.633,1.073,0.795,1.715c0.164,0.642,0.223,1.312,0.176,2.012h-6.525C150.328,11.878,150.532,12.461,150.906,12.822z
			 M153.713,8.064c-0.297-0.326-0.749-0.49-1.355-0.49c-0.396,0-0.726,0.067-0.988,0.201c-0.262,0.135-0.473,0.301-0.629,0.499
			c-0.158,0.198-0.27,0.408-0.333,0.63c-0.064,0.221-0.103,0.419-0.114,0.595h4.041C154.217,8.869,154.011,8.391,153.713,8.064z"/>
		<path fill="#0097D8" d="M160.648,5.947v1.26h0.053c0.314-0.524,0.723-0.906,1.225-1.146s1.015-0.358,1.539-0.358
			c0.665,0,1.21,0.09,1.636,0.271s0.761,0.432,1.006,0.752c0.245,0.321,0.417,0.712,0.517,1.173c0.099,0.46,0.148,0.971,0.148,1.53
			v5.562h-2.484V9.884c0-0.746-0.117-1.304-0.35-1.671c-0.233-0.367-0.647-0.551-1.242-0.551c-0.676,0-1.166,0.201-1.469,0.604
			c-0.304,0.402-0.455,1.064-0.455,1.985v4.74h-2.484V5.947H160.648z"/>
		<path fill="#0097D8" d="M173.629,5.947v1.662h-1.82v4.479c0,0.419,0.07,0.699,0.211,0.839c0.139,0.141,0.42,0.21,0.839,0.21
			c0.14,0,0.274-0.006,0.402-0.018c0.128-0.011,0.251-0.028,0.368-0.052v1.924c-0.211,0.035-0.443,0.059-0.7,0.07
			c-0.257,0.011-0.507,0.018-0.753,0.018c-0.385,0-0.749-0.026-1.093-0.079s-0.647-0.154-0.909-0.307
			c-0.263-0.151-0.47-0.367-0.621-0.646c-0.152-0.28-0.228-0.647-0.228-1.103V7.609h-1.505V5.947h1.505V3.236h2.483v2.711H173.629z"
			/>
		<path fill="#0097D8" d="M177.18,5.947v1.68h0.035c0.115-0.28,0.273-0.539,0.472-0.778s0.425-0.443,0.683-0.612
			c0.256-0.169,0.529-0.3,0.822-0.394c0.291-0.094,0.594-0.14,0.909-0.14c0.163,0,0.344,0.029,0.542,0.087V8.1
			c-0.117-0.023-0.256-0.044-0.42-0.062c-0.163-0.018-0.32-0.026-0.473-0.026c-0.454,0-0.84,0.076-1.154,0.228
			s-0.568,0.358-0.761,0.621c-0.192,0.262-0.329,0.568-0.411,0.918s-0.122,0.729-0.122,1.137v4.076h-2.483V5.947H177.18z"/>
		<path fill="#0097D8" d="M181.955,7.277c0.256-0.385,0.582-0.694,0.979-0.928c0.396-0.232,0.844-0.399,1.339-0.498
			s0.994-0.148,1.495-0.148c0.455,0,0.916,0.032,1.383,0.096c0.466,0.064,0.892,0.189,1.276,0.376s0.7,0.446,0.944,0.778
			c0.245,0.333,0.367,0.773,0.367,1.321v4.705c0,0.408,0.023,0.799,0.07,1.172c0.047,0.374,0.129,0.653,0.245,0.84h-2.519
			c-0.047-0.14-0.085-0.282-0.114-0.429c-0.029-0.146-0.05-0.294-0.062-0.446c-0.396,0.409-0.863,0.694-1.398,0.857
			c-0.537,0.163-1.085,0.245-1.645,0.245c-0.432,0-0.834-0.053-1.207-0.157c-0.373-0.105-0.699-0.269-0.98-0.49
			c-0.279-0.222-0.498-0.501-0.655-0.84c-0.157-0.338-0.236-0.74-0.236-1.207c0-0.513,0.091-0.936,0.271-1.268
			c0.181-0.333,0.413-0.598,0.7-0.796c0.285-0.198,0.611-0.347,0.979-0.446c0.367-0.099,0.738-0.178,1.111-0.236
			c0.373-0.058,0.74-0.104,1.102-0.14s0.683-0.088,0.963-0.157c0.279-0.07,0.501-0.172,0.664-0.307
			c0.164-0.134,0.239-0.329,0.228-0.586c0-0.268-0.044-0.48-0.132-0.639c-0.087-0.157-0.203-0.279-0.35-0.367
			c-0.146-0.087-0.314-0.146-0.507-0.175s-0.399-0.044-0.621-0.044c-0.489,0-0.874,0.105-1.154,0.315s-0.443,0.56-0.489,1.049
			h-2.484C181.553,8.146,181.698,7.662,181.955,7.277z M186.861,10.784c-0.157,0.053-0.326,0.097-0.508,0.131
			c-0.18,0.035-0.369,0.064-0.568,0.088c-0.198,0.023-0.396,0.053-0.594,0.088c-0.188,0.034-0.371,0.081-0.552,0.14
			s-0.339,0.137-0.472,0.236c-0.135,0.099-0.242,0.225-0.324,0.376s-0.123,0.344-0.123,0.577c0,0.222,0.041,0.408,0.123,0.56
			s0.192,0.271,0.332,0.358c0.141,0.088,0.304,0.149,0.49,0.184c0.187,0.035,0.379,0.053,0.577,0.053
			c0.489,0,0.868-0.081,1.138-0.245c0.268-0.163,0.466-0.358,0.594-0.586c0.129-0.228,0.207-0.457,0.236-0.69s0.044-0.42,0.044-0.56
			v-0.928C187.15,10.659,187.019,10.731,186.861,10.784z"/>
		<path fill="#0097D8" d="M194.217,2.502v12.489h-2.484V2.502H194.217z"/>
		<path fill="#0097D8" d="M207.459,13.837c-0.292,0.489-0.674,0.843-1.146,1.058c-0.473,0.216-1.006,0.324-1.6,0.324
			c-0.678,0-1.271-0.131-1.785-0.394s-0.936-0.618-1.268-1.067c-0.332-0.448-0.584-0.965-0.752-1.548
			c-0.17-0.583-0.254-1.189-0.254-1.819c0-0.606,0.084-1.192,0.254-1.758c0.168-0.565,0.42-1.064,0.752-1.496
			c0.332-0.431,0.749-0.778,1.25-1.04c0.502-0.263,1.085-0.394,1.75-0.394c0.535,0,1.047,0.113,1.53,0.341s0.866,0.562,1.146,1.006
			h0.035V2.502h2.484v12.489h-2.361v-1.154H207.459z M207.354,9.367c-0.07-0.344-0.189-0.647-0.358-0.909
			c-0.169-0.263-0.388-0.476-0.656-0.639s-0.606-0.245-1.015-0.245s-0.752,0.082-1.031,0.245c-0.28,0.163-0.505,0.379-0.674,0.647
			c-0.17,0.269-0.292,0.574-0.367,0.918c-0.076,0.344-0.114,0.703-0.114,1.076c0,0.35,0.041,0.699,0.122,1.049
			c0.082,0.351,0.213,0.662,0.395,0.937c0.18,0.273,0.408,0.495,0.682,0.664c0.273,0.17,0.604,0.254,0.988,0.254
			c0.408,0,0.75-0.081,1.023-0.245c0.273-0.163,0.492-0.382,0.656-0.655c0.163-0.274,0.279-0.586,0.35-0.937
			c0.07-0.35,0.105-0.711,0.105-1.084S207.424,9.712,207.354,9.367z"/>
		<path fill="#0097D8" d="M214.386,12.822c0.373,0.361,0.909,0.542,1.609,0.542c0.501,0,0.933-0.125,1.294-0.376
			s0.584-0.516,0.665-0.796h2.187c-0.35,1.085-0.887,1.86-1.609,2.326c-0.723,0.467-1.598,0.7-2.623,0.7
			c-0.712,0-1.354-0.114-1.925-0.341c-0.571-0.228-1.056-0.552-1.452-0.972c-0.396-0.419-0.703-0.921-0.918-1.504
			c-0.217-0.583-0.324-1.225-0.324-1.924c0-0.677,0.111-1.307,0.333-1.89s0.536-1.087,0.944-1.513s0.895-0.762,1.461-1.006
			c0.565-0.245,1.191-0.367,1.881-0.367c0.77,0,1.439,0.148,2.011,0.445c0.571,0.298,1.041,0.697,1.408,1.198
			c0.368,0.502,0.633,1.073,0.796,1.715c0.164,0.642,0.222,1.312,0.176,2.012h-6.525C213.809,11.878,214.012,12.461,214.386,12.822z
			 M217.193,8.064c-0.297-0.326-0.75-0.49-1.355-0.49c-0.396,0-0.727,0.067-0.988,0.201c-0.263,0.135-0.473,0.301-0.63,0.499
			s-0.269,0.408-0.333,0.63c-0.064,0.221-0.102,0.419-0.113,0.595h4.041C217.697,8.869,217.49,8.391,217.193,8.064z"/>
		<path fill="#0097D8" d="M229.184,2.502v12.489H226.7V2.502H229.184z"/>
		<path fill="#0097D8" d="M231.476,7.277c0.257-0.385,0.583-0.694,0.979-0.928c0.396-0.232,0.843-0.399,1.338-0.498
			c0.496-0.099,0.994-0.148,1.496-0.148c0.455,0,0.916,0.032,1.382,0.096c0.466,0.064,0.892,0.189,1.276,0.376
			s0.7,0.446,0.945,0.778c0.244,0.333,0.367,0.773,0.367,1.321v4.705c0,0.408,0.023,0.799,0.07,1.172
			c0.047,0.374,0.128,0.653,0.244,0.84h-2.519c-0.046-0.14-0.085-0.282-0.114-0.429c-0.029-0.146-0.049-0.294-0.061-0.446
			c-0.396,0.409-0.863,0.694-1.399,0.857s-1.085,0.245-1.644,0.245c-0.432,0-0.834-0.053-1.207-0.157
			c-0.374-0.105-0.7-0.269-0.98-0.49c-0.279-0.222-0.498-0.501-0.656-0.84c-0.156-0.338-0.236-0.74-0.236-1.207
			c0-0.513,0.091-0.936,0.271-1.268c0.182-0.333,0.414-0.598,0.7-0.796s0.612-0.347,0.979-0.446
			c0.367-0.099,0.737-0.178,1.111-0.236c0.373-0.058,0.74-0.104,1.102-0.14s0.682-0.088,0.962-0.157
			c0.28-0.07,0.501-0.172,0.665-0.307c0.163-0.134,0.238-0.329,0.227-0.586c0-0.268-0.043-0.48-0.131-0.639
			c-0.088-0.157-0.204-0.279-0.35-0.367c-0.146-0.087-0.314-0.146-0.508-0.175c-0.191-0.029-0.398-0.044-0.621-0.044
			c-0.489,0-0.874,0.105-1.154,0.315c-0.279,0.21-0.443,0.56-0.489,1.049h-2.483C231.073,8.146,231.219,7.662,231.476,7.277z
			 M236.383,10.784c-0.158,0.053-0.327,0.097-0.508,0.131c-0.181,0.035-0.37,0.064-0.568,0.088
			c-0.199,0.023-0.396,0.053-0.595,0.088c-0.187,0.034-0.37,0.081-0.552,0.14c-0.18,0.059-0.338,0.137-0.472,0.236
			c-0.134,0.099-0.242,0.225-0.323,0.376c-0.082,0.151-0.123,0.344-0.123,0.577c0,0.222,0.041,0.408,0.123,0.56
			c0.081,0.151,0.191,0.271,0.332,0.358c0.141,0.088,0.303,0.149,0.49,0.184c0.186,0.035,0.379,0.053,0.576,0.053
			c0.49,0,0.869-0.081,1.138-0.245c0.269-0.163,0.466-0.358,0.595-0.586c0.128-0.228,0.207-0.457,0.236-0.69s0.043-0.42,0.043-0.56
			v-0.928C236.671,10.659,236.539,10.731,236.383,10.784z"/>
		<path fill="#0097D8" d="M254.32,5.834c-0.163-0.263-0.367-0.492-0.611-0.691c-0.246-0.198-0.522-0.353-0.832-0.463
			c-0.309-0.111-0.633-0.166-0.971-0.166c-0.617,0-1.143,0.119-1.574,0.358s-0.781,0.56-1.049,0.962
			c-0.27,0.402-0.464,0.86-0.586,1.373c-0.123,0.514-0.184,1.044-0.184,1.592c0,0.524,0.061,1.035,0.184,1.53
			c0.122,0.496,0.316,0.942,0.586,1.339c0.268,0.396,0.617,0.714,1.049,0.953s0.957,0.358,1.574,0.358
			c0.84,0,1.496-0.256,1.969-0.77c0.472-0.513,0.76-1.189,0.865-2.029h2.659c-0.07,0.781-0.251,1.487-0.542,2.117
			c-0.292,0.629-0.677,1.166-1.154,1.608c-0.479,0.443-1.039,0.782-1.68,1.015c-0.642,0.233-1.348,0.351-2.117,0.351
			c-0.956,0-1.816-0.167-2.58-0.499s-1.408-0.79-1.933-1.373s-0.927-1.269-1.207-2.056s-0.42-1.636-0.42-2.545
			c0-0.933,0.14-1.799,0.42-2.598s0.683-1.495,1.207-2.09s1.169-1.062,1.933-1.399c0.764-0.339,1.624-0.508,2.58-0.508
			c0.688,0,1.338,0.1,1.951,0.298c0.611,0.198,1.16,0.486,1.645,0.865c0.483,0.379,0.883,0.849,1.197,1.408
			c0.315,0.56,0.514,1.201,0.596,1.925h-2.66C254.589,6.385,254.484,6.097,254.32,5.834z"/>
		<path fill="#0097D8" d="M261.37,5.947v1.68h0.035c0.116-0.28,0.273-0.539,0.472-0.778c0.199-0.239,0.426-0.443,0.683-0.612
			s0.53-0.3,0.822-0.394c0.291-0.094,0.595-0.14,0.909-0.14c0.164,0,0.344,0.029,0.543,0.087V8.1
			c-0.117-0.023-0.257-0.044-0.42-0.062c-0.164-0.018-0.321-0.026-0.473-0.026c-0.455,0-0.84,0.076-1.154,0.228
			s-0.568,0.358-0.762,0.621c-0.191,0.262-0.329,0.568-0.41,0.918c-0.082,0.35-0.123,0.729-0.123,1.137v4.076h-2.483V5.947H261.37z"
			/>
		<path fill="#0097D8" d="M271.936,14.991v-1.26h-0.053c-0.314,0.525-0.723,0.904-1.225,1.138c-0.502,0.232-1.015,0.35-1.539,0.35
			c-0.665,0-1.211-0.088-1.636-0.263c-0.426-0.175-0.761-0.423-1.006-0.743s-0.417-0.711-0.517-1.172
			c-0.099-0.461-0.148-0.971-0.148-1.531V5.947h2.484v5.108c0,0.746,0.116,1.303,0.35,1.67c0.233,0.368,0.647,0.552,1.242,0.552
			c0.676,0,1.166-0.201,1.469-0.604c0.304-0.402,0.455-1.064,0.455-1.985V5.947h2.484v9.044H271.936z"/>
		<path fill="#0097D8" d="M280.332,7.819h-4.355V5.947h7.626v1.872l-4.706,5.3h5.039v1.872h-8.31v-1.872L280.332,7.819z"/>
		<path fill="#0097D8" d="M297.124,2.502c0.56,0,1.064,0.09,1.513,0.271c0.449,0.182,0.834,0.429,1.155,0.744
			c0.32,0.314,0.565,0.679,0.734,1.093s0.254,0.86,0.254,1.338c0,0.735-0.155,1.371-0.464,1.907s-0.812,0.944-1.513,1.225v0.034
			c0.338,0.094,0.618,0.236,0.839,0.429c0.223,0.192,0.402,0.42,0.543,0.683c0.14,0.263,0.242,0.551,0.307,0.866
			c0.063,0.314,0.107,0.629,0.131,0.944c0.012,0.198,0.023,0.432,0.035,0.699c0.011,0.269,0.031,0.543,0.061,0.822
			c0.029,0.28,0.076,0.546,0.141,0.796c0.063,0.251,0.16,0.464,0.288,0.639h-2.746c-0.151-0.396-0.245-0.868-0.28-1.417
			c-0.035-0.548-0.088-1.072-0.157-1.574c-0.093-0.653-0.292-1.131-0.595-1.435c-0.303-0.303-0.799-0.455-1.486-0.455h-2.747v4.881
			h-2.746V2.502H297.124z M296.145,8.151c0.63,0,1.102-0.14,1.417-0.42c0.315-0.279,0.472-0.734,0.472-1.364
			c0-0.606-0.156-1.046-0.472-1.32s-0.787-0.411-1.417-0.411h-3.009v3.516H296.145z"/>
		<path fill="#0097D8" d="M302.809,8.51c0.222-0.588,0.537-1.09,0.945-1.504s0.897-0.734,1.469-0.962
			c0.572-0.228,1.213-0.341,1.925-0.341c0.711,0,1.355,0.113,1.933,0.341s1.07,0.548,1.479,0.962s0.723,0.916,0.944,1.504
			c0.222,0.59,0.333,1.245,0.333,1.969c0,0.723-0.111,1.376-0.333,1.959s-0.536,1.082-0.944,1.495
			c-0.408,0.414-0.901,0.732-1.479,0.954c-0.577,0.221-1.222,0.332-1.933,0.332c-0.712,0-1.353-0.111-1.925-0.332
			c-0.571-0.222-1.061-0.54-1.469-0.954c-0.408-0.413-0.724-0.912-0.945-1.495c-0.221-0.583-0.332-1.236-0.332-1.959
			C302.477,9.755,302.588,9.1,302.809,8.51z M305.065,11.536c0.07,0.345,0.189,0.653,0.358,0.928
			c0.17,0.273,0.395,0.492,0.674,0.655c0.279,0.164,0.63,0.245,1.05,0.245c0.419,0,0.772-0.081,1.058-0.245
			c0.286-0.163,0.514-0.382,0.683-0.655c0.169-0.274,0.288-0.583,0.358-0.928c0.07-0.344,0.105-0.696,0.105-1.058
			s-0.035-0.718-0.105-1.067s-0.189-0.659-0.358-0.927c-0.169-0.269-0.396-0.487-0.683-0.656c-0.285-0.169-0.639-0.254-1.058-0.254
			c-0.42,0-0.771,0.085-1.05,0.254s-0.504,0.388-0.674,0.656c-0.169,0.268-0.288,0.577-0.358,0.927
			c-0.069,0.35-0.104,0.706-0.104,1.067S304.996,11.192,305.065,11.536z"/>
		<path fill="#0097D8" d="M312.71,16.11c0.257,0,0.481-0.05,0.673-0.148c0.193-0.099,0.289-0.317,0.289-0.656V5.947h2.484v9.481
			c0,0.466-0.051,0.868-0.148,1.207c-0.1,0.338-0.27,0.621-0.508,0.849c-0.239,0.227-0.562,0.396-0.971,0.507
			c-0.408,0.11-0.928,0.166-1.557,0.166c-0.292,0-0.555-0.023-0.787-0.07v-2.046C312.313,16.087,312.488,16.11,312.71,16.11z
			 M313.672,4.548V2.502h2.484v2.046H313.672z"/>
		<path fill="#0097D8" d="M318.64,7.277c0.257-0.385,0.583-0.694,0.979-0.928c0.396-0.232,0.842-0.399,1.338-0.498
			s0.994-0.148,1.496-0.148c0.455,0,0.916,0.032,1.383,0.096c0.465,0.064,0.891,0.189,1.275,0.376s0.701,0.446,0.945,0.778
			c0.244,0.333,0.367,0.773,0.367,1.321v4.705c0,0.408,0.023,0.799,0.07,1.172c0.047,0.374,0.127,0.653,0.244,0.84h-2.518
			c-0.047-0.14-0.086-0.282-0.115-0.429c-0.029-0.146-0.049-0.294-0.061-0.446c-0.396,0.409-0.863,0.694-1.398,0.857
			c-0.537,0.163-1.086,0.245-1.645,0.245c-0.432,0-0.834-0.053-1.207-0.157c-0.374-0.105-0.7-0.269-0.98-0.49
			c-0.279-0.222-0.498-0.501-0.656-0.84c-0.156-0.338-0.236-0.74-0.236-1.207c0-0.513,0.091-0.936,0.271-1.268
			c0.182-0.333,0.414-0.598,0.7-0.796s0.612-0.347,0.979-0.446c0.367-0.099,0.738-0.178,1.111-0.236
			c0.373-0.058,0.74-0.104,1.102-0.14s0.682-0.088,0.963-0.157c0.279-0.07,0.5-0.172,0.664-0.307
			c0.162-0.134,0.238-0.329,0.227-0.586c0-0.268-0.043-0.48-0.131-0.639c-0.088-0.157-0.203-0.279-0.35-0.367
			c-0.146-0.087-0.314-0.146-0.508-0.175c-0.191-0.029-0.398-0.044-0.621-0.044c-0.488,0-0.875,0.105-1.154,0.315
			s-0.443,0.56-0.49,1.049h-2.482C318.237,8.146,318.383,7.662,318.64,7.277z M323.547,10.784c-0.158,0.053-0.326,0.097-0.508,0.131
			c-0.182,0.035-0.371,0.064-0.568,0.088c-0.199,0.023-0.396,0.053-0.596,0.088c-0.186,0.034-0.369,0.081-0.551,0.14
			c-0.18,0.059-0.338,0.137-0.471,0.236c-0.135,0.099-0.242,0.225-0.324,0.376s-0.123,0.344-0.123,0.577
			c0,0.222,0.041,0.408,0.123,0.56s0.191,0.271,0.332,0.358c0.141,0.088,0.303,0.149,0.49,0.184
			c0.186,0.035,0.379,0.053,0.576,0.053c0.49,0,0.869-0.081,1.137-0.245c0.27-0.163,0.467-0.358,0.596-0.586s0.207-0.457,0.236-0.69
			s0.043-0.42,0.043-0.56v-0.928C323.836,10.659,323.703,10.731,323.547,10.784z"/>
	</g>
	<g>
		<path fill="#0097D8" d="M64.782,34.392c0.221,0.425,0.514,0.769,0.879,1.032c0.365,0.264,0.794,0.459,1.287,0.586
			c0.493,0.128,1.002,0.191,1.529,0.191c0.357,0,0.739-0.029,1.147-0.09c0.408-0.059,0.79-0.174,1.147-0.344
			c0.356-0.17,0.654-0.403,0.892-0.701c0.237-0.297,0.356-0.675,0.356-1.134c0-0.492-0.157-0.892-0.471-1.198
			c-0.315-0.306-0.727-0.561-1.236-0.764c-0.51-0.204-1.087-0.383-1.733-0.535c-0.646-0.153-1.3-0.323-1.962-0.51
			c-0.68-0.17-1.342-0.378-1.988-0.625c-0.646-0.246-1.224-0.564-1.733-0.955c-0.509-0.392-0.922-0.88-1.236-1.466
			c-0.314-0.586-0.472-1.296-0.472-2.128c0-0.935,0.2-1.746,0.599-2.435c0.399-0.688,0.921-1.261,1.567-1.72
			c0.646-0.459,1.376-0.799,2.192-1.02c0.815-0.221,1.631-0.331,2.446-0.331c0.952,0,1.865,0.106,2.74,0.318
			c0.875,0.213,1.652,0.557,2.332,1.032s1.219,1.083,1.619,1.822c0.399,0.739,0.599,1.636,0.599,2.688h-3.874
			c-0.035-0.543-0.149-0.994-0.344-1.351s-0.455-0.637-0.777-0.841s-0.692-0.349-1.108-0.434c-0.417-0.085-0.871-0.127-1.364-0.127
			c-0.323,0-0.646,0.034-0.968,0.102c-0.323,0.068-0.616,0.188-0.879,0.356c-0.264,0.17-0.48,0.383-0.65,0.638
			c-0.17,0.255-0.255,0.577-0.255,0.968c0,0.357,0.068,0.646,0.204,0.867c0.136,0.221,0.403,0.425,0.803,0.611
			c0.399,0.188,0.951,0.374,1.656,0.561c0.705,0.188,1.627,0.425,2.766,0.714c0.339,0.068,0.811,0.191,1.414,0.369
			c0.603,0.179,1.202,0.464,1.797,0.854s1.109,0.913,1.542,1.567s0.65,1.49,0.65,2.51c0,0.833-0.162,1.605-0.484,2.319
			s-0.803,1.33-1.44,1.848c-0.637,0.519-1.427,0.922-2.37,1.211s-2.035,0.434-3.275,0.434c-1.003,0-1.975-0.124-2.918-0.37
			c-0.943-0.246-1.776-0.633-2.498-1.159c-0.723-0.526-1.296-1.198-1.721-2.014s-0.628-1.784-0.611-2.905h3.874
			C64.45,33.448,64.561,33.967,64.782,34.392z"/>
		<path fill="#0097D8" d="M78.365,27.638c0.374-0.561,0.85-1.011,1.427-1.351s1.228-0.582,1.95-0.727s1.448-0.217,2.179-0.217
			c0.663,0,1.333,0.047,2.013,0.141s1.3,0.276,1.86,0.548c0.561,0.271,1.02,0.649,1.376,1.134s0.535,1.126,0.535,1.925v6.855
			c0,0.595,0.034,1.164,0.102,1.707c0.067,0.544,0.187,0.952,0.357,1.224h-3.67c-0.068-0.204-0.123-0.412-0.166-0.624
			c-0.042-0.213-0.072-0.43-0.089-0.65c-0.578,0.595-1.258,1.011-2.039,1.249c-0.782,0.237-1.58,0.356-2.396,0.356
			c-0.629,0-1.215-0.076-1.759-0.229c-0.544-0.152-1.02-0.391-1.427-0.713c-0.408-0.323-0.726-0.73-0.956-1.224
			c-0.229-0.492-0.344-1.079-0.344-1.759c0-0.747,0.131-1.363,0.395-1.848c0.263-0.484,0.603-0.87,1.02-1.159
			c0.416-0.289,0.892-0.506,1.427-0.65c0.535-0.144,1.074-0.259,1.618-0.344s1.079-0.153,1.606-0.204
			c0.526-0.051,0.994-0.127,1.401-0.229c0.408-0.102,0.73-0.25,0.969-0.445c0.238-0.195,0.348-0.48,0.331-0.854
			c0-0.391-0.063-0.7-0.191-0.93s-0.297-0.408-0.51-0.535c-0.213-0.128-0.459-0.213-0.739-0.255
			c-0.28-0.043-0.582-0.064-0.905-0.064c-0.713,0-1.274,0.153-1.682,0.459c-0.408,0.306-0.646,0.815-0.714,1.529h-3.619
			C77.779,28.903,77.991,28.198,78.365,27.638z M85.514,32.748c-0.229,0.076-0.476,0.14-0.739,0.19
			c-0.264,0.051-0.54,0.094-0.828,0.128c-0.289,0.034-0.578,0.076-0.867,0.127c-0.272,0.051-0.54,0.119-0.803,0.204
			c-0.264,0.085-0.493,0.2-0.688,0.344c-0.196,0.145-0.353,0.328-0.472,0.548c-0.119,0.222-0.178,0.502-0.178,0.842
			c0,0.322,0.059,0.595,0.178,0.815c0.119,0.221,0.28,0.395,0.484,0.522c0.204,0.127,0.441,0.217,0.713,0.268
			s0.552,0.076,0.841,0.076c0.713,0,1.266-0.118,1.657-0.356c0.391-0.238,0.679-0.522,0.866-0.854
			c0.187-0.331,0.302-0.666,0.344-1.006c0.042-0.34,0.063-0.612,0.063-0.816v-1.351C85.935,32.565,85.744,32.671,85.514,32.748z"/>
		<path fill="#0097D8" d="M95.95,25.701v1.835h0.076c0.459-0.765,1.054-1.321,1.784-1.67c0.73-0.348,1.478-0.522,2.243-0.522
			c0.969,0,1.763,0.132,2.383,0.396c0.62,0.264,1.108,0.629,1.465,1.096c0.356,0.468,0.607,1.036,0.752,1.707
			c0.144,0.672,0.216,1.415,0.216,2.23v8.104h-3.619v-7.441c0-1.088-0.17-1.899-0.509-2.435c-0.34-0.535-0.943-0.803-1.81-0.803
			c-0.986,0-1.699,0.293-2.141,0.879c-0.442,0.587-0.663,1.551-0.663,2.894v6.906H92.51V25.701H95.95z"/>
		<path fill="#0097D8" d="M125.564,35.105c-0.119,0.713-0.391,1.38-0.816,2c-0.425,0.621-1.036,1.139-1.835,1.555
			s-1.877,0.625-3.236,0.625c-0.765,0-1.504-0.106-2.217-0.319c-0.714-0.212-1.351-0.543-1.912-0.993s-1.011-1.028-1.351-1.733
			c-0.34-0.705-0.51-1.559-0.51-2.562v-1.58h3.619v0.815c0,0.442,0.034,0.85,0.102,1.224s0.187,0.692,0.357,0.956
			c0.169,0.263,0.403,0.471,0.701,0.624c0.297,0.152,0.684,0.229,1.16,0.229c0.526,0,0.934-0.094,1.224-0.28
			c0.289-0.188,0.497-0.429,0.624-0.727c0.127-0.297,0.204-0.62,0.229-0.969c0.025-0.348,0.038-0.684,0.038-1.007V20.68h4.001
			v12.463C125.743,33.737,125.683,34.392,125.564,35.105z"/>
		<path fill="#0097D8" d="M128.954,29.435c0.323-0.857,0.781-1.589,1.376-2.192c0.594-0.603,1.308-1.07,2.141-1.401
			s1.767-0.497,2.804-0.497c1.036,0,1.975,0.166,2.816,0.497c0.841,0.331,1.559,0.799,2.154,1.401
			c0.594,0.604,1.053,1.335,1.376,2.192c0.323,0.858,0.484,1.813,0.484,2.867s-0.162,2.005-0.484,2.854s-0.782,1.576-1.376,2.179
			c-0.595,0.604-1.312,1.066-2.154,1.389c-0.841,0.323-1.78,0.484-2.816,0.484c-1.037,0-1.971-0.161-2.804-0.484
			c-0.833-0.322-1.546-0.785-2.141-1.389c-0.595-0.603-1.054-1.329-1.376-2.179s-0.484-1.801-0.484-2.854
			S128.631,30.293,128.954,29.435z M132.241,33.844c0.102,0.501,0.276,0.951,0.522,1.351c0.246,0.399,0.574,0.718,0.981,0.956
			c0.408,0.237,0.917,0.356,1.529,0.356c0.611,0,1.125-0.119,1.542-0.356c0.417-0.238,0.748-0.557,0.994-0.956
			c0.246-0.399,0.42-0.85,0.522-1.351s0.153-1.016,0.153-1.542s-0.051-1.045-0.153-1.555s-0.276-0.96-0.522-1.351
			c-0.247-0.391-0.578-0.71-0.994-0.956s-0.93-0.369-1.542-0.369c-0.612,0-1.122,0.123-1.529,0.369s-0.735,0.565-0.981,0.956
			c-0.247,0.391-0.42,0.841-0.522,1.351c-0.102,0.51-0.153,1.028-0.153,1.555S132.14,33.343,132.241,33.844z"/>
		<path fill="#0097D8" d="M147.494,35.602c0.162,0.281,0.37,0.51,0.625,0.688s0.548,0.311,0.879,0.396
			c0.332,0.085,0.676,0.127,1.032,0.127c0.255,0,0.522-0.029,0.803-0.089s0.536-0.153,0.765-0.28c0.229-0.128,0.42-0.298,0.574-0.51
			c0.152-0.213,0.229-0.48,0.229-0.803c0-0.544-0.361-0.952-1.083-1.224s-1.729-0.544-3.021-0.815
			c-0.526-0.119-1.041-0.259-1.541-0.421c-0.502-0.161-0.947-0.373-1.338-0.637c-0.392-0.264-0.705-0.595-0.943-0.994
			s-0.357-0.888-0.357-1.466c0-0.849,0.166-1.546,0.498-2.09c0.33-0.543,0.768-0.972,1.312-1.287
			c0.543-0.313,1.154-0.535,1.834-0.662c0.68-0.128,1.377-0.191,2.09-0.191c0.714,0,1.406,0.068,2.078,0.204
			c0.67,0.136,1.27,0.365,1.797,0.688c0.525,0.322,0.963,0.751,1.312,1.287c0.348,0.535,0.556,1.21,0.623,2.025h-3.439
			c-0.051-0.696-0.314-1.168-0.791-1.414c-0.476-0.246-1.036-0.37-1.682-0.37c-0.203,0-0.425,0.014-0.662,0.039
			c-0.238,0.025-0.455,0.08-0.65,0.165c-0.195,0.086-0.361,0.209-0.497,0.37s-0.204,0.378-0.204,0.649
			c0,0.323,0.119,0.586,0.357,0.79c0.237,0.204,0.548,0.37,0.93,0.497c0.383,0.128,0.82,0.242,1.312,0.344
			c0.492,0.103,0.994,0.213,1.504,0.332c0.526,0.119,1.041,0.264,1.542,0.433c0.501,0.17,0.946,0.396,1.338,0.676
			c0.391,0.28,0.705,0.629,0.942,1.045c0.238,0.416,0.357,0.93,0.357,1.542c0,0.866-0.174,1.593-0.522,2.179
			s-0.803,1.058-1.363,1.415c-0.562,0.356-1.202,0.607-1.925,0.751c-0.722,0.145-1.457,0.217-2.204,0.217
			c-0.765,0-1.513-0.076-2.243-0.229c-0.73-0.152-1.381-0.407-1.949-0.765c-0.569-0.356-1.037-0.828-1.402-1.414
			s-0.564-1.321-0.598-2.204h3.439C147.252,34.986,147.333,35.321,147.494,35.602z"/>
		<path fill="#0097D8" d="M162.008,35.717c0.544,0.526,1.326,0.79,2.346,0.79c0.73,0,1.359-0.183,1.886-0.548
			s0.849-0.752,0.968-1.16h3.186c-0.51,1.58-1.291,2.711-2.344,3.39c-1.055,0.68-2.328,1.02-3.823,1.02
			c-1.036,0-1.972-0.165-2.804-0.497c-0.832-0.331-1.537-0.803-2.115-1.414s-1.023-1.342-1.338-2.191s-0.471-1.784-0.471-2.804
			c0-0.985,0.16-1.903,0.483-2.753c0.323-0.849,0.781-1.584,1.376-2.204c0.596-0.62,1.305-1.108,2.129-1.466
			c0.824-0.356,1.736-0.535,2.739-0.535c1.122,0,2.099,0.217,2.931,0.65c0.832,0.433,1.517,1.016,2.052,1.745
			c0.535,0.731,0.921,1.563,1.159,2.498s0.323,1.911,0.256,2.931h-9.507C161.168,34.341,161.465,35.19,162.008,35.717z
			 M166.1,28.784c-0.434-0.476-1.093-0.713-1.977-0.713c-0.577,0-1.057,0.098-1.439,0.293s-0.688,0.438-0.918,0.727
			c-0.229,0.289-0.391,0.595-0.483,0.917c-0.094,0.323-0.149,0.611-0.166,0.866h5.888C166.834,29.957,166.532,29.261,166.1,28.784z
			 M162.161,24.069l2.446-3.619h4.002l-3.925,3.619H162.161z"/>
		<path fill="#0097D8" d="M184.716,42.802c-0.696,0.459-1.665,0.688-2.905,0.688c-0.374,0-0.744-0.013-1.109-0.038
			c-0.365-0.026-0.734-0.056-1.107-0.09v-2.981c0.339,0.033,0.688,0.067,1.045,0.102c0.355,0.034,0.713,0.042,1.07,0.025
			c0.475-0.051,0.828-0.238,1.057-0.561c0.23-0.323,0.345-0.68,0.345-1.07c0-0.289-0.052-0.561-0.153-0.815l-4.613-12.36h3.849
			l2.981,9.021h0.052l2.88-9.021h3.746l-5.505,14.807C185.955,41.578,185.412,42.343,184.716,42.802z"/>
		<path fill="#0097D8" d="M203.601,34.392c0.221,0.425,0.514,0.769,0.88,1.032c0.364,0.264,0.793,0.459,1.286,0.586
			c0.493,0.128,1.003,0.191,1.529,0.191c0.356,0,0.739-0.029,1.147-0.09c0.407-0.059,0.789-0.174,1.146-0.344
			c0.356-0.17,0.654-0.403,0.893-0.701c0.236-0.297,0.355-0.675,0.355-1.134c0-0.492-0.156-0.892-0.471-1.198
			c-0.314-0.306-0.727-0.561-1.236-0.764c-0.51-0.204-1.088-0.383-1.732-0.535c-0.646-0.153-1.301-0.323-1.963-0.51
			c-0.68-0.17-1.342-0.378-1.988-0.625c-0.646-0.246-1.223-0.564-1.732-0.955c-0.51-0.392-0.922-0.88-1.236-1.466
			s-0.472-1.296-0.472-2.128c0-0.935,0.2-1.746,0.599-2.435c0.399-0.688,0.922-1.261,1.568-1.72c0.645-0.459,1.375-0.799,2.191-1.02
			c0.815-0.221,1.631-0.331,2.446-0.331c0.952,0,1.864,0.106,2.739,0.318c0.875,0.213,1.652,0.557,2.332,1.032
			s1.22,1.083,1.619,1.822c0.398,0.739,0.599,1.636,0.599,2.688h-3.874c-0.034-0.543-0.148-0.994-0.344-1.351
			s-0.455-0.637-0.777-0.841s-0.692-0.349-1.108-0.434c-0.417-0.085-0.871-0.127-1.364-0.127c-0.322,0-0.646,0.034-0.968,0.102
			c-0.323,0.068-0.616,0.188-0.88,0.356c-0.264,0.17-0.48,0.383-0.649,0.638c-0.17,0.255-0.255,0.577-0.255,0.968
			c0,0.357,0.068,0.646,0.204,0.867s0.403,0.425,0.803,0.611c0.399,0.188,0.951,0.374,1.656,0.561
			c0.705,0.188,1.627,0.425,2.766,0.714c0.339,0.068,0.812,0.191,1.414,0.369c0.603,0.179,1.202,0.464,1.797,0.854
			s1.108,0.913,1.542,1.567s0.65,1.49,0.65,2.51c0,0.833-0.162,1.605-0.484,2.319c-0.323,0.714-0.803,1.33-1.44,1.848
			c-0.638,0.519-1.427,0.922-2.37,1.211s-2.035,0.434-3.275,0.434c-1.002,0-1.975-0.124-2.918-0.37s-1.775-0.633-2.497-1.159
			c-0.723-0.526-1.296-1.198-1.721-2.014s-0.628-1.784-0.611-2.905h3.874C203.27,33.448,203.379,33.967,203.601,34.392z"/>
		<path fill="#0097D8" d="M217.184,27.638c0.374-0.561,0.85-1.011,1.428-1.351s1.228-0.582,1.949-0.727
			c0.723-0.145,1.449-0.217,2.18-0.217c0.662,0,1.334,0.047,2.014,0.141s1.299,0.276,1.859,0.548
			c0.562,0.271,1.02,0.649,1.377,1.134s0.535,1.126,0.535,1.925v6.855c0,0.595,0.033,1.164,0.102,1.707
			c0.068,0.544,0.188,0.952,0.357,1.224h-3.67c-0.068-0.204-0.123-0.412-0.166-0.624c-0.043-0.213-0.072-0.43-0.089-0.65
			c-0.578,0.595-1.258,1.011-2.039,1.249c-0.782,0.237-1.58,0.356-2.396,0.356c-0.629,0-1.215-0.076-1.759-0.229
			c-0.544-0.152-1.02-0.391-1.427-0.713c-0.408-0.323-0.727-0.73-0.956-1.224c-0.229-0.492-0.345-1.079-0.345-1.759
			c0-0.747,0.132-1.363,0.396-1.848c0.263-0.484,0.603-0.87,1.02-1.159c0.416-0.289,0.892-0.506,1.427-0.65
			c0.535-0.144,1.074-0.259,1.619-0.344c0.543-0.085,1.078-0.153,1.605-0.204c0.526-0.051,0.994-0.127,1.401-0.229
			c0.408-0.102,0.73-0.25,0.969-0.445c0.237-0.195,0.349-0.48,0.331-0.854c0-0.391-0.063-0.7-0.191-0.93
			c-0.127-0.229-0.297-0.408-0.51-0.535c-0.213-0.128-0.459-0.213-0.738-0.255c-0.281-0.043-0.582-0.064-0.905-0.064
			c-0.714,0-1.274,0.153-1.682,0.459c-0.408,0.306-0.646,0.815-0.714,1.529h-3.619C216.598,28.903,216.811,28.198,217.184,27.638z
			 M224.333,32.748c-0.229,0.076-0.476,0.14-0.739,0.19s-0.539,0.094-0.828,0.128s-0.578,0.076-0.867,0.127
			c-0.271,0.051-0.539,0.119-0.803,0.204s-0.492,0.2-0.688,0.344c-0.195,0.145-0.354,0.328-0.472,0.548
			c-0.119,0.222-0.179,0.502-0.179,0.842c0,0.322,0.06,0.595,0.179,0.815c0.118,0.221,0.28,0.395,0.484,0.522
			c0.204,0.127,0.441,0.217,0.714,0.268c0.271,0.051,0.552,0.076,0.841,0.076c0.714,0,1.266-0.118,1.657-0.356
			c0.391-0.238,0.679-0.522,0.865-0.854c0.188-0.331,0.303-0.666,0.345-1.006s0.063-0.612,0.063-0.816v-1.351
			C224.754,32.565,224.562,32.671,224.333,32.748z"/>
		<path fill="#0097D8" d="M234.77,25.701v1.835h0.076c0.459-0.765,1.053-1.321,1.783-1.67c0.73-0.348,1.479-0.522,2.243-0.522
			c0.969,0,1.763,0.132,2.384,0.396c0.619,0.264,1.107,0.629,1.465,1.096c0.356,0.468,0.607,1.036,0.752,1.707
			c0.145,0.672,0.217,1.415,0.217,2.23v8.104h-3.619v-7.441c0-1.088-0.17-1.899-0.51-2.435s-0.943-0.803-1.81-0.803
			c-0.985,0-1.699,0.293-2.142,0.879c-0.441,0.587-0.662,1.551-0.662,2.894v6.906h-3.619V25.701H234.77z"/>
		<path fill="#0097D8" d="M253.68,25.701v2.421h-2.65v6.524c0,0.611,0.102,1.02,0.305,1.223c0.205,0.204,0.612,0.307,1.224,0.307
			c0.204,0,0.399-0.009,0.587-0.025c0.186-0.018,0.365-0.043,0.535-0.077v2.804c-0.307,0.051-0.646,0.085-1.02,0.102
			c-0.375,0.018-0.74,0.025-1.096,0.025c-0.562,0-1.092-0.038-1.594-0.114c-0.501-0.076-0.943-0.225-1.325-0.446
			c-0.382-0.221-0.685-0.535-0.905-0.942c-0.221-0.408-0.33-0.943-0.33-1.605v-7.773h-2.192v-2.421h2.192V21.75h3.619v3.951H253.68z
			"/>
		<path fill="#0097D8" d="M255.896,27.638c0.373-0.561,0.85-1.011,1.427-1.351s1.228-0.582,1.95-0.727
			c0.722-0.145,1.447-0.217,2.179-0.217c0.663,0,1.333,0.047,2.013,0.141s1.301,0.276,1.861,0.548s1.02,0.649,1.376,1.134
			s0.535,1.126,0.535,1.925v6.855c0,0.595,0.034,1.164,0.103,1.707c0.066,0.544,0.186,0.952,0.356,1.224h-3.671
			c-0.067-0.204-0.123-0.412-0.165-0.624c-0.042-0.213-0.072-0.43-0.089-0.65c-0.578,0.595-1.258,1.011-2.039,1.249
			c-0.781,0.237-1.58,0.356-2.396,0.356c-0.629,0-1.216-0.076-1.759-0.229c-0.544-0.152-1.02-0.391-1.428-0.713
			c-0.407-0.323-0.726-0.73-0.955-1.224c-0.229-0.492-0.344-1.079-0.344-1.759c0-0.747,0.131-1.363,0.395-1.848
			s0.604-0.87,1.02-1.159s0.893-0.506,1.428-0.65c0.535-0.144,1.074-0.259,1.617-0.344c0.545-0.085,1.08-0.153,1.606-0.204
			s0.993-0.127,1.401-0.229c0.408-0.102,0.73-0.25,0.969-0.445s0.348-0.48,0.331-0.854c0-0.391-0.063-0.7-0.19-0.93
			c-0.128-0.229-0.298-0.408-0.51-0.535c-0.213-0.128-0.459-0.213-0.74-0.255c-0.279-0.043-0.582-0.064-0.904-0.064
			c-0.713,0-1.273,0.153-1.682,0.459s-0.646,0.815-0.714,1.529h-3.619C255.311,28.903,255.521,28.198,255.896,27.638z
			 M263.045,32.748c-0.229,0.076-0.477,0.14-0.739,0.19c-0.264,0.051-0.54,0.094-0.828,0.128c-0.289,0.034-0.577,0.076-0.866,0.127
			c-0.272,0.051-0.54,0.119-0.803,0.204c-0.264,0.085-0.493,0.2-0.688,0.344c-0.196,0.145-0.353,0.328-0.472,0.548
			c-0.119,0.222-0.178,0.502-0.178,0.842c0,0.322,0.059,0.595,0.178,0.815s0.28,0.395,0.484,0.522
			c0.204,0.127,0.441,0.217,0.713,0.268c0.272,0.051,0.553,0.076,0.842,0.076c0.713,0,1.266-0.118,1.656-0.356
			s0.68-0.522,0.867-0.854c0.187-0.331,0.301-0.666,0.344-1.006c0.042-0.34,0.063-0.612,0.063-0.816v-1.351
			C263.465,32.565,263.274,32.671,263.045,32.748z"/>
		<path fill="#0097D8" d="M286.58,20.68l6.805,18.197h-4.154l-1.375-4.053h-6.805l-1.428,4.053h-4.027l6.882-18.197H286.58z
			 M286.811,31.843l-2.295-6.677h-0.051l-2.369,6.677H286.811z"/>
		<path fill="#0097D8" d="M303.937,37.195c-0.425,0.713-0.981,1.228-1.669,1.541c-0.688,0.314-1.466,0.472-2.332,0.472
			c-0.986,0-1.853-0.19-2.6-0.573c-0.748-0.382-1.363-0.9-1.848-1.555c-0.484-0.653-0.85-1.405-1.096-2.256
			c-0.247-0.849-0.37-1.732-0.37-2.65c0-0.883,0.123-1.736,0.37-2.561c0.246-0.824,0.611-1.551,1.096-2.18
			c0.484-0.628,1.092-1.134,1.822-1.517c0.73-0.382,1.58-0.573,2.549-0.573c0.781,0,1.524,0.166,2.229,0.497s1.262,0.82,1.669,1.466
			h0.051V20.68h3.619v18.197h-3.439v-1.682H303.937z M303.783,30.684c-0.102-0.501-0.275-0.943-0.521-1.325
			c-0.247-0.383-0.565-0.692-0.956-0.931c-0.392-0.237-0.884-0.356-1.479-0.356s-1.096,0.119-1.503,0.356
			c-0.408,0.238-0.736,0.553-0.982,0.943s-0.424,0.837-0.535,1.338c-0.11,0.501-0.165,1.023-0.165,1.567
			c0,0.51,0.06,1.02,0.179,1.529c0.118,0.51,0.31,0.964,0.573,1.363c0.263,0.399,0.595,0.723,0.993,0.969
			c0.399,0.246,0.88,0.369,1.44,0.369c0.595,0,1.092-0.119,1.491-0.356c0.398-0.238,0.717-0.557,0.955-0.956s0.408-0.854,0.51-1.363
			c0.103-0.51,0.153-1.036,0.153-1.58S303.886,31.185,303.783,30.684z"/>
		<path fill="#0097D8" d="M314.029,35.717c0.543,0.526,1.324,0.79,2.344,0.79c0.73,0,1.359-0.183,1.887-0.548
			c0.526-0.365,0.85-0.752,0.969-1.16h3.186c-0.51,1.58-1.291,2.711-2.346,3.39c-1.053,0.68-2.327,1.02-3.822,1.02
			c-1.037,0-1.971-0.165-2.803-0.497c-0.834-0.331-1.539-0.803-2.115-1.414c-0.578-0.611-1.024-1.342-1.339-2.191
			s-0.472-1.784-0.472-2.804c0-0.985,0.162-1.903,0.484-2.753c0.322-0.849,0.781-1.584,1.377-2.204
			c0.594-0.62,1.303-1.108,2.127-1.466c0.824-0.356,1.738-0.535,2.74-0.535c1.121,0,2.098,0.217,2.932,0.65
			c0.832,0.433,1.516,1.016,2.051,1.745c0.535,0.731,0.922,1.563,1.16,2.498s0.322,1.911,0.254,2.931h-9.506
			C313.188,34.341,313.484,35.19,314.029,35.717z M318.119,28.784c-0.434-0.476-1.092-0.713-1.975-0.713
			c-0.578,0-1.059,0.098-1.44,0.293s-0.688,0.438-0.917,0.727c-0.229,0.289-0.392,0.595-0.484,0.917
			c-0.094,0.323-0.148,0.611-0.166,0.866h5.887C318.854,29.957,318.553,29.261,318.119,28.784z"/>
		<path fill="#0097D8" d="M328.505,20.68v18.197h-3.619V20.68H328.505z"/>
		<path fill="#0097D8" d="M331.843,27.638c0.374-0.561,0.85-1.011,1.428-1.351c0.577-0.34,1.227-0.582,1.949-0.727
			c0.722-0.145,1.448-0.217,2.179-0.217c0.663,0,1.334,0.047,2.014,0.141s1.3,0.276,1.86,0.548s1.02,0.649,1.376,1.134
			c0.357,0.484,0.536,1.126,0.536,1.925v6.855c0,0.595,0.033,1.164,0.102,1.707c0.067,0.544,0.187,0.952,0.356,1.224h-3.67
			c-0.067-0.204-0.123-0.412-0.165-0.624c-0.043-0.213-0.073-0.43-0.09-0.65c-0.577,0.595-1.257,1.011-2.039,1.249
			c-0.781,0.237-1.58,0.356-2.396,0.356c-0.629,0-1.215-0.076-1.758-0.229c-0.544-0.152-1.02-0.391-1.428-0.713
			c-0.407-0.323-0.727-0.73-0.956-1.224c-0.229-0.492-0.344-1.079-0.344-1.759c0-0.747,0.132-1.363,0.396-1.848
			c0.263-0.484,0.603-0.87,1.02-1.159c0.416-0.289,0.892-0.506,1.427-0.65c0.535-0.144,1.074-0.259,1.618-0.344
			s1.079-0.153,1.605-0.204s0.994-0.127,1.402-0.229c0.407-0.102,0.73-0.25,0.968-0.445c0.238-0.195,0.349-0.48,0.332-0.854
			c0-0.391-0.064-0.7-0.191-0.93c-0.128-0.229-0.298-0.408-0.51-0.535c-0.213-0.128-0.459-0.213-0.739-0.255
			c-0.28-0.043-0.582-0.064-0.904-0.064c-0.714,0-1.274,0.153-1.683,0.459c-0.407,0.306-0.646,0.815-0.713,1.529h-3.619
			C331.257,28.903,331.469,28.198,331.843,27.638z M338.991,32.748c-0.229,0.076-0.476,0.14-0.738,0.19
			c-0.264,0.051-0.54,0.094-0.829,0.128s-0.577,0.076-0.866,0.127c-0.271,0.051-0.539,0.119-0.803,0.204s-0.493,0.2-0.688,0.344
			c-0.195,0.145-0.353,0.328-0.471,0.548c-0.119,0.222-0.179,0.502-0.179,0.842c0,0.322,0.06,0.595,0.179,0.815
			c0.118,0.221,0.28,0.395,0.484,0.522c0.203,0.127,0.441,0.217,0.713,0.268s0.552,0.076,0.841,0.076
			c0.714,0,1.266-0.118,1.657-0.356c0.391-0.238,0.679-0.522,0.866-0.854c0.187-0.331,0.302-0.666,0.344-1.006
			c0.043-0.34,0.064-0.612,0.064-0.816v-1.351C339.412,32.565,339.221,32.671,338.991,32.748z"/>
	</g>
</g>
</svg>
