<?xml version="1.0" encoding="utf-8"?>
<!-- Generator: Adobe Illustrator 16.0.0, SVG Export Plug-In . SVG Version: 6.00 Build 0)  -->
<!DOCTYPE svg PUBLIC "-//W3C//DTD SVG 1.1//EN" "http://www.w3.org/Graphics/SVG/1.1/DTD/svg11.dtd">
<svg version="1.1" id="Capa_1" xmlns="http://www.w3.org/2000/svg" xmlns:xlink="http://www.w3.org/1999/xlink" x="0px" y="0px"
	 width="595px" height="595px" viewBox="123.5 0 595 595" enable-background="new 123.5 0 595 595" xml:space="preserve">
<g>
	<path fill="#0097D8" fill-opacity="0.5" d="M420.987,0C256.705,0,123.5,133.205,123.5,297.487C123.5,461.771,256.705,595,420.987,595
		C585.271,595,718.5,461.771,718.5,297.487C718.5,133.205,585.271,0,420.987,0z M482.918,461.065
		c-15.312,6.044-27.502,10.628-36.645,13.801c-9.117,3.174-19.72,4.761-31.784,4.761c-18.537,0-32.967-4.533-43.243-13.575
		c-10.275-9.041-15.388-20.501-15.388-34.428c0-5.415,0.378-10.956,1.133-16.598c0.781-5.642,2.015-11.988,3.703-19.115
		l19.166-67.698c1.688-6.497,3.148-12.668,4.307-18.41c1.159-5.792,1.713-11.106,1.713-15.942c0-8.613-1.788-14.658-5.339-18.058
		c-3.602-3.4-10.376-5.062-20.476-5.062c-4.937,0-10.023,0.73-15.237,2.267c-5.163,1.587-9.646,3.022-13.323,4.433l5.062-20.854
		c12.542-5.112,24.556-9.495,36.015-13.121c11.459-3.677,22.289-5.491,32.489-5.491c18.41,0,32.615,4.483,42.613,13.348
		c9.948,8.891,14.96,20.451,14.96,34.655c0,2.947-0.353,8.135-1.032,15.539c-0.681,7.43-1.965,14.205-3.828,20.426l-19.065,67.496
		c-1.562,5.415-2.946,11.61-4.206,18.536c-1.234,6.926-1.838,12.215-1.838,15.766c0,8.967,1.989,15.086,6.019,18.335
		c3.979,3.249,10.956,4.886,20.828,4.886c4.659,0,9.873-0.831,15.767-2.442c5.843-1.612,10.073-3.048,12.743-4.281L482.918,461.065z
		 M479.543,187.101c-8.891,8.261-19.594,12.391-32.111,12.391c-12.491,0-23.271-4.13-32.237-12.391
		c-8.916-8.261-13.424-18.31-13.424-30.046c0-11.711,4.534-21.785,13.424-30.122c8.966-8.361,19.746-12.517,32.237-12.517
		c12.518,0,23.246,4.155,32.111,12.517c8.891,8.336,13.348,18.411,13.348,30.122C492.891,168.816,488.434,178.84,479.543,187.101z"
		/>
</g>
</svg>
