<?xml version="1.0" encoding="utf-8"?>
<!-- Generator: Adobe Illustrator 16.0.0, SVG Export Plug-In . SVG Version: 6.00 Build 0)  -->
<!DOCTYPE svg PUBLIC "-//W3C//DTD SVG 1.1//EN" "http://www.w3.org/Graphics/SVG/1.1/DTD/svg11.dtd">
<svg version="1.1" id="Capa_1" xmlns="http://www.w3.org/2000/svg" xmlns:xlink="http://www.w3.org/1999/xlink" x="0px" y="0px"
	 width="440.193px" height="371.992px" viewBox="189.348 111.504 440.193 371.992"
	 enable-background="new 189.348 111.504 440.193 371.992" xml:space="preserve">
<path fill="#71C4F3" d="M397.526,317.256l158.047,158.047c10.924,10.924,28.588,10.924,39.396,0l26.264-26.264
	c10.924-10.924,10.924-28.588,0-39.396L509.321,297.5l112.027-112.027c10.924-10.924,10.924-28.588,0-39.396l-26.264-26.38
	c-10.924-10.924-28.588-10.924-39.396,0L397.643,277.744C386.603,288.668,386.603,306.332,397.526,317.256L397.526,317.256z"/>
<path fill="#3880D2" d="M197.526,317.256l158.047,158.047c10.924,10.924,28.588,10.924,39.396,0l26.264-26.264
	c10.924-10.924,10.924-28.588,0-39.396L309.321,297.5l112.027-112.027c10.924-10.924,10.924-28.588,0-39.396l-26.264-26.38
	c-10.924-10.924-28.588-10.924-39.396,0L197.643,277.744C186.603,288.668,186.603,306.332,197.526,317.256L197.526,317.256z"/>
</svg>
