<?xml version="1.0" encoding="utf-8"?>
<!-- Generator: Adobe Illustrator 16.0.0, SVG Export Plug-In . SVG Version: 6.00 Build 0)  -->
<!DOCTYPE svg PUBLIC "-//W3C//DTD SVG 1.1//EN" "http://www.w3.org/Graphics/SVG/1.1/DTD/svg11.dtd">
<svg version="1.1" id="San_Carlos" xmlns="http://www.w3.org/2000/svg" xmlns:xlink="http://www.w3.org/1999/xlink" x="0px" y="0px"
	 width="352.749px" height="74px" viewBox="0 0 352.749 62.751" enable-background="new 0 0 352.749 62.751"
	 xml:space="preserve">
<polygon fill="#0097D8" points="32.047,43.837 9.938,42.969 9.446,35.189 0.183,34.201 2.65,13.328 9.078,12.833 9.199,2.458 
	19.202,2.705 19.945,13.943 5.863,20.123 21.307,24.074 23.157,39.756 31.431,26.174 42.917,28.893 43.41,34.697 32.545,35.436 "/>
<polygon fill="#0097D8" points="23.158,2.828 29.702,9.992 32.171,8.762 31.679,2.957 "/>
<polygon fill="#0097D8" points="36.374,17.279 43.287,25.187 43.41,13.33 39.581,12.713 "/>
<g>
	<path fill="#E63027" d="M0.006,58.414c-0.138,3.002,2.002,4.312,4.918,4.312c4.364,0,4.709-2.673,4.709-3.518
		c0-2.018-1.45-2.777-3.192-3.243L3.44,55.223c-1-0.241-1.863-0.724-1.863-1.879c0-1.83,1.484-2.452,3.088-2.452
		c1.743,0,3.294,0.95,3.364,2.829h1.172c0.018-2.519-2.121-3.829-4.554-3.829c-3.468,0-4.243,2.26-4.243,3.467
		c0,1.914,1.328,2.606,2.777,2.969l2.742,0.67c1.141,0.277,2.537,0.83,2.537,2.227c0,1.797-1.967,2.503-3.261,2.503
		c-2.242,0-4.071-0.776-4.02-3.313H0.006"/>
	<path fill-rule="evenodd" clip-rule="evenodd" fill="#E63027" d="M11.892,56.292c0.035-1.449,1.036-2.07,2.381-2.07
		c1.276,0,2.329,0.359,2.329,1.828c0,0.985-0.5,1.106-1.397,1.207c-2.347,0.278-4.779,0.362-4.779,2.865
		c0,1.793,1.345,2.604,2.985,2.604c1.707,0,2.484-0.656,3.242-1.811h0.035c0,0.932,0.173,1.555,1.276,1.555
		c0.296,0,0.467-0.019,0.708-0.07v-0.914c-0.086,0.033-0.223,0.066-0.345,0.066c-0.43,0-0.638-0.24-0.638-0.654v-4.727
		c0-2.381-1.708-2.863-3.277-2.863c-2.036,0-3.503,0.897-3.606,2.984H11.892 M16.602,59.017c0.018,1.742-1.449,2.797-3.104,2.797
		c-1.019,0-1.985-0.676-1.985-1.762c0-1.742,2.294-1.722,4.14-2.055c0.293-0.048,0.776-0.137,0.914-0.395h0.035V59.017z"/>
	<rect x="19.5" y="50.15" fill="#E63027" width="1.086" height="12.318"/>
	<path fill="#E63027" d="M29.502,53.566h-1.086v4.676c0,1.811-0.812,3.572-2.673,3.572c-1.725,0-2.33-0.848-2.381-2.451v-5.797
		h-1.087v5.779c0,2.071,0.88,3.381,3.123,3.381c1.328,0,2.5-0.674,3.07-1.861h0.035v1.605h0.999V53.566"/>
	<path fill-rule="evenodd" clip-rule="evenodd" fill="#E63027" d="M39.009,50.175h-1.088v5.107h-0.033
		c-0.467-1.277-1.76-1.949-3.089-1.949c-2.708,0-4.002,2.189-4.002,4.709c0,2.521,1.294,4.709,4.002,4.709
		c1.294,0,2.709-0.793,3.175-1.948h0.034v1.692h1.001V50.175 M31.884,58.042c0-1.846,0.845-3.795,2.915-3.795
		c2.312,0,3.122,1.949,3.122,3.795c0,1.847-0.81,3.797-3.122,3.797C32.729,61.839,31.884,59.889,31.884,58.042"/>
	<polygon fill="#0097D8" points="40.873,62.496 42.045,62.496 42.045,51.848 42.08,51.848 46.307,62.496 47.411,62.496 
		51.62,51.848 51.655,51.848 51.655,62.496 52.828,62.496 52.828,50.176 51.103,50.176 46.859,60.976 42.598,50.176 40.873,50.176 	
		"/>
	<path fill-rule="evenodd" clip-rule="evenodd" fill="#0097D8" d="M55.669,56.318c0.035-1.447,1.036-2.07,2.381-2.07
		c1.277,0,2.329,0.362,2.329,1.83c0,0.983-0.501,1.104-1.397,1.205c-2.347,0.278-4.779,0.362-4.779,2.864
		c0,1.795,1.345,2.604,2.985,2.604c1.708,0,2.483-0.654,3.243-1.81h0.035c0,0.931,0.172,1.554,1.276,1.554
		c0.293,0,0.466-0.019,0.708-0.07v-0.912c-0.087,0.031-0.225,0.064-0.346,0.064c-0.431,0-0.638-0.238-0.638-0.656v-4.725
		c0-2.38-1.707-2.863-3.278-2.863c-2.035,0-3.502,0.897-3.605,2.984H55.669 M60.379,59.044c0.017,1.742-1.449,2.795-3.105,2.795
		c-1.018,0-1.984-0.674-1.984-1.764c0-1.74,2.295-1.72,4.141-2.051c0.292-0.05,0.776-0.139,0.914-0.396h0.034V59.044z"/>
	<path fill-rule="evenodd" clip-rule="evenodd" fill="#0097D8" d="M71.092,50.175h-1.086v5.107h-0.035
		c-0.466-1.277-1.76-1.949-3.088-1.949c-2.709,0-4.002,2.189-4.002,4.709c0,2.521,1.293,4.709,4.002,4.709
		c1.293,0,2.709-0.793,3.174-1.948h0.035v1.692h1V50.175 M63.968,58.042c0-1.846,0.845-3.795,2.915-3.795
		c2.31,0,3.123,1.949,3.123,3.795c0,1.847-0.813,3.797-3.123,3.797C64.813,61.839,63.968,59.889,63.968,58.042"/>
	<path fill="#0097D8" d="M72.784,62.496h1.087v-4.748c0-1.844,1.345-3.293,3.313-3.188v-1.086c-1.605-0.071-2.813,0.774-3.366,2.207
		h-0.034v-2.088h-1V62.496"/>
	<path fill-rule="evenodd" clip-rule="evenodd" fill="#0097D8" d="M77.855,51.918h1.086v-1.742h-1.086V51.918z M77.855,62.497h1.086
		v-8.904h-1.086V62.497z"/>
	<path fill-rule="evenodd" clip-rule="evenodd" fill="#0097D8" d="M88.48,50.175h-1.086v5.107h-0.035
		c-0.466-1.277-1.76-1.949-3.088-1.949c-2.709,0-4.003,2.189-4.003,4.709c0,2.521,1.294,4.709,4.003,4.709
		c1.294,0,2.709-0.793,3.174-1.948h0.034v1.692h1.001V50.175 M81.355,58.042c0-1.846,0.845-3.795,2.916-3.795
		c2.312,0,3.123,1.949,3.123,3.795c0,1.847-0.811,3.797-3.123,3.797C82.201,61.839,81.355,59.889,81.355,58.042"/>
	<rect x="47.048" y="2.419" fill="#E63027" width="41.233" height="41.23"/>
	<polygon fill="#FFFFFF" points="54.799,16.304 53.966,18.906 51.238,18.939 53.452,20.518 52.653,23.062 54.799,21.498 
		56.979,23.031 56.146,20.486 58.321,18.873 55.645,18.906 	"/>
	<polygon fill="#FFFFFF" points="63.386,16.304 62.553,18.906 59.825,18.939 62.036,20.518 61.239,23.062 63.386,21.498 
		65.561,23.031 64.732,20.486 66.911,18.873 64.228,18.906 	"/>
	<polygon fill="#FFFFFF" points="72.008,16.304 71.176,18.906 68.449,18.939 70.662,20.518 69.862,23.062 72.008,21.498 
		74.187,23.031 73.355,20.486 75.534,18.873 72.86,18.906 	"/>
	<polygon fill="#FFFFFF" points="67.67,22.234 66.841,24.836 64.11,24.869 66.324,26.449 65.521,28.992 67.67,27.431 69.849,28.959 
		69.02,26.416 71.192,24.802 68.517,24.836 	"/>
	<polygon fill="#FFFFFF" points="59.07,22.234 58.235,24.836 55.512,24.869 57.72,26.449 56.922,28.992 59.07,27.431 61.244,28.959 
		60.412,26.416 62.589,24.802 59.915,24.836 	"/>
	<polygon fill="#FFFFFF" points="76.308,22.234 75.476,24.836 72.75,24.869 74.96,26.449 74.162,28.992 76.308,27.431 
		78.485,28.959 77.653,26.416 79.832,24.802 77.158,24.836 	"/>
	<polygon fill="#FFFFFF" points="80.623,16.304 79.788,18.906 77.066,18.939 79.274,20.518 78.476,23.062 80.623,21.498 
		82.797,23.031 81.965,20.486 84.143,18.873 81.468,18.906 	"/>
	<polygon fill="#0097D8" points="105.945,2.417 105.945,11.746 115.784,11.746 115.784,2.417 121.13,2.417 121.13,26.727 
		115.784,26.727 115.784,16.24 105.945,16.24 105.945,26.727 100.599,26.727 100.599,2.417 	"/>
	<path fill="#0097D8" d="M125.419,14.112c0.431-1.146,1.044-2.122,1.839-2.928c0.794-0.805,1.747-1.43,2.86-1.872
		c1.111-0.443,2.36-0.664,3.745-0.664c1.384,0,2.638,0.221,3.762,0.664c1.124,0.442,2.082,1.067,2.877,1.872
		c0.794,0.806,1.407,1.782,1.839,2.928c0.43,1.147,0.646,2.423,0.646,3.83c0,1.408-0.216,2.679-0.646,3.814
		c-0.432,1.135-1.045,2.105-1.839,2.911c-0.795,0.806-1.753,1.425-2.877,1.856c-1.124,0.43-2.378,0.646-3.762,0.646
		c-1.385,0-2.634-0.216-3.745-0.646c-1.113-0.431-2.066-1.05-2.86-1.856c-0.795-0.806-1.408-1.776-1.839-2.911
		c-0.431-1.135-0.647-2.406-0.647-3.814C124.772,16.535,124.989,15.259,125.419,14.112 M129.812,20.002
		c0.136,0.67,0.369,1.271,0.698,1.805c0.329,0.534,0.766,0.959,1.311,1.277c0.545,0.317,1.226,0.477,2.043,0.477
		c0.817,0,1.503-0.16,2.06-0.477c0.555-0.318,0.998-0.743,1.327-1.277c0.329-0.534,0.562-1.135,0.699-1.805
		c0.136-0.669,0.204-1.355,0.204-2.06c0-0.703-0.068-1.395-0.204-2.077c-0.137-0.68-0.37-1.282-0.699-1.803
		c-0.329-0.523-0.772-0.949-1.327-1.278c-0.557-0.329-1.243-0.493-2.06-0.493c-0.817,0-1.498,0.164-2.043,0.493
		c-0.545,0.329-0.982,0.755-1.311,1.278c-0.329,0.521-0.562,1.123-0.698,1.803c-0.136,0.682-0.204,1.374-0.204,2.077
		C129.607,18.647,129.675,19.333,129.812,20.002"/>
	<path fill="#0097D8" d="M150.188,22.351c0.215,0.374,0.494,0.681,0.834,0.919c0.341,0.238,0.732,0.415,1.175,0.528
		c0.442,0.114,0.902,0.17,1.379,0.17c0.34,0,0.697-0.039,1.072-0.119c0.374-0.079,0.715-0.204,1.021-0.375
		c0.307-0.17,0.562-0.396,0.767-0.681c0.204-0.283,0.306-0.64,0.306-1.072c0-0.726-0.483-1.27-1.447-1.635
		c-0.965-0.362-2.31-0.725-4.035-1.089c-0.703-0.159-1.39-0.345-2.059-0.561c-0.67-0.216-1.266-0.499-1.788-0.852
		c-0.522-0.351-0.942-0.794-1.26-1.328c-0.318-0.533-0.476-1.185-0.476-1.957c0-1.135,0.221-2.065,0.664-2.792
		c0.442-0.726,1.026-1.3,1.753-1.719c0.726-0.42,1.543-0.715,2.451-0.885c0.908-0.171,1.839-0.256,2.792-0.256
		c0.954,0,1.878,0.091,2.775,0.272c0.896,0.182,1.697,0.489,2.4,0.919c0.704,0.432,1.288,1.005,1.754,1.72
		c0.465,0.715,0.743,1.617,0.834,2.707h-4.596c-0.068-0.931-0.42-1.56-1.056-1.89c-0.635-0.329-1.385-0.494-2.247-0.494
		c-0.272,0-0.568,0.018-0.885,0.051c-0.318,0.034-0.607,0.108-0.868,0.222c-0.261,0.114-0.483,0.278-0.664,0.494
		c-0.182,0.216-0.273,0.505-0.273,0.868c0,0.431,0.159,0.783,0.477,1.055c0.318,0.272,0.732,0.494,1.243,0.664
		c0.511,0.171,1.095,0.324,1.753,0.46c0.658,0.135,1.328,0.284,2.009,0.442c0.703,0.159,1.39,0.353,2.06,0.579
		c0.669,0.228,1.265,0.528,1.787,0.903c0.522,0.374,0.942,0.839,1.26,1.395c0.317,0.557,0.477,1.243,0.477,2.061
		c0,1.157-0.233,2.128-0.698,2.91c-0.466,0.783-1.073,1.413-1.822,1.889c-0.749,0.477-1.606,0.813-2.57,1.005
		c-0.966,0.193-1.947,0.289-2.945,0.289c-1.022,0-2.021-0.101-2.997-0.306c-0.976-0.204-1.844-0.544-2.604-1.021
		c-0.761-0.477-1.385-1.107-1.873-1.889c-0.488-0.784-0.755-1.765-0.8-2.946h4.596C149.864,21.529,149.973,21.976,150.188,22.351"/>
	<path fill="#0097D8" d="M169,9.124v2.247h0.067c0.59-0.953,1.339-1.645,2.247-2.076c0.908-0.432,1.907-0.648,2.996-0.648
		c1.385,0,2.575,0.262,3.574,0.784c1,0.522,1.828,1.215,2.486,2.077s1.146,1.867,1.464,3.013c0.318,1.146,0.478,2.343,0.478,3.591
		c0,1.181-0.159,2.316-0.478,3.406c-0.317,1.088-0.8,2.054-1.446,2.893c-0.647,0.84-1.453,1.51-2.418,2.009
		s-2.094,0.749-3.388,0.749c-1.089,0-2.094-0.221-3.013-0.664c-0.919-0.442-1.675-1.095-2.265-1.957h-0.067v8.341h-4.835V9.124H169z
		 M175.281,23.083c0.533-0.318,0.965-0.732,1.294-1.243c0.329-0.511,0.561-1.107,0.698-1.787c0.136-0.682,0.204-1.373,0.204-2.077
		c0-0.704-0.074-1.397-0.222-2.078c-0.147-0.68-0.392-1.288-0.731-1.821c-0.341-0.533-0.778-0.965-1.312-1.294
		s-1.186-0.493-1.957-0.493c-0.795,0-1.459,0.164-1.992,0.493s-0.965,0.755-1.294,1.278c-0.329,0.521-0.562,1.123-0.697,1.803
		c-0.138,0.682-0.205,1.385-0.205,2.112c0,0.704,0.073,1.395,0.222,2.077c0.147,0.68,0.386,1.276,0.715,1.787
		c0.329,0.511,0.767,0.925,1.311,1.243c0.545,0.317,1.203,0.477,1.975,0.477C174.083,23.561,174.748,23.401,175.281,23.083"/>
	<path fill="#0097D8" d="M185.341,2.417h4.835V6.4h-4.835V2.417z M190.176,26.726h-4.835V9.123h4.835V26.726z"/>
	<path fill="#0097D8" d="M203.659,9.124v3.234h-3.541v8.717c0,0.817,0.137,1.362,0.409,1.634s0.816,0.408,1.634,0.408
		c0.272,0,0.533-0.011,0.783-0.033c0.249-0.022,0.488-0.057,0.715-0.103v3.746c-0.408,0.068-0.862,0.113-1.361,0.135
		c-0.5,0.023-0.988,0.034-1.465,0.034c-0.748,0-1.458-0.05-2.127-0.153c-0.67-0.101-1.26-0.3-1.771-0.596
		c-0.511-0.294-0.914-0.714-1.209-1.259c-0.296-0.544-0.442-1.26-0.442-2.145V12.358h-2.929V9.124h2.929V3.847h4.834v5.277H203.659z
		"/>
	<path fill="#0097D8" d="M205.769,14.538c0.068-1.135,0.353-2.077,0.852-2.826c0.499-0.749,1.135-1.351,1.906-1.805
		s1.64-0.777,2.605-0.971c0.964-0.192,1.935-0.289,2.91-0.289c0.886,0,1.782,0.063,2.69,0.188c0.907,0.125,1.736,0.369,2.485,0.731
		c0.749,0.363,1.361,0.868,1.839,1.516c0.477,0.646,0.715,1.504,0.715,2.57v9.159c0,0.794,0.045,1.555,0.136,2.281
		c0.092,0.727,0.25,1.271,0.477,1.634h-4.902c-0.091-0.272-0.165-0.55-0.222-0.834s-0.096-0.573-0.119-0.868
		c-0.771,0.795-1.68,1.351-2.724,1.668c-1.043,0.317-2.111,0.477-3.2,0.477c-0.84,0-1.623-0.102-2.35-0.307
		c-0.727-0.204-1.361-0.521-1.906-0.953c-0.545-0.431-0.971-0.976-1.277-1.634c-0.306-0.658-0.459-1.441-0.459-2.35
		c0-0.998,0.175-1.821,0.527-2.468c0.352-0.647,0.806-1.162,1.362-1.549c0.556-0.386,1.191-0.675,1.906-0.868
		s1.437-0.346,2.162-0.46c0.726-0.114,1.442-0.204,2.145-0.272c0.704-0.068,1.328-0.171,1.873-0.306
		c0.545-0.137,0.976-0.335,1.294-0.596c0.317-0.261,0.465-0.642,0.442-1.141c0-0.522-0.085-0.936-0.256-1.243
		c-0.17-0.306-0.396-0.545-0.681-0.715s-0.612-0.283-0.987-0.341c-0.374-0.055-0.777-0.084-1.209-0.084
		c-0.953,0-1.702,0.204-2.247,0.613c-0.544,0.408-0.862,1.089-0.953,2.043H205.769z M216.937,18.112
		c-0.204,0.183-0.46,0.324-0.766,0.426c-0.307,0.102-0.636,0.187-0.988,0.256c-0.351,0.067-0.721,0.125-1.106,0.17
		c-0.386,0.045-0.771,0.102-1.157,0.169c-0.363,0.069-0.721,0.16-1.072,0.273c-0.353,0.114-0.659,0.268-0.92,0.46
		c-0.261,0.193-0.47,0.437-0.63,0.731c-0.158,0.296-0.238,0.67-0.238,1.124c0,0.432,0.08,0.795,0.238,1.09
		c0.16,0.295,0.375,0.528,0.647,0.697c0.272,0.171,0.59,0.291,0.953,0.358c0.363,0.068,0.737,0.102,1.124,0.102
		c0.953,0,1.69-0.158,2.213-0.476c0.521-0.318,0.907-0.698,1.157-1.141c0.25-0.442,0.403-0.89,0.46-1.344
		c0.057-0.455,0.085-0.818,0.085-1.09V18.112z"/>
	<rect x="225.652" y="2.416" fill="#0097D8" width="4.835" height="24.31"/>
	<path fill="#0097D8" d="M259.869,8.903c-0.317-0.511-0.715-0.959-1.191-1.346c-0.477-0.385-1.016-0.685-1.617-0.901
		c-0.602-0.216-1.231-0.324-1.89-0.324c-1.203,0-2.225,0.233-3.064,0.698c-0.84,0.466-1.521,1.09-2.042,1.873
		c-0.522,0.782-0.902,1.674-1.141,2.672c-0.238,0.999-0.357,2.032-0.357,3.099c0,1.021,0.119,2.014,0.357,2.979
		c0.238,0.965,0.618,1.833,1.141,2.604c0.521,0.772,1.202,1.391,2.042,1.856c0.84,0.466,1.861,0.698,3.064,0.698
		c1.635,0,2.911-0.499,3.83-1.498c0.92-0.999,1.481-2.315,1.686-3.95h5.176c-0.137,1.521-0.489,2.894-1.057,4.12
		c-0.566,1.226-1.316,2.27-2.246,3.132c-0.932,0.863-2.021,1.521-3.269,1.975c-1.249,0.454-2.622,0.681-4.12,0.681
		c-1.861,0-3.535-0.323-5.021-0.971c-1.487-0.646-2.741-1.537-3.763-2.672c-1.021-1.135-1.805-2.468-2.349-4
		c-0.545-1.533-0.817-3.184-0.817-4.954c0-1.816,0.272-3.501,0.817-5.056c0.544-1.555,1.327-2.911,2.349-4.069
		c1.021-1.158,2.275-2.065,3.763-2.724c1.486-0.658,3.16-0.987,5.021-0.987c1.339,0,2.604,0.193,3.797,0.579
		c1.191,0.385,2.258,0.948,3.2,1.685c0.941,0.738,1.719,1.652,2.332,2.74c0.613,1.09,0.998,2.338,1.157,3.746h-5.175
		C260.391,9.975,260.187,9.414,259.869,8.903"/>
	<rect x="269.13" y="2.416" fill="#0097D8" width="4.835" height="24.31"/>
	<path fill="#0097D8" d="M286.665,0l-5.55,6.026h-3.37L281.353,0H286.665z M277.915,26.726h4.835V9.123h-4.835V26.726z"/>
	<path fill="#0097D8" d="M291.158,9.124v2.451h0.103c0.612-1.021,1.407-1.764,2.383-2.229c0.977-0.465,1.976-0.699,2.996-0.699
		c1.294,0,2.355,0.176,3.184,0.528s1.481,0.841,1.958,1.465c0.477,0.624,0.812,1.384,1.004,2.281c0.193,0.896,0.29,1.89,0.29,2.978
		v10.828h-4.835v-9.942c0-1.453-0.228-2.537-0.681-3.252c-0.454-0.715-1.26-1.072-2.418-1.072c-1.316,0-2.27,0.392-2.859,1.175
		c-0.591,0.783-0.886,2.071-0.886,3.864v9.227h-4.834V9.124H291.158z"/>
	<path fill="#0097D8" d="M306.887,2.417h4.836V6.4h-4.836V2.417z M311.723,26.726h-4.836V9.123h4.836V26.726z"/>
	<path fill="#0097D8" d="M323.945,12.291c-0.771,0-1.419,0.176-1.94,0.527c-0.522,0.353-0.948,0.806-1.277,1.363
		c-0.329,0.555-0.562,1.169-0.697,1.838c-0.137,0.669-0.204,1.334-0.204,1.992c0,0.635,0.067,1.282,0.204,1.94
		c0.136,0.658,0.357,1.255,0.664,1.787c0.306,0.534,0.72,0.971,1.242,1.312c0.522,0.34,1.158,0.511,1.907,0.511
		c1.157,0,2.048-0.325,2.672-0.971c0.624-0.647,1.016-1.515,1.175-2.605h4.665c-0.318,2.338-1.227,4.119-2.724,5.346
		c-1.5,1.226-3.416,1.838-5.755,1.838c-1.316,0-2.525-0.221-3.626-0.664s-2.037-1.061-2.809-1.856
		c-0.771-0.794-1.373-1.741-1.805-2.842c-0.432-1.101-0.646-2.31-0.646-3.626c0-1.362,0.198-2.627,0.596-3.796
		c0.396-1.169,0.981-2.18,1.754-3.031c0.771-0.851,1.713-1.515,2.825-1.992c1.112-0.476,2.384-0.715,3.813-0.715
		c1.044,0,2.048,0.137,3.013,0.409s1.827,0.687,2.588,1.243c0.762,0.556,1.379,1.249,1.855,2.077
		c0.477,0.828,0.749,1.811,0.817,2.944h-4.732C327.202,13.301,326.01,12.291,323.945,12.291"/>
	<path fill="#0097D8" d="M335.18,14.112c0.432-1.146,1.044-2.122,1.839-2.928c0.794-0.805,1.747-1.43,2.86-1.872
		c1.111-0.443,2.36-0.664,3.745-0.664c1.384,0,2.638,0.221,3.761,0.664c1.125,0.442,2.084,1.067,2.877,1.872
		c0.795,0.806,1.408,1.782,1.84,2.928c0.431,1.147,0.646,2.423,0.646,3.83c0,1.408-0.216,2.679-0.646,3.814
		c-0.432,1.135-1.045,2.105-1.84,2.911c-0.793,0.806-1.752,1.425-2.877,1.856c-1.123,0.43-2.377,0.646-3.761,0.646
		c-1.385,0-2.634-0.216-3.745-0.646c-1.113-0.431-2.066-1.05-2.86-1.856c-0.795-0.806-1.407-1.776-1.839-2.911
		c-0.432-1.135-0.646-2.406-0.646-3.814C334.534,16.535,334.749,15.259,335.18,14.112 M339.573,20.002
		c0.136,0.67,0.368,1.271,0.697,1.805c0.329,0.534,0.767,0.959,1.312,1.277c0.545,0.317,1.226,0.477,2.043,0.477
		c0.816,0,1.503-0.16,2.06-0.477c0.556-0.318,0.998-0.743,1.328-1.277c0.328-0.534,0.562-1.135,0.697-1.805
		c0.137-0.669,0.204-1.355,0.204-2.06c0-0.703-0.067-1.395-0.204-2.077c-0.136-0.68-0.369-1.282-0.697-1.803
		c-0.33-0.523-0.772-0.949-1.328-1.278c-0.557-0.329-1.243-0.493-2.06-0.493c-0.817,0-1.498,0.164-2.043,0.493
		s-0.982,0.755-1.312,1.278c-0.329,0.521-0.562,1.123-0.697,1.803c-0.137,0.682-0.204,1.374-0.204,2.077
		C339.369,18.647,339.436,19.333,339.573,20.002"/>
	<path fill="#0097D8" d="M104.685,54.781c0.294,0.567,0.686,1.027,1.174,1.379c0.488,0.353,1.061,0.612,1.72,0.783
		c0.658,0.17,1.339,0.255,2.043,0.255c0.477,0,0.987-0.039,1.532-0.119c0.545-0.078,1.055-0.232,1.532-0.459
		c0.477-0.228,0.874-0.539,1.191-0.937c0.318-0.397,0.477-0.902,0.477-1.515c0-0.658-0.21-1.192-0.629-1.601
		c-0.421-0.409-0.971-0.749-1.652-1.021c-0.681-0.273-1.453-0.512-2.315-0.715c-0.863-0.205-1.737-0.433-2.622-0.683
		c-0.908-0.226-1.793-0.505-2.656-0.834c-0.862-0.328-1.634-0.754-2.315-1.276c-0.681-0.523-1.231-1.175-1.651-1.958
		s-0.63-1.731-0.63-2.843c0-1.248,0.267-2.332,0.801-3.252c0.532-0.919,1.23-1.685,2.093-2.298c0.863-0.613,1.839-1.066,2.928-1.362
		c1.09-0.294,2.179-0.442,3.269-0.442c1.271,0,2.491,0.142,3.66,0.425c1.169,0.284,2.207,0.744,3.115,1.379
		c0.908,0.636,1.628,1.447,2.162,2.435c0.533,0.987,0.8,2.184,0.8,3.592h-5.175c-0.046-0.727-0.199-1.329-0.459-1.805
		c-0.262-0.477-0.608-0.851-1.039-1.123c-0.432-0.273-0.925-0.465-1.481-0.579c-0.557-0.114-1.164-0.17-1.822-0.17
		c-0.431,0-0.863,0.046-1.293,0.136c-0.432,0.09-0.823,0.25-1.175,0.476c-0.352,0.228-0.642,0.511-0.868,0.852
		c-0.227,0.34-0.34,0.771-0.34,1.294c0,0.476,0.09,0.862,0.272,1.157c0.181,0.295,0.539,0.567,1.072,0.817
		c0.533,0.25,1.271,0.499,2.213,0.749s2.173,0.568,3.694,0.953c0.454,0.091,1.084,0.256,1.89,0.495
		c0.805,0.238,1.606,0.618,2.401,1.14c0.793,0.522,1.48,1.22,2.059,2.094s0.868,1.991,0.868,3.354c0,1.113-0.216,2.145-0.647,3.098
		c-0.431,0.954-1.072,1.776-1.923,2.469s-1.907,1.231-3.167,1.617c-1.259,0.387-2.718,0.579-4.375,0.579
		c-1.339,0-2.638-0.165-3.898-0.494c-1.26-0.328-2.372-0.845-3.336-1.549c-0.966-0.703-1.732-1.6-2.299-2.688
		c-0.568-1.091-0.84-2.385-0.817-3.883h5.175C104.242,53.521,104.39,54.214,104.685,54.781"/>
	<path fill="#0097D8" d="M121.981,48.585c0.067-1.135,0.351-2.077,0.851-2.826c0.499-0.749,1.134-1.351,1.906-1.805
		c0.772-0.454,1.64-0.777,2.605-0.971c0.964-0.192,1.935-0.289,2.911-0.289c0.885,0,1.782,0.063,2.69,0.188
		c0.907,0.125,1.736,0.369,2.485,0.731c0.749,0.363,1.362,0.868,1.839,1.516c0.476,0.646,0.714,1.504,0.714,2.57v9.159
		c0,0.794,0.046,1.555,0.137,2.281c0.09,0.727,0.249,1.271,0.476,1.634h-4.902c-0.091-0.272-0.165-0.55-0.222-0.834
		c-0.056-0.284-0.096-0.573-0.119-0.868c-0.772,0.795-1.68,1.352-2.724,1.668c-1.044,0.317-2.11,0.478-3.2,0.478
		c-0.84,0-1.623-0.103-2.349-0.308c-0.727-0.204-1.362-0.521-1.907-0.953c-0.545-0.431-0.97-0.976-1.276-1.634
		c-0.307-0.658-0.46-1.44-0.46-2.35c0-0.998,0.175-1.821,0.527-2.468c0.352-0.647,0.806-1.162,1.362-1.55
		c0.556-0.386,1.192-0.675,1.907-0.867c0.715-0.193,1.436-0.347,2.162-0.46c0.726-0.114,1.441-0.204,2.145-0.272
		c0.703-0.068,1.328-0.171,1.873-0.306c0.544-0.138,0.975-0.335,1.293-0.597c0.318-0.261,0.465-0.642,0.443-1.141
		c0-0.522-0.085-0.936-0.255-1.243c-0.171-0.306-0.398-0.545-0.682-0.715c-0.283-0.17-0.612-0.283-0.987-0.341
		c-0.374-0.055-0.778-0.084-1.208-0.084c-0.954,0-1.703,0.204-2.247,0.613c-0.545,0.408-0.863,1.089-0.954,2.043H121.981z
		 M133.148,52.159c-0.204,0.184-0.459,0.324-0.766,0.426c-0.307,0.103-0.636,0.188-0.987,0.257c-0.352,0.066-0.721,0.125-1.107,0.17
		c-0.386,0.045-0.772,0.102-1.158,0.169c-0.363,0.068-0.72,0.16-1.072,0.272c-0.352,0.114-0.659,0.269-0.919,0.46
		c-0.262,0.193-0.471,0.438-0.63,0.731c-0.159,0.296-0.238,0.67-0.238,1.124c0,0.432,0.079,0.795,0.238,1.09
		c0.159,0.295,0.374,0.528,0.647,0.697c0.272,0.171,0.59,0.291,0.953,0.357c0.363,0.068,0.737,0.103,1.123,0.103
		c0.954,0,1.691-0.158,2.213-0.477c0.522-0.317,0.908-0.697,1.158-1.141c0.25-0.442,0.403-0.89,0.46-1.344
		c0.056-0.455,0.085-0.818,0.085-1.09V52.159z"/>
	<path fill="#0097D8" d="M146.324,43.171v2.451h0.102c0.613-1.021,1.407-1.764,2.383-2.229c0.976-0.465,1.975-0.699,2.996-0.699
		c1.294,0,2.355,0.176,3.184,0.528c0.828,0.352,1.481,0.841,1.958,1.465c0.476,0.624,0.811,1.384,1.004,2.281
		c0.192,0.896,0.29,1.89,0.29,2.978v10.828h-4.835v-9.942c0-1.453-0.228-2.537-0.681-3.252c-0.455-0.715-1.26-1.072-2.418-1.072
		c-1.316,0-2.27,0.392-2.859,1.175c-0.591,0.783-0.886,2.071-0.886,3.864v9.228h-4.835V43.171H146.324z"/>
	<path fill="#0097D8" d="M187.487,42.95c-0.318-0.511-0.715-0.959-1.192-1.346c-0.477-0.385-1.016-0.685-1.617-0.901
		c-0.602-0.216-1.231-0.324-1.89-0.324c-1.203,0-2.225,0.233-3.063,0.698c-0.841,0.466-1.521,1.09-2.043,1.873
		c-0.522,0.782-0.902,1.674-1.141,2.672c-0.238,0.999-0.357,2.032-0.357,3.099c0,1.021,0.119,2.014,0.357,2.979
		c0.238,0.966,0.618,1.833,1.141,2.604c0.521,0.771,1.202,1.391,2.043,1.855c0.839,0.467,1.86,0.698,3.063,0.698
		c1.635,0,2.911-0.499,3.831-1.498c0.919-0.999,1.48-2.314,1.685-3.95h5.176c-0.137,1.521-0.488,2.895-1.055,4.12
		c-0.568,1.227-1.317,2.271-2.248,3.132c-0.931,0.863-2.021,1.521-3.269,1.976c-1.249,0.454-2.622,0.681-4.12,0.681
		c-1.861,0-3.535-0.323-5.021-0.971c-1.487-0.646-2.741-1.537-3.763-2.672c-1.021-1.135-1.804-2.468-2.349-4
		c-0.545-1.533-0.817-3.185-0.817-4.954c0-1.816,0.272-3.501,0.817-5.056s1.328-2.911,2.349-4.069
		c1.021-1.158,2.275-2.065,3.763-2.724c1.486-0.658,3.16-0.987,5.021-0.987c1.34,0,2.605,0.193,3.797,0.579
		c1.191,0.385,2.258,0.948,3.2,1.685c0.941,0.738,1.72,1.652,2.332,2.74c0.613,1.09,0.999,2.338,1.158,3.746h-5.176
		C188.008,44.022,187.804,43.461,187.487,42.95"/>
	<path fill="#0097D8" d="M196.407,48.585c0.067-1.135,0.352-2.077,0.851-2.826s1.135-1.351,1.907-1.805
		c0.771-0.454,1.639-0.777,2.604-0.971c0.964-0.192,1.935-0.289,2.91-0.289c0.886,0,1.782,0.063,2.69,0.188
		c0.907,0.125,1.736,0.369,2.485,0.731c0.749,0.363,1.361,0.868,1.839,1.516c0.477,0.646,0.715,1.504,0.715,2.57v9.159
		c0,0.794,0.045,1.555,0.136,2.281s0.25,1.271,0.477,1.634h-4.902c-0.091-0.272-0.165-0.55-0.222-0.834s-0.097-0.573-0.119-0.868
		c-0.771,0.795-1.68,1.352-2.724,1.668c-1.044,0.317-2.111,0.478-3.2,0.478c-0.84,0-1.624-0.103-2.35-0.308
		c-0.727-0.204-1.361-0.521-1.906-0.953c-0.545-0.431-0.971-0.976-1.276-1.634c-0.307-0.658-0.46-1.44-0.46-2.35
		c0-0.998,0.176-1.821,0.527-2.468c0.352-0.647,0.806-1.162,1.362-1.55c0.556-0.386,1.191-0.675,1.906-0.867
		c0.715-0.193,1.437-0.347,2.162-0.46c0.726-0.114,1.442-0.204,2.145-0.272c0.704-0.068,1.328-0.171,1.873-0.306
		c0.545-0.138,0.976-0.335,1.294-0.597c0.317-0.261,0.465-0.642,0.442-1.141c0-0.522-0.085-0.936-0.256-1.243
		c-0.17-0.306-0.396-0.545-0.681-0.715s-0.612-0.283-0.987-0.341c-0.374-0.055-0.777-0.084-1.209-0.084
		c-0.953,0-1.702,0.204-2.247,0.613c-0.544,0.408-0.862,1.089-0.953,2.043H196.407z M207.574,52.159
		c-0.204,0.184-0.46,0.324-0.766,0.426c-0.307,0.103-0.636,0.188-0.988,0.257c-0.351,0.066-0.721,0.125-1.106,0.17
		s-0.771,0.102-1.157,0.169c-0.363,0.068-0.721,0.16-1.072,0.272c-0.353,0.114-0.659,0.269-0.92,0.46
		c-0.261,0.193-0.47,0.438-0.63,0.731c-0.158,0.296-0.237,0.67-0.237,1.124c0,0.432,0.079,0.795,0.237,1.09
		c0.16,0.295,0.375,0.528,0.647,0.697c0.272,0.171,0.59,0.291,0.953,0.357c0.363,0.068,0.737,0.103,1.124,0.103
		c0.953,0,1.69-0.158,2.213-0.477c0.521-0.317,0.907-0.697,1.157-1.141c0.25-0.442,0.403-0.89,0.46-1.344
		c0.057-0.455,0.085-0.818,0.085-1.09V52.159z"/>
	<path fill="#0097D8" d="M220.75,43.171v3.269h0.068c0.227-0.545,0.534-1.05,0.919-1.515c0.386-0.465,0.829-0.862,1.328-1.192
		c0.499-0.329,1.032-0.584,1.601-0.766c0.566-0.182,1.157-0.273,1.771-0.273c0.316,0,0.668,0.057,1.054,0.17v4.494
		c-0.227-0.044-0.499-0.084-0.816-0.119c-0.318-0.033-0.625-0.05-0.92-0.05c-0.885,0-1.634,0.148-2.247,0.442
		c-0.611,0.296-1.106,0.698-1.48,1.209c-0.375,0.511-0.642,1.106-0.8,1.787c-0.159,0.683-0.239,1.419-0.239,2.214v7.934h-4.834
		V43.171H220.75z"/>
	<rect x="229.534" y="36.463" fill="#0097D8" width="4.835" height="24.31"/>
	<path fill="#0097D8" d="M238.284,48.159c0.432-1.146,1.044-2.122,1.839-2.928c0.794-0.805,1.747-1.43,2.86-1.872
		c1.111-0.443,2.36-0.664,3.745-0.664c1.384,0,2.639,0.221,3.761,0.664c1.125,0.442,2.084,1.067,2.878,1.872
		c0.794,0.806,1.407,1.782,1.839,2.928c0.431,1.146,0.646,2.423,0.646,3.83c0,1.408-0.216,2.679-0.646,3.813
		c-0.432,1.136-1.045,2.105-1.839,2.911c-0.794,0.807-1.753,1.425-2.878,1.856c-1.122,0.43-2.377,0.646-3.761,0.646
		c-1.385,0-2.634-0.216-3.745-0.646c-1.113-0.432-2.066-1.05-2.86-1.856c-0.795-0.806-1.407-1.775-1.839-2.911
		c-0.432-1.135-0.646-2.405-0.646-3.813C237.637,50.582,237.852,49.305,238.284,48.159 M242.676,54.048
		c0.136,0.67,0.368,1.271,0.697,1.806c0.329,0.533,0.767,0.959,1.312,1.276s1.226,0.478,2.043,0.478c0.816,0,1.503-0.16,2.06-0.478
		c0.556-0.317,0.998-0.743,1.328-1.276c0.328-0.534,0.562-1.136,0.697-1.806c0.137-0.669,0.204-1.354,0.204-2.06
		c0-0.703-0.067-1.396-0.204-2.077c-0.136-0.68-0.369-1.282-0.697-1.803c-0.33-0.523-0.772-0.949-1.328-1.278
		c-0.557-0.329-1.243-0.493-2.06-0.493c-0.817,0-1.498,0.164-2.043,0.493s-0.982,0.755-1.312,1.278
		c-0.329,0.521-0.562,1.123-0.697,1.803c-0.137,0.682-0.204,1.374-0.204,2.077C242.472,52.694,242.54,53.379,242.676,54.048"/>
	<path fill="#0097D8" d="M263.052,56.398c0.216,0.374,0.493,0.682,0.834,0.919c0.341,0.238,0.732,0.415,1.175,0.528
		c0.442,0.114,0.902,0.17,1.379,0.17c0.341,0,0.698-0.039,1.072-0.119c0.375-0.079,0.715-0.204,1.021-0.375
		c0.307-0.17,0.562-0.396,0.767-0.681c0.204-0.283,0.306-0.64,0.306-1.072c0-0.726-0.482-1.27-1.446-1.635
		c-0.966-0.362-2.311-0.725-4.035-1.089c-0.704-0.159-1.391-0.345-2.06-0.562c-0.67-0.216-1.266-0.499-1.787-0.852
		c-0.522-0.352-0.942-0.794-1.26-1.328c-0.318-0.533-0.478-1.185-0.478-1.957c0-1.135,0.222-2.065,0.664-2.792
		c0.443-0.726,1.027-1.3,1.754-1.719c0.726-0.42,1.543-0.715,2.451-0.885c0.907-0.171,1.839-0.256,2.792-0.256
		s1.878,0.091,2.774,0.272c0.896,0.182,1.697,0.489,2.4,0.919c0.703,0.432,1.288,1.005,1.754,1.72
		c0.465,0.715,0.743,1.617,0.834,2.707h-4.597c-0.067-0.931-0.42-1.56-1.056-1.89c-0.636-0.329-1.385-0.494-2.247-0.494
		c-0.271,0-0.567,0.018-0.885,0.051c-0.318,0.034-0.607,0.108-0.868,0.222c-0.262,0.114-0.482,0.278-0.664,0.494
		c-0.182,0.216-0.272,0.505-0.272,0.868c0,0.431,0.158,0.783,0.477,1.055c0.317,0.272,0.732,0.494,1.243,0.664
		c0.511,0.172,1.095,0.324,1.753,0.461c0.658,0.135,1.328,0.283,2.009,0.441c0.703,0.159,1.391,0.354,2.061,0.579
		c0.669,0.229,1.265,0.528,1.787,0.903c0.521,0.374,0.941,0.839,1.26,1.395c0.316,0.558,0.477,1.243,0.477,2.062
		c0,1.156-0.233,2.128-0.698,2.909c-0.465,0.783-1.072,1.413-1.821,1.89s-1.606,0.812-2.57,1.005
		c-0.965,0.193-1.946,0.289-2.945,0.289c-1.021,0-2.021-0.102-2.996-0.306c-0.977-0.204-1.845-0.544-2.604-1.021
		c-0.761-0.477-1.385-1.106-1.873-1.889c-0.488-0.784-0.755-1.766-0.8-2.946h4.597C262.729,55.577,262.836,56.023,263.052,56.398"/>
</g>
</svg>
