<?xml version="1.0" encoding="utf-8"?>
<!-- Generator: Adobe Illustrator 16.0.0, SVG Export Plug-In . SVG Version: 6.00 Build 0)  -->
<!DOCTYPE svg PUBLIC "-//W3C//DTD SVG 1.1//EN" "http://www.w3.org/Graphics/SVG/1.1/DTD/svg11.dtd">
<svg version="1.1" id="Capa_1" xmlns="http://www.w3.org/2000/svg" xmlns:xlink="http://www.w3.org/1999/xlink" x="0px" y="0px"
	 width="232.961px" height="44px" viewBox="0 0 232.961 37.421" enable-background="new 0 0 232.961 37.421"
	 xml:space="preserve">
<g>
	<path fill="#E63027" d="M0.004,34.522c-0.082,1.805,1.207,2.594,2.96,2.594c2.626,0,2.833-1.609,2.833-2.117
		c0-1.213-0.871-1.67-1.92-1.951L2.07,32.601c-0.602-0.143-1.119-0.434-1.119-1.131c0-1.1,0.895-1.473,1.859-1.473
		c1.047,0,1.979,0.572,2.021,1.699h0.705c0.013-1.512-1.276-2.301-2.738-2.301c-2.088,0-2.555,1.357-2.555,2.086
		c0,1.15,0.801,1.566,1.672,1.785l1.65,0.404c0.686,0.166,1.525,0.496,1.525,1.338c0,1.08-1.184,1.504-1.96,1.504
		c-1.351,0-2.45-0.467-2.421-1.99H0.004"/>
	<path fill-rule="evenodd" clip-rule="evenodd" fill="#E63027" d="M7.156,33.247c0.021-0.875,0.623-1.248,1.432-1.248
		c0.768,0,1.402,0.215,1.402,1.102c0,0.592-0.302,0.664-0.841,0.723c-1.412,0.17-2.874,0.221-2.874,1.727
		c0,1.078,0.809,1.566,1.795,1.566c1.027,0,1.494-0.395,1.95-1.09h0.021c0,0.561,0.104,0.934,0.768,0.934
		c0.179,0,0.28-0.012,0.426-0.039V36.37c-0.051,0.02-0.134,0.041-0.206,0.041c-0.259,0-0.385-0.145-0.385-0.396v-2.842
		c0-1.432-1.028-1.723-1.972-1.723c-1.225,0-2.108,0.539-2.17,1.797H7.156 M9.99,34.886c0.01,1.047-0.872,1.682-1.868,1.682
		c-0.614,0-1.194-0.408-1.194-1.061c0-1.047,1.381-1.037,2.49-1.234c0.178-0.031,0.468-0.084,0.551-0.24H9.99V34.886z"/>
	<rect x="11.732" y="29.552" fill="#E63027" width="0.654" height="7.408"/>
	<path fill="#E63027" d="M17.752,31.604h-0.654v2.812c0,1.09-0.489,2.146-1.609,2.146c-1.036,0-1.402-0.506-1.432-1.473v-3.486
		h-0.652v3.477c0,1.246,0.529,2.035,1.877,2.035c0.799,0,1.506-0.408,1.847-1.119h0.022v0.965h0.602V31.604"/>
	<path fill-rule="evenodd" clip-rule="evenodd" fill="#E63027" d="M23.471,29.565h-0.654v3.074h-0.02
		c-0.282-0.771-1.061-1.174-1.858-1.174c-1.631,0-2.409,1.314-2.409,2.832s0.778,2.834,2.409,2.834c0.778,0,1.629-0.479,1.909-1.172
		h0.02v1.016h0.604V29.565 M19.185,34.298c0-1.111,0.507-2.283,1.754-2.283c1.39,0,1.878,1.172,1.878,2.283
		s-0.488,2.285-1.878,2.285C19.691,36.583,19.185,35.409,19.185,34.298"/>
	<polygon fill="#0097D8" points="24.592,36.976 25.297,36.976 25.297,30.571 25.318,30.571 27.859,36.976 28.524,36.976 
		31.057,30.571 31.078,30.571 31.078,36.976 31.784,36.976 31.784,29.565 30.748,29.565 28.193,36.063 25.63,29.565 24.592,29.565 	
		"/>
	<path fill-rule="evenodd" clip-rule="evenodd" fill="#0097D8" d="M33.494,33.263c0.02-0.875,0.622-1.248,1.432-1.248
		c0.77,0,1.4,0.219,1.4,1.1c0,0.594-0.301,0.668-0.84,0.729c-1.412,0.166-2.876,0.215-2.876,1.723c0,1.08,0.812,1.566,1.796,1.566
		c1.028,0,1.495-0.395,1.951-1.092h0.022c0,0.562,0.104,0.936,0.768,0.936c0.177,0,0.278-0.012,0.426-0.039v-0.549
		c-0.054,0.016-0.136,0.037-0.206,0.037c-0.262,0-0.385-0.145-0.385-0.395v-2.842c0-1.434-1.027-1.723-1.975-1.723
		c-1.224,0-2.104,0.537-2.168,1.797H33.494 M36.326,34.901c0.011,1.047-0.871,1.682-1.867,1.682c-0.612,0-1.193-0.408-1.193-1.062
		c0-1.049,1.379-1.035,2.49-1.236c0.178-0.027,0.469-0.078,0.551-0.236h0.02V34.901z"/>
	<path fill-rule="evenodd" clip-rule="evenodd" fill="#0097D8" d="M42.772,29.565h-0.653v3.074h-0.021
		c-0.282-0.771-1.059-1.174-1.857-1.174c-1.632,0-2.41,1.314-2.41,2.832s0.778,2.834,2.41,2.834c0.776,0,1.628-0.479,1.909-1.172
		h0.021v1.016h0.601V29.565 M38.486,34.298c0-1.111,0.509-2.283,1.755-2.283c1.389,0,1.878,1.172,1.878,2.283
		s-0.489,2.285-1.878,2.285C38.995,36.583,38.486,35.409,38.486,34.298"/>
	<path fill="#0097D8" d="M43.79,36.976h0.653v-2.854c0-1.109,0.811-1.984,1.994-1.918v-0.656c-0.965-0.041-1.693,0.467-2.026,1.328
		h-0.019v-1.254H43.79V36.976"/>
	<path fill-rule="evenodd" clip-rule="evenodd" fill="#0097D8" d="M46.841,30.614h0.654v-1.049h-0.654V30.614z M46.841,36.976h0.654
		v-5.354h-0.654V36.976z"/>
	<path fill-rule="evenodd" clip-rule="evenodd" fill="#0097D8" d="M53.234,29.565H52.58v3.074h-0.021
		c-0.28-0.771-1.058-1.174-1.857-1.174c-1.63,0-2.408,1.314-2.408,2.832s0.778,2.834,2.408,2.834c0.778,0,1.629-0.479,1.908-1.172
		h0.021v1.016h0.604V29.565 M48.947,34.298c0-1.111,0.508-2.283,1.754-2.283c1.391,0,1.879,1.172,1.879,2.283
		s-0.488,2.285-1.879,2.285C49.455,36.583,48.947,35.409,48.947,34.298"/>
	<rect x="27.664" y="0.5" fill="#E63027" stroke="#FFFFFF" width="25.586" height="25.241"/>
	<polygon fill="#FFFFFF" points="32.568,8.963 32.053,10.548 30.367,10.569 31.736,11.529 31.242,13.079 32.568,12.129 
		33.914,13.062 33.398,11.511 34.744,10.528 33.089,10.548 	"/>
	<polygon fill="#FFFFFF" points="37.87,8.963 37.357,10.548 35.673,10.569 37.038,11.529 36.546,13.079 37.87,12.129 39.215,13.062 
		38.703,11.511 40.049,10.528 38.393,10.548 	"/>
	<polygon fill="#FFFFFF" points="43.197,8.963 42.685,10.548 40.998,10.569 42.367,11.529 41.873,13.079 43.197,12.129 
		44.543,13.062 44.029,11.511 45.375,10.528 43.723,10.548 	"/>
	<polygon fill="#FFFFFF" points="40.519,12.577 40.005,14.162 38.317,14.182 39.688,15.145 39.188,16.693 40.519,15.743 
		41.864,16.676 41.351,15.125 42.694,14.143 41.04,14.162 	"/>
	<polygon fill="#FFFFFF" points="35.205,12.577 34.689,14.162 33.008,14.182 34.372,15.145 33.879,16.693 35.205,15.743 
		36.549,16.676 36.035,15.125 37.38,14.143 35.727,14.162 	"/>
	<polygon fill="#FFFFFF" points="45.854,12.577 45.34,14.162 43.656,14.182 45.021,15.145 44.527,16.693 45.854,15.743 
		47.199,16.676 46.687,15.125 48.031,14.143 46.378,14.162 	"/>
	<polygon fill="#FFFFFF" points="48.52,8.963 48.002,10.548 46.321,10.569 47.686,11.529 47.193,13.079 48.52,12.129 49.863,13.062 
		49.348,11.511 50.694,10.528 49.043,10.548 	"/>
	<polygon fill="#0097D8" points="19.52,25.741 6.054,25.214 5.755,20.474 0.111,19.869 1.617,7.158 5.529,6.854 5.604,0.537 
		11.695,0.688 12.146,7.532 3.572,11.296 12.977,13.704 14.105,23.253 19.145,14.982 26.14,16.636 26.441,20.173 19.822,20.622 	"/>
	<polygon fill="#0097D8" points="13.934,0.76 17.871,5.068 19.357,4.328 19.061,0.837 	"/>
	<polygon fill="#0097D8" points="21.885,9.455 26.043,14.215 26.119,7.076 23.814,6.705 	"/>
	<g>
		<path fill="#0097D8" d="M61.799,0.612h2.187V5.58h5.685V0.612h2.187v12.489h-2.187V7.469h-5.685v5.633h-2.187V0.612z"/>
		<path fill="#0097D8" d="M78.347,13.347c-0.723,0-1.368-0.12-1.933-0.358c-0.565-0.239-1.043-0.569-1.434-0.988
			c-0.391-0.42-0.688-0.922-0.892-1.505c-0.205-0.583-0.306-1.225-0.306-1.924c0-0.688,0.102-1.323,0.306-1.907
			c0.204-0.583,0.501-1.084,0.892-1.504c0.391-0.42,0.869-0.749,1.434-0.988s1.21-0.358,1.933-0.358
			c0.723,0,1.367,0.119,1.933,0.358c0.565,0.239,1.043,0.568,1.434,0.988s0.688,0.921,0.892,1.504
			c0.204,0.584,0.306,1.219,0.306,1.907c0,0.699-0.102,1.341-0.306,1.924S82.105,11.58,81.714,12
			c-0.391,0.419-0.869,0.749-1.434,0.988C79.714,13.227,79.07,13.347,78.347,13.347z M78.347,11.772c0.443,0,0.828-0.094,1.154-0.28
			s0.595-0.432,0.805-0.734c0.21-0.304,0.364-0.645,0.464-1.023c0.099-0.379,0.148-0.767,0.148-1.163c0-0.385-0.05-0.77-0.148-1.155
			c-0.1-0.385-0.254-0.726-0.464-1.022c-0.21-0.298-0.478-0.54-0.805-0.727s-0.711-0.279-1.154-0.279
			c-0.443,0-0.828,0.093-1.155,0.279c-0.326,0.187-0.595,0.429-0.804,0.727c-0.21,0.297-0.365,0.638-0.464,1.022
			c-0.099,0.386-0.148,0.771-0.148,1.155c0,0.396,0.049,0.784,0.148,1.163s0.254,0.72,0.464,1.023
			c0.209,0.303,0.478,0.548,0.804,0.734C77.519,11.679,77.904,11.772,78.347,11.772z"/>
		<path fill="#0097D8" d="M86.078,10.198c0.059,0.583,0.28,0.991,0.665,1.224c0.385,0.233,0.845,0.351,1.382,0.351
			c0.187,0,0.399-0.015,0.638-0.044c0.239-0.029,0.464-0.085,0.674-0.166c0.21-0.082,0.382-0.201,0.516-0.358
			c0.134-0.158,0.195-0.365,0.184-0.621c-0.012-0.257-0.105-0.467-0.28-0.63c-0.175-0.163-0.4-0.295-0.674-0.394
			c-0.274-0.1-0.586-0.184-0.936-0.254c-0.35-0.07-0.706-0.146-1.067-0.228c-0.373-0.081-0.732-0.181-1.076-0.297
			c-0.344-0.117-0.653-0.274-0.927-0.473s-0.493-0.452-0.656-0.761c-0.164-0.309-0.245-0.691-0.245-1.146
			c0-0.49,0.12-0.901,0.359-1.233c0.239-0.333,0.542-0.601,0.91-0.805c0.367-0.204,0.775-0.347,1.224-0.429
			c0.449-0.081,0.877-0.122,1.286-0.122c0.466,0,0.912,0.05,1.338,0.148s0.811,0.26,1.155,0.48c0.344,0.222,0.629,0.511,0.857,0.866
			s0.37,0.784,0.429,1.286h-2.082c-0.094-0.479-0.312-0.799-0.656-0.963c-0.344-0.163-0.738-0.244-1.181-0.244
			c-0.14,0-0.306,0.012-0.499,0.034c-0.192,0.024-0.374,0.067-0.542,0.132s-0.312,0.157-0.428,0.279
			c-0.117,0.123-0.175,0.283-0.175,0.481c0,0.245,0.084,0.443,0.254,0.595c0.169,0.151,0.391,0.277,0.665,0.376
			c0.274,0.1,0.586,0.184,0.936,0.254c0.35,0.07,0.711,0.146,1.084,0.228c0.361,0.081,0.717,0.181,1.067,0.297
			c0.35,0.117,0.662,0.274,0.936,0.473c0.274,0.198,0.496,0.449,0.665,0.752c0.169,0.304,0.254,0.677,0.254,1.12
			c0,0.536-0.123,0.991-0.368,1.364c-0.245,0.373-0.562,0.676-0.953,0.909c-0.391,0.233-0.825,0.402-1.303,0.508
			c-0.479,0.104-0.951,0.157-1.417,0.157c-0.571,0-1.099-0.064-1.583-0.192c-0.484-0.129-0.904-0.324-1.259-0.586
			c-0.356-0.263-0.636-0.589-0.84-0.979s-0.312-0.854-0.324-1.391H86.078z"/>
		<path fill="#0097D8" d="M93.705,4.058h1.889v1.225h0.035c0.28-0.524,0.67-0.9,1.172-1.128s1.043-0.341,1.627-0.341
			c0.711,0,1.332,0.125,1.863,0.376c0.53,0.251,0.971,0.595,1.321,1.032c0.35,0.437,0.612,0.947,0.787,1.53s0.262,1.207,0.262,1.871
			c0,0.607-0.079,1.196-0.236,1.768c-0.158,0.571-0.397,1.075-0.717,1.513c-0.321,0.438-0.726,0.787-1.216,1.05
			c-0.49,0.262-1.067,0.394-1.732,0.394c-0.292,0-0.583-0.026-0.875-0.079s-0.571-0.137-0.84-0.254
			c-0.268-0.116-0.516-0.265-0.743-0.445s-0.417-0.394-0.568-0.639h-0.035v4.513h-1.994V4.058z M100.667,8.589
			c0-0.408-0.052-0.805-0.157-1.189s-0.263-0.727-0.473-1.023c-0.209-0.298-0.472-0.536-0.787-0.718
			c-0.314-0.181-0.676-0.271-1.084-0.271c-0.839,0-1.472,0.291-1.898,0.874c-0.426,0.584-0.638,1.359-0.638,2.327
			c0,0.454,0.055,0.877,0.166,1.268s0.277,0.727,0.499,1.006c0.221,0.28,0.487,0.502,0.796,0.665s0.667,0.245,1.076,0.245
			c0.455,0,0.84-0.094,1.155-0.28c0.314-0.187,0.574-0.429,0.778-0.726c0.204-0.298,0.35-0.636,0.437-1.015
			C100.624,9.373,100.667,8.985,100.667,8.589z"/>
		<path fill="#0097D8" d="M104.393,0.612h1.994v1.889h-1.994V0.612z M104.393,4.058h1.994v9.044h-1.994V4.058z"/>
		<path fill="#0097D8" d="M107.646,4.058h1.504V1.347h1.994v2.711h1.801v1.487h-1.801v4.828c0,0.21,0.008,0.391,0.026,0.542
			s0.058,0.28,0.123,0.385c0.064,0.105,0.16,0.184,0.289,0.236s0.303,0.078,0.525,0.078c0.14,0,0.28-0.002,0.42-0.009
			c0.14-0.005,0.28-0.025,0.419-0.061v1.539c-0.222,0.023-0.437,0.047-0.647,0.07s-0.426,0.035-0.647,0.035
			c-0.524,0-0.947-0.05-1.268-0.149c-0.321-0.099-0.571-0.244-0.752-0.438c-0.181-0.192-0.304-0.434-0.368-0.726
			c-0.064-0.291-0.102-0.624-0.113-0.997V5.545h-1.504V4.058z"/>
		<path fill="#0097D8" d="M121.956,11.09c0,0.245,0.032,0.42,0.096,0.524c0.064,0.105,0.189,0.158,0.376,0.158
			c0.058,0,0.128,0,0.21,0c0.082,0,0.175-0.012,0.28-0.035v1.382c-0.07,0.023-0.161,0.05-0.271,0.079
			c-0.111,0.028-0.225,0.055-0.341,0.078c-0.117,0.023-0.233,0.041-0.35,0.053c-0.117,0.012-0.216,0.018-0.297,0.018
			c-0.409,0-0.747-0.082-1.015-0.245c-0.269-0.163-0.443-0.449-0.525-0.857c-0.396,0.385-0.883,0.665-1.46,0.84
			c-0.578,0.175-1.134,0.263-1.671,0.263c-0.408,0-0.799-0.056-1.172-0.166c-0.374-0.111-0.703-0.274-0.988-0.49
			c-0.286-0.216-0.513-0.489-0.682-0.822c-0.169-0.332-0.254-0.72-0.254-1.163c0-0.56,0.102-1.015,0.306-1.364
			s0.473-0.624,0.805-0.822c0.333-0.198,0.706-0.341,1.12-0.429c0.414-0.087,0.831-0.154,1.25-0.201
			c0.361-0.07,0.706-0.119,1.032-0.148c0.326-0.029,0.615-0.079,0.866-0.148c0.251-0.07,0.449-0.178,0.595-0.324
			c0.146-0.146,0.219-0.364,0.219-0.655c0-0.257-0.061-0.467-0.184-0.63s-0.274-0.289-0.455-0.376
			c-0.181-0.088-0.382-0.146-0.604-0.176c-0.222-0.028-0.432-0.043-0.63-0.043c-0.56,0-1.021,0.116-1.382,0.35
			c-0.362,0.233-0.566,0.595-0.612,1.084h-1.994c0.035-0.583,0.175-1.066,0.42-1.451c0.245-0.385,0.557-0.694,0.936-0.928
			c0.379-0.232,0.808-0.396,1.286-0.489c0.478-0.094,0.968-0.14,1.469-0.14c0.443,0,0.88,0.046,1.312,0.14
			c0.431,0.094,0.819,0.245,1.163,0.455c0.344,0.21,0.621,0.48,0.831,0.813c0.21,0.332,0.315,0.737,0.315,1.215V11.09z
			 M119.961,8.571c-0.304,0.198-0.677,0.317-1.12,0.358c-0.443,0.041-0.887,0.103-1.33,0.184c-0.21,0.035-0.414,0.085-0.612,0.148
			c-0.198,0.064-0.373,0.152-0.525,0.263c-0.151,0.111-0.271,0.257-0.358,0.438s-0.131,0.399-0.131,0.655
			c0,0.222,0.064,0.409,0.192,0.561s0.283,0.271,0.464,0.358c0.181,0.087,0.379,0.148,0.595,0.184s0.411,0.053,0.586,0.053
			c0.221,0,0.46-0.029,0.717-0.088c0.256-0.059,0.499-0.157,0.726-0.297c0.227-0.141,0.417-0.318,0.568-0.534
			c0.151-0.216,0.228-0.48,0.228-0.796V8.571z"/>
		<path fill="#0097D8" d="M124.159,0.612h1.994v12.489h-1.994V0.612z"/>
		<path fill="#0097D8" d="M133.325,0.612h2.187v7.276c0,0.42,0.021,0.846,0.062,1.277c0.041,0.432,0.157,0.819,0.35,1.163
			s0.484,0.627,0.875,0.849s0.942,0.332,1.653,0.332c0.711,0,1.262-0.11,1.653-0.332s0.682-0.505,0.875-0.849
			s0.309-0.731,0.35-1.163c0.041-0.432,0.061-0.857,0.061-1.277V0.612h2.187v7.994c0,0.805-0.123,1.504-0.367,2.099
			c-0.246,0.595-0.592,1.094-1.042,1.496c-0.449,0.401-0.988,0.702-1.618,0.9c-0.63,0.198-1.33,0.298-2.099,0.298
			c-0.77,0-1.47-0.1-2.099-0.298c-0.63-0.198-1.169-0.499-1.618-0.9c-0.449-0.402-0.796-0.901-1.041-1.496
			c-0.245-0.595-0.367-1.294-0.367-2.099V0.612z"/>
		<path fill="#0097D8" d="M145.814,4.058h1.89v1.33l0.034,0.034c0.304-0.501,0.7-0.895,1.189-1.181
			c0.49-0.285,1.033-0.428,1.627-0.428c0.992,0,1.773,0.256,2.344,0.77c0.572,0.513,0.857,1.282,0.857,2.309v6.21h-1.994V7.416
			c-0.023-0.711-0.174-1.227-0.455-1.548c-0.279-0.32-0.717-0.48-1.311-0.48c-0.339,0-0.643,0.061-0.91,0.184
			c-0.269,0.122-0.496,0.291-0.682,0.507c-0.188,0.216-0.333,0.47-0.438,0.761c-0.105,0.292-0.158,0.602-0.158,0.928v5.335h-1.994
			V4.058z"/>
		<path fill="#0097D8" d="M155.908,0.612h1.994v1.889h-1.994V0.612z M155.908,4.058h1.994v9.044h-1.994V4.058z"/>
		<path fill="#0097D8" d="M159.178,4.058h2.17l2.291,6.945h0.035l2.204-6.945h2.064l-3.236,9.044h-2.239L159.178,4.058z"/>
		<path fill="#0097D8" d="M170.706,9.096c0,0.35,0.05,0.688,0.148,1.015s0.248,0.612,0.446,0.857
			c0.198,0.244,0.449,0.44,0.752,0.586s0.665,0.219,1.084,0.219c0.584,0,1.053-0.126,1.408-0.376
			c0.356-0.251,0.621-0.627,0.797-1.129h1.889c-0.104,0.49-0.285,0.928-0.542,1.312s-0.565,0.708-0.927,0.971
			c-0.361,0.262-0.768,0.461-1.217,0.595c-0.448,0.134-0.918,0.201-1.408,0.201c-0.711,0-1.34-0.117-1.889-0.35
			c-0.548-0.233-1.012-0.561-1.391-0.98c-0.379-0.419-0.664-0.921-0.857-1.504c-0.191-0.583-0.288-1.225-0.288-1.924
			c0-0.642,0.103-1.251,0.306-1.828c0.204-0.577,0.496-1.085,0.875-1.522c0.379-0.437,0.836-0.784,1.373-1.04
			c0.537-0.257,1.143-0.385,1.819-0.385c0.712,0,1.35,0.148,1.915,0.445c0.566,0.298,1.035,0.691,1.408,1.181
			c0.373,0.49,0.645,1.053,0.814,1.688c0.168,0.636,0.212,1.292,0.131,1.968H170.706z M175.359,7.784
			c-0.023-0.315-0.091-0.618-0.201-0.91c-0.111-0.291-0.263-0.545-0.455-0.761s-0.426-0.391-0.699-0.524
			c-0.275-0.134-0.581-0.201-0.919-0.201c-0.35,0-0.667,0.061-0.953,0.184c-0.286,0.122-0.53,0.291-0.735,0.507
			c-0.203,0.216-0.367,0.47-0.489,0.761c-0.122,0.292-0.19,0.606-0.201,0.945H175.359z"/>
		<path fill="#0097D8" d="M178.875,4.058h1.872v1.75h0.034c0.059-0.245,0.172-0.484,0.342-0.718
			c0.169-0.233,0.373-0.446,0.612-0.639s0.505-0.347,0.796-0.463c0.291-0.117,0.589-0.175,0.893-0.175
			c0.232,0,0.393,0.006,0.48,0.017c0.088,0.013,0.178,0.024,0.271,0.035V5.79c-0.141-0.023-0.283-0.044-0.429-0.062
			s-0.288-0.026-0.429-0.026c-0.338,0-0.656,0.067-0.953,0.201c-0.298,0.135-0.557,0.332-0.779,0.595
			c-0.221,0.263-0.396,0.586-0.523,0.971c-0.129,0.385-0.193,0.828-0.193,1.33v4.303h-1.994V4.058z"/>
		<path fill="#0097D8" d="M186.537,10.198c0.059,0.583,0.279,0.991,0.664,1.224c0.385,0.233,0.846,0.351,1.383,0.351
			c0.186,0,0.398-0.015,0.638-0.044s0.464-0.085,0.674-0.166c0.21-0.082,0.382-0.201,0.517-0.358
			c0.133-0.158,0.194-0.365,0.184-0.621c-0.012-0.257-0.105-0.467-0.28-0.63s-0.399-0.295-0.674-0.394
			c-0.274-0.1-0.586-0.184-0.936-0.254c-0.351-0.07-0.706-0.146-1.067-0.228c-0.373-0.081-0.732-0.181-1.076-0.297
			c-0.344-0.117-0.652-0.274-0.927-0.473s-0.493-0.452-0.655-0.761c-0.164-0.309-0.246-0.691-0.246-1.146
			c0-0.49,0.12-0.901,0.359-1.233c0.238-0.333,0.542-0.601,0.91-0.805c0.367-0.204,0.775-0.347,1.224-0.429
			c0.449-0.081,0.878-0.122,1.286-0.122c0.467,0,0.912,0.05,1.338,0.148s0.811,0.26,1.154,0.48c0.344,0.222,0.63,0.511,0.857,0.866
			s0.37,0.784,0.429,1.286h-2.081c-0.094-0.479-0.312-0.799-0.656-0.963c-0.345-0.163-0.738-0.244-1.182-0.244
			c-0.14,0-0.306,0.012-0.498,0.034c-0.192,0.024-0.373,0.067-0.543,0.132c-0.168,0.064-0.312,0.157-0.428,0.279
			c-0.117,0.123-0.176,0.283-0.176,0.481c0,0.245,0.085,0.443,0.254,0.595c0.17,0.151,0.391,0.277,0.665,0.376
			c0.274,0.1,0.586,0.184,0.937,0.254c0.35,0.07,0.711,0.146,1.084,0.228c0.361,0.081,0.717,0.181,1.066,0.297
			c0.351,0.117,0.662,0.274,0.937,0.473s0.495,0.449,0.665,0.752c0.168,0.304,0.254,0.677,0.254,1.12
			c0,0.536-0.123,0.991-0.368,1.364s-0.562,0.676-0.953,0.909c-0.392,0.233-0.825,0.402-1.304,0.508
			c-0.479,0.104-0.95,0.157-1.416,0.157c-0.572,0-1.1-0.064-1.584-0.192c-0.483-0.129-0.903-0.324-1.259-0.586
			c-0.356-0.263-0.636-0.589-0.84-0.979s-0.312-0.854-0.323-1.391H186.537z"/>
		<path fill="#0097D8" d="M194.164,0.612h1.994v1.889h-1.994V0.612z M194.164,4.058h1.994v9.044h-1.994V4.058z"/>
		<path fill="#0097D8" d="M197.417,4.058h1.505V1.347h1.994v2.711h1.801v1.487h-1.801v4.828c0,0.21,0.008,0.391,0.025,0.542
			s0.059,0.28,0.123,0.385c0.063,0.105,0.16,0.184,0.288,0.236s0.304,0.078,0.524,0.078c0.141,0,0.28-0.002,0.42-0.009
			c0.141-0.005,0.28-0.025,0.42-0.061v1.539c-0.222,0.023-0.438,0.047-0.646,0.07c-0.211,0.023-0.426,0.035-0.648,0.035
			c-0.523,0-0.947-0.05-1.268-0.149c-0.32-0.099-0.571-0.244-0.752-0.438c-0.182-0.192-0.304-0.434-0.367-0.726
			c-0.064-0.291-0.103-0.624-0.113-0.997V5.545h-1.505V4.058z"/>
		<path fill="#0097D8" d="M211.726,11.09c0,0.245,0.032,0.42,0.097,0.524c0.063,0.105,0.188,0.158,0.375,0.158
			c0.059,0,0.129,0,0.211,0c0.081,0,0.174-0.012,0.279-0.035v1.382c-0.07,0.023-0.16,0.05-0.271,0.079
			c-0.111,0.028-0.225,0.055-0.341,0.078s-0.233,0.041-0.35,0.053s-0.216,0.018-0.298,0.018c-0.408,0-0.746-0.082-1.014-0.245
			c-0.27-0.163-0.443-0.449-0.525-0.857c-0.396,0.385-0.883,0.665-1.461,0.84c-0.577,0.175-1.134,0.263-1.67,0.263
			c-0.408,0-0.799-0.056-1.172-0.166c-0.374-0.111-0.703-0.274-0.988-0.49c-0.287-0.216-0.514-0.489-0.683-0.822
			c-0.169-0.332-0.254-0.72-0.254-1.163c0-0.56,0.103-1.015,0.306-1.364c0.205-0.35,0.473-0.624,0.805-0.822
			c0.333-0.198,0.706-0.341,1.12-0.429c0.414-0.087,0.831-0.154,1.251-0.201c0.361-0.07,0.705-0.119,1.031-0.148
			s0.615-0.079,0.866-0.148c0.251-0.07,0.449-0.178,0.595-0.324c0.146-0.146,0.219-0.364,0.219-0.655
			c0-0.257-0.061-0.467-0.184-0.63s-0.273-0.289-0.455-0.376c-0.181-0.088-0.382-0.146-0.604-0.176
			c-0.221-0.028-0.432-0.043-0.629-0.043c-0.561,0-1.021,0.116-1.383,0.35s-0.565,0.595-0.611,1.084h-1.994
			c0.035-0.583,0.174-1.066,0.42-1.451c0.244-0.385,0.557-0.694,0.936-0.928c0.379-0.232,0.807-0.396,1.285-0.489
			s0.969-0.14,1.47-0.14c0.442,0,0.88,0.046,1.312,0.14s0.819,0.245,1.164,0.455c0.344,0.21,0.621,0.48,0.83,0.813
			c0.211,0.332,0.315,0.737,0.315,1.215V11.09z M209.731,8.571c-0.304,0.198-0.677,0.317-1.12,0.358s-0.887,0.103-1.329,0.184
			c-0.21,0.035-0.414,0.085-0.612,0.148c-0.198,0.064-0.373,0.152-0.525,0.263c-0.15,0.111-0.271,0.257-0.357,0.438
			c-0.088,0.181-0.132,0.399-0.132,0.655c0,0.222,0.063,0.409,0.192,0.561s0.283,0.271,0.464,0.358
			c0.181,0.087,0.379,0.148,0.595,0.184s0.411,0.053,0.586,0.053c0.221,0,0.461-0.029,0.717-0.088
			c0.257-0.059,0.499-0.157,0.727-0.297c0.227-0.141,0.416-0.318,0.568-0.534c0.151-0.216,0.228-0.48,0.228-0.796V8.571z"/>
		<path fill="#0097D8" d="M213.877,4.058h1.872v1.75h0.034c0.059-0.245,0.172-0.484,0.342-0.718
			c0.169-0.233,0.373-0.446,0.612-0.639s0.505-0.347,0.796-0.463c0.291-0.117,0.589-0.175,0.893-0.175
			c0.232,0,0.393,0.006,0.48,0.017c0.088,0.013,0.178,0.024,0.271,0.035V5.79c-0.141-0.023-0.283-0.044-0.429-0.062
			s-0.288-0.026-0.429-0.026c-0.338,0-0.656,0.067-0.953,0.201c-0.298,0.135-0.557,0.332-0.779,0.595
			c-0.221,0.263-0.396,0.586-0.523,0.971c-0.129,0.385-0.193,0.828-0.193,1.33v4.303h-1.994V4.058z"/>
		<path fill="#0097D8" d="M220.087,0.612h1.994v1.889h-1.994V0.612z M220.087,4.058h1.994v9.044h-1.994V4.058z"/>
		<path fill="#0097D8" d="M228.396,13.347c-0.724,0-1.368-0.12-1.933-0.358c-0.566-0.239-1.044-0.569-1.435-0.988
			c-0.392-0.42-0.688-0.922-0.892-1.505c-0.205-0.583-0.307-1.225-0.307-1.924c0-0.688,0.102-1.323,0.307-1.907
			c0.203-0.583,0.5-1.084,0.892-1.504c0.391-0.42,0.868-0.749,1.435-0.988c0.564-0.239,1.209-0.358,1.933-0.358
			c0.723,0,1.367,0.119,1.933,0.358c0.566,0.239,1.044,0.568,1.435,0.988s0.688,0.921,0.892,1.504
			c0.205,0.584,0.307,1.219,0.307,1.907c0,0.699-0.102,1.341-0.307,1.924c-0.203,0.583-0.501,1.085-0.892,1.505
			c-0.391,0.419-0.868,0.749-1.435,0.988C229.763,13.227,229.118,13.347,228.396,13.347z M228.396,11.772
			c0.442,0,0.827-0.094,1.154-0.28s0.595-0.432,0.805-0.734c0.21-0.304,0.364-0.645,0.464-1.023
			c0.099-0.379,0.148-0.767,0.148-1.163c0-0.385-0.05-0.77-0.148-1.155c-0.1-0.385-0.254-0.726-0.464-1.022
			c-0.21-0.298-0.478-0.54-0.805-0.727s-0.712-0.279-1.154-0.279c-0.443,0-0.828,0.093-1.155,0.279
			c-0.326,0.187-0.594,0.429-0.804,0.727c-0.21,0.297-0.364,0.638-0.464,1.022c-0.1,0.386-0.148,0.771-0.148,1.155
			c0,0.396,0.049,0.784,0.148,1.163s0.254,0.72,0.464,1.023c0.21,0.303,0.478,0.548,0.804,0.734
			C227.567,11.679,227.952,11.772,228.396,11.772z"/>
	</g>
	<g>
		<path fill="#0097D8" d="M61.315,22.104c0.612,0,1.207-0.051,1.784-0.153c0.578-0.102,1.1-0.271,1.567-0.51
			c0.467-0.237,0.867-0.543,1.198-0.917c0.332-0.374,0.548-0.832,0.65-1.376h2.37v17.84h-3.186v-12.59h-4.384V22.104z"/>
		<path fill="#0097D8" d="M87.311,36.987H75.129c0.017-1.479,0.374-2.77,1.07-3.874c0.696-1.104,1.648-2.064,2.854-2.88
			c0.577-0.425,1.181-0.837,1.81-1.236c0.628-0.398,1.206-0.828,1.733-1.287c0.526-0.458,0.959-0.955,1.3-1.49
			c0.339-0.535,0.518-1.151,0.535-1.848c0-0.323-0.038-0.667-0.115-1.032s-0.226-0.705-0.446-1.02
			c-0.221-0.314-0.527-0.577-0.917-0.79c-0.391-0.213-0.901-0.318-1.529-0.318c-0.578,0-1.058,0.114-1.44,0.344
			s-0.688,0.544-0.917,0.943s-0.399,0.87-0.51,1.414c-0.111,0.544-0.174,1.13-0.191,1.759H75.46c0-0.985,0.131-1.899,0.395-2.74
			c0.263-0.841,0.658-1.567,1.185-2.179c0.526-0.611,1.168-1.092,1.924-1.44c0.756-0.348,1.635-0.522,2.638-0.522
			c1.087,0,1.997,0.179,2.727,0.535c0.73,0.357,1.321,0.808,1.771,1.352c0.45,0.544,0.769,1.134,0.956,1.771
			c0.187,0.638,0.28,1.245,0.28,1.822c0,0.714-0.111,1.359-0.331,1.938c-0.221,0.577-0.519,1.108-0.892,1.593
			c-0.374,0.484-0.799,0.93-1.274,1.338c-0.476,0.408-0.968,0.79-1.478,1.146c-0.51,0.357-1.02,0.697-1.529,1.02
			c-0.51,0.323-0.981,0.646-1.415,0.969c-0.433,0.323-0.812,0.658-1.134,1.007s-0.544,0.718-0.663,1.108h8.691V36.987z"/>
		<path fill="#0097D8" d="M109.331,36.987h-2.752v-1.784h-0.051c-0.391,0.765-0.96,1.312-1.708,1.644
			c-0.748,0.332-1.538,0.497-2.37,0.497c-1.037,0-1.941-0.183-2.714-0.548c-0.773-0.365-1.415-0.862-1.924-1.49
			c-0.51-0.629-0.892-1.372-1.147-2.23c-0.255-0.857-0.382-1.779-0.382-2.766c0-1.188,0.161-2.217,0.484-3.083
			c0.322-0.867,0.751-1.58,1.287-2.142c0.535-0.561,1.147-0.972,1.835-1.235c0.688-0.264,1.389-0.396,2.103-0.396
			c0.408,0,0.824,0.038,1.249,0.115c0.424,0.076,0.833,0.199,1.223,0.369c0.391,0.17,0.752,0.387,1.083,0.65
			c0.331,0.263,0.607,0.573,0.828,0.93h0.051V18.79h2.906V36.987z M99.188,30.539c0,0.561,0.072,1.113,0.217,1.657
			c0.144,0.544,0.365,1.028,0.663,1.452c0.297,0.425,0.675,0.765,1.134,1.02c0.459,0.255,1.002,0.383,1.631,0.383
			c0.646,0,1.202-0.136,1.669-0.408c0.467-0.271,0.849-0.628,1.147-1.07c0.297-0.441,0.518-0.938,0.663-1.491
			c0.144-0.552,0.216-1.117,0.216-1.694c0-1.461-0.327-2.6-0.981-3.415c-0.654-0.815-1.542-1.224-2.664-1.224
			c-0.68,0-1.253,0.141-1.72,0.421s-0.85,0.646-1.147,1.096s-0.509,0.96-0.637,1.529S99.188,29.945,99.188,30.539z"/>
		<path fill="#0097D8" d="M114.759,31.151c0,0.51,0.072,1.002,0.217,1.478c0.144,0.477,0.361,0.893,0.65,1.249
			c0.289,0.356,0.654,0.642,1.096,0.854c0.442,0.213,0.969,0.319,1.58,0.319c0.85,0,1.533-0.183,2.052-0.549
			c0.518-0.364,0.905-0.913,1.16-1.644h2.752c-0.153,0.714-0.417,1.351-0.79,1.912c-0.374,0.561-0.824,1.031-1.351,1.414
			c-0.527,0.382-1.117,0.671-1.771,0.866c-0.654,0.195-1.338,0.293-2.052,0.293c-1.037,0-1.954-0.17-2.752-0.51
			c-0.799-0.339-1.474-0.815-2.026-1.427c-0.553-0.611-0.969-1.342-1.249-2.191s-0.42-1.784-0.42-2.804
			c0-0.935,0.148-1.822,0.446-2.663c0.297-0.842,0.722-1.58,1.274-2.218c0.552-0.637,1.219-1.143,2-1.517
			c0.781-0.373,1.665-0.561,2.651-0.561c1.036,0,1.966,0.217,2.791,0.65c0.824,0.433,1.508,1.007,2.052,1.72
			c0.543,0.714,0.938,1.534,1.185,2.46c0.246,0.926,0.31,1.882,0.191,2.867H114.759z M121.539,29.239
			c-0.034-0.458-0.132-0.9-0.293-1.325c-0.162-0.424-0.382-0.794-0.663-1.108s-0.621-0.569-1.02-0.765
			c-0.399-0.195-0.846-0.293-1.338-0.293c-0.51,0-0.973,0.089-1.389,0.268c-0.417,0.179-0.773,0.425-1.07,0.739
			c-0.297,0.314-0.535,0.684-0.714,1.108c-0.178,0.425-0.276,0.884-0.293,1.376H121.539z"/>
		<path fill="#0097D8" d="M141.902,18.357c1.36,0,2.579,0.255,3.657,0.765c1.079,0.51,1.992,1.197,2.74,2.064
			c0.748,0.866,1.32,1.877,1.721,3.032c0.398,1.155,0.599,2.379,0.599,3.67c0,1.309-0.2,2.54-0.599,3.695
			c-0.4,1.156-0.973,2.167-1.721,3.033s-1.661,1.551-2.74,2.052c-1.078,0.501-2.297,0.752-3.657,0.752
			c-1.359,0-2.579-0.251-3.657-0.752c-1.079-0.501-1.992-1.186-2.74-2.052s-1.321-1.877-1.72-3.033
			c-0.399-1.155-0.599-2.387-0.599-3.695c0-1.291,0.2-2.515,0.599-3.67c0.399-1.155,0.973-2.166,1.72-3.032
			c0.748-0.867,1.661-1.555,2.74-2.064C139.323,18.612,140.542,18.357,141.902,18.357z M141.902,20.957
			c-0.968,0-1.806,0.195-2.51,0.586c-0.705,0.391-1.279,0.913-1.72,1.567c-0.442,0.654-0.769,1.397-0.981,2.229
			c-0.212,0.833-0.318,1.683-0.318,2.549s0.106,1.717,0.318,2.549c0.212,0.833,0.539,1.576,0.981,2.229
			c0.441,0.654,1.015,1.177,1.72,1.567c0.705,0.392,1.542,0.587,2.51,0.587c0.969,0,1.805-0.195,2.51-0.587
			c0.705-0.391,1.278-0.913,1.721-1.567c0.441-0.653,0.769-1.396,0.98-2.229c0.213-0.832,0.318-1.683,0.318-2.549
			s-0.105-1.716-0.318-2.549c-0.212-0.832-0.539-1.575-0.98-2.229c-0.442-0.654-1.016-1.177-1.721-1.567
			S142.871,20.957,141.902,20.957z"/>
		<path fill="#0097D8" d="M162.01,28.22c-0.119-0.815-0.446-1.431-0.981-1.848c-0.535-0.416-1.21-0.624-2.026-0.624
			c-0.373,0-0.773,0.063-1.197,0.191c-0.426,0.127-0.816,0.365-1.172,0.713c-0.357,0.349-0.654,0.833-0.893,1.453
			s-0.357,1.432-0.357,2.434c0,0.544,0.064,1.088,0.191,1.632c0.128,0.544,0.332,1.027,0.611,1.452
			c0.281,0.425,0.642,0.77,1.084,1.032c0.441,0.264,0.977,0.396,1.605,0.396c0.85,0,1.551-0.264,2.103-0.79
			c0.552-0.527,0.896-1.266,1.032-2.218h2.905c-0.272,1.717-0.922,3.029-1.95,3.938c-1.027,0.909-2.391,1.363-4.09,1.363
			c-1.037,0-1.949-0.174-2.74-0.522c-0.789-0.348-1.457-0.823-2-1.427c-0.545-0.603-0.956-1.321-1.236-2.153
			c-0.28-0.833-0.42-1.733-0.42-2.702c0-0.985,0.135-1.911,0.407-2.777c0.271-0.867,0.679-1.619,1.224-2.256
			c0.543-0.637,1.219-1.138,2.025-1.504c0.807-0.365,1.754-0.548,2.842-0.548c0.765,0,1.491,0.099,2.18,0.293
			c0.688,0.196,1.299,0.489,1.834,0.88s0.973,0.884,1.312,1.478c0.34,0.596,0.545,1.3,0.612,2.115H162.01z"/>
		<path fill="#0097D8" d="M165.961,23.812h2.191V19.86h2.905v3.951h2.625v2.166h-2.625v7.034c0,0.306,0.013,0.569,0.038,0.79
			s0.085,0.407,0.178,0.561c0.094,0.153,0.234,0.268,0.421,0.344c0.187,0.077,0.442,0.115,0.765,0.115
			c0.204,0,0.408-0.004,0.611-0.013c0.205-0.009,0.408-0.038,0.612-0.09v2.243c-0.323,0.034-0.638,0.067-0.943,0.102
			s-0.62,0.051-0.942,0.051c-0.766,0-1.381-0.072-1.848-0.216c-0.468-0.145-0.833-0.357-1.096-0.638
			c-0.264-0.28-0.443-0.633-0.535-1.058c-0.094-0.425-0.149-0.908-0.166-1.452v-7.773h-2.191V23.812z"/>
		<path fill="#0097D8" d="M187.343,36.987h-2.854v-1.835h-0.051c-0.357,0.663-0.889,1.193-1.593,1.593
			c-0.705,0.399-1.423,0.599-2.153,0.599c-1.733,0-2.986-0.429-3.76-1.287c-0.773-0.857-1.159-2.153-1.159-3.886v-8.359h2.905v8.078
			c0,1.156,0.221,1.972,0.662,2.447s1.062,0.714,1.861,0.714c0.611,0,1.121-0.094,1.529-0.28c0.407-0.188,0.738-0.438,0.994-0.752
			c0.254-0.314,0.437-0.692,0.547-1.135c0.111-0.441,0.166-0.917,0.166-1.427v-7.646h2.905V36.987z"/>
		<path fill="#0097D8" d="M190.477,18.79h2.906v6.729h0.051c0.203-0.322,0.449-0.611,0.739-0.866
			c0.288-0.255,0.606-0.472,0.956-0.65c0.348-0.178,0.713-0.313,1.096-0.407c0.382-0.094,0.76-0.141,1.134-0.141
			c1.036,0,1.94,0.183,2.714,0.548c0.773,0.366,1.415,0.867,1.924,1.504c0.51,0.637,0.893,1.381,1.147,2.23s0.382,1.758,0.382,2.727
			c0,0.884-0.114,1.742-0.344,2.574c-0.229,0.833-0.578,1.567-1.045,2.204c-0.467,0.638-1.058,1.147-1.771,1.529
			c-0.713,0.383-1.555,0.573-2.522,0.573c-0.442,0-0.888-0.029-1.339-0.089c-0.449-0.06-0.879-0.175-1.286-0.344
			c-0.408-0.17-0.777-0.391-1.108-0.663c-0.332-0.271-0.607-0.628-0.828-1.07h-0.052v1.81h-2.753V18.79z M200.621,30.412
			c0-0.595-0.077-1.173-0.23-1.733c-0.152-0.561-0.382-1.058-0.688-1.491c-0.306-0.433-0.688-0.781-1.146-1.045
			c-0.459-0.263-0.986-0.395-1.58-0.395c-1.224,0-2.146,0.425-2.766,1.274c-0.621,0.85-0.93,1.979-0.93,3.39
			c0,0.662,0.08,1.278,0.242,1.848c0.16,0.569,0.402,1.058,0.726,1.466c0.323,0.407,0.71,0.73,1.159,0.968
			c0.451,0.238,0.973,0.357,1.568,0.357c0.662,0,1.223-0.136,1.682-0.408c0.459-0.271,0.836-0.624,1.135-1.058
			c0.297-0.434,0.51-0.926,0.637-1.479C200.557,31.555,200.621,30.99,200.621,30.412z"/>
		<path fill="#0097D8" d="M205.973,23.812h2.727v2.548h0.051c0.086-0.356,0.251-0.704,0.498-1.045
			c0.246-0.34,0.543-0.649,0.892-0.93c0.348-0.28,0.734-0.506,1.159-0.676s0.857-0.255,1.3-0.255c0.34,0,0.573,0.009,0.701,0.025
			c0.128,0.018,0.259,0.034,0.396,0.051v2.804c-0.205-0.033-0.412-0.063-0.625-0.089s-0.42-0.038-0.625-0.038
			c-0.492,0-0.955,0.098-1.389,0.293s-0.811,0.484-1.134,0.866c-0.323,0.383-0.577,0.854-0.765,1.415
			c-0.188,0.561-0.28,1.206-0.28,1.937v6.27h-2.905V23.812z"/>
		<path fill="#0097D8" d="M216.753,31.151c0,0.51,0.072,1.002,0.217,1.478c0.144,0.477,0.36,0.893,0.649,1.249
			s0.654,0.642,1.096,0.854c0.442,0.213,0.969,0.319,1.58,0.319c0.85,0,1.533-0.183,2.053-0.549
			c0.518-0.364,0.904-0.913,1.159-1.644h2.753c-0.153,0.714-0.417,1.351-0.791,1.912c-0.373,0.561-0.824,1.031-1.351,1.414
			c-0.526,0.382-1.117,0.671-1.771,0.866c-0.654,0.195-1.338,0.293-2.053,0.293c-1.036,0-1.953-0.17-2.752-0.51
			c-0.799-0.339-1.475-0.815-2.025-1.427c-0.553-0.611-0.969-1.342-1.25-2.191c-0.279-0.85-0.42-1.784-0.42-2.804
			c0-0.935,0.148-1.822,0.445-2.663c0.298-0.842,0.723-1.58,1.275-2.218c0.551-0.637,1.219-1.143,2-1.517
			c0.781-0.373,1.665-0.561,2.65-0.561c1.037,0,1.967,0.217,2.791,0.65c0.824,0.433,1.508,1.007,2.052,1.72
			c0.544,0.714,0.938,1.534,1.185,2.46s0.311,1.882,0.191,2.867H216.753z M223.532,29.239c-0.034-0.458-0.132-0.9-0.293-1.325
			c-0.161-0.424-0.382-0.794-0.663-1.108c-0.279-0.314-0.62-0.569-1.02-0.765c-0.398-0.195-0.846-0.293-1.338-0.293
			c-0.51,0-0.973,0.089-1.389,0.268s-0.773,0.425-1.07,0.739s-0.535,0.684-0.714,1.108s-0.276,0.884-0.293,1.376H223.532z"/>
	</g>
</g>
</svg>
