<?xml version="1.0" encoding="utf-8"?>
<!-- Generator: Adobe Illustrator 16.0.0, SVG Export Plug-In . SVG Version: 6.00 Build 0)  -->
<!DOCTYPE svg PUBLIC "-//W3C//DTD SVG 1.1//EN" "http://www.w3.org/Graphics/SVG/1.1/DTD/svg11.dtd">
<svg version="1.1" id="Capa_1" xmlns="http://www.w3.org/2000/svg" xmlns:xlink="http://www.w3.org/1999/xlink" x="0px" y="0px"
	 width="239.572px" height="44px" viewBox="0 0 239.572 37.396" enable-background="new 0 0 239.572 37.396"
	 xml:space="preserve">
<g>
	<path fill="#E63027" d="M0.004,34.522c-0.082,1.805,1.207,2.594,2.96,2.594c2.626,0,2.833-1.609,2.833-2.117
		c0-1.213-0.871-1.67-1.92-1.951L2.07,32.601c-0.602-0.143-1.119-0.434-1.119-1.131c0-1.1,0.895-1.473,1.859-1.473
		c1.047,0,1.979,0.572,2.021,1.699h0.705c0.013-1.512-1.276-2.301-2.738-2.301c-2.088,0-2.555,1.357-2.555,2.086
		c0,1.15,0.801,1.566,1.672,1.785l1.65,0.404c0.686,0.166,1.525,0.496,1.525,1.338c0,1.08-1.184,1.504-1.96,1.504
		c-1.351,0-2.45-0.467-2.421-1.99H0.004"/>
	<path fill-rule="evenodd" clip-rule="evenodd" fill="#E63027" d="M7.156,33.247c0.021-0.875,0.623-1.248,1.432-1.248
		c0.768,0,1.402,0.215,1.402,1.102c0,0.592-0.302,0.664-0.841,0.723c-1.412,0.17-2.874,0.221-2.874,1.727
		c0,1.078,0.809,1.566,1.795,1.566c1.027,0,1.494-0.395,1.95-1.09h0.021c0,0.561,0.104,0.934,0.768,0.934
		c0.179,0,0.28-0.012,0.426-0.039V36.37c-0.051,0.02-0.134,0.041-0.206,0.041c-0.259,0-0.385-0.145-0.385-0.396v-2.842
		c0-1.432-1.028-1.723-1.972-1.723c-1.225,0-2.108,0.539-2.17,1.797H7.156 M9.99,34.886c0.01,1.047-0.872,1.682-1.868,1.682
		c-0.614,0-1.194-0.408-1.194-1.061c0-1.047,1.381-1.037,2.49-1.234c0.178-0.031,0.468-0.084,0.551-0.24H9.99V34.886z"/>
	<rect x="11.732" y="29.552" fill="#E63027" width="0.654" height="7.408"/>
	<path fill="#E63027" d="M17.752,31.604h-0.654v2.812c0,1.09-0.489,2.146-1.609,2.146c-1.036,0-1.402-0.506-1.432-1.473v-3.486
		h-0.652v3.477c0,1.246,0.529,2.035,1.877,2.035c0.799,0,1.506-0.408,1.847-1.119h0.022v0.965h0.602V31.604"/>
	<path fill-rule="evenodd" clip-rule="evenodd" fill="#E63027" d="M23.471,29.565h-0.654v3.074h-0.02
		c-0.282-0.771-1.061-1.174-1.858-1.174c-1.631,0-2.409,1.314-2.409,2.832s0.778,2.834,2.409,2.834c0.778,0,1.629-0.479,1.909-1.172
		h0.02v1.016h0.604V29.565 M19.185,34.298c0-1.111,0.507-2.283,1.754-2.283c1.39,0,1.878,1.172,1.878,2.283
		s-0.488,2.285-1.878,2.285C19.691,36.583,19.185,35.409,19.185,34.298"/>
	<polygon fill="#0097D8" points="24.592,36.976 25.297,36.976 25.297,30.571 25.318,30.571 27.859,36.976 28.524,36.976 
		31.057,30.571 31.078,30.571 31.078,36.976 31.784,36.976 31.784,29.565 30.748,29.565 28.193,36.063 25.63,29.565 24.592,29.565 	
		"/>
	<path fill-rule="evenodd" clip-rule="evenodd" fill="#0097D8" d="M33.494,33.263c0.02-0.875,0.622-1.248,1.432-1.248
		c0.77,0,1.4,0.219,1.4,1.1c0,0.594-0.301,0.668-0.84,0.729c-1.412,0.166-2.876,0.215-2.876,1.723c0,1.08,0.812,1.566,1.796,1.566
		c1.028,0,1.495-0.395,1.951-1.092h0.022c0,0.562,0.104,0.936,0.768,0.936c0.177,0,0.278-0.012,0.426-0.039v-0.549
		c-0.054,0.016-0.136,0.037-0.206,0.037c-0.262,0-0.385-0.145-0.385-0.395v-2.842c0-1.434-1.027-1.723-1.975-1.723
		c-1.224,0-2.104,0.537-2.168,1.797H33.494 M36.326,34.901c0.011,1.047-0.871,1.682-1.867,1.682c-0.612,0-1.193-0.408-1.193-1.062
		c0-1.049,1.379-1.035,2.49-1.236c0.178-0.027,0.469-0.078,0.551-0.236h0.02V34.901z"/>
	<path fill-rule="evenodd" clip-rule="evenodd" fill="#0097D8" d="M42.772,29.565h-0.653v3.074h-0.021
		c-0.282-0.771-1.059-1.174-1.857-1.174c-1.632,0-2.41,1.314-2.41,2.832s0.778,2.834,2.41,2.834c0.776,0,1.628-0.479,1.909-1.172
		h0.021v1.016h0.601V29.565 M38.486,34.298c0-1.111,0.509-2.283,1.755-2.283c1.389,0,1.878,1.172,1.878,2.283
		s-0.489,2.285-1.878,2.285C38.995,36.583,38.486,35.409,38.486,34.298"/>
	<path fill="#0097D8" d="M43.79,36.976h0.653v-2.854c0-1.109,0.811-1.984,1.994-1.918v-0.656c-0.965-0.041-1.693,0.467-2.026,1.328
		h-0.019v-1.254H43.79V36.976"/>
	<path fill-rule="evenodd" clip-rule="evenodd" fill="#0097D8" d="M46.841,30.614h0.654v-1.049h-0.654V30.614z M46.841,36.976h0.654
		v-5.354h-0.654V36.976z"/>
	<path fill-rule="evenodd" clip-rule="evenodd" fill="#0097D8" d="M53.234,29.565H52.58v3.074h-0.021
		c-0.28-0.771-1.058-1.174-1.857-1.174c-1.63,0-2.408,1.314-2.408,2.832s0.778,2.834,2.408,2.834c0.778,0,1.629-0.479,1.908-1.172
		h0.021v1.016h0.604V29.565 M48.947,34.298c0-1.111,0.508-2.283,1.754-2.283c1.391,0,1.879,1.172,1.879,2.283
		s-0.488,2.285-1.879,2.285C49.455,36.583,48.947,35.409,48.947,34.298"/>
	<rect x="27.664" y="0.5" fill="#E63027" stroke="#FFFFFF" width="25.586" height="25.241"/>
	<polygon fill="#FFFFFF" points="32.568,8.963 32.053,10.548 30.367,10.569 31.736,11.529 31.242,13.079 32.568,12.129 
		33.914,13.062 33.398,11.511 34.744,10.528 33.089,10.548 	"/>
	<polygon fill="#FFFFFF" points="37.87,8.963 37.357,10.548 35.673,10.569 37.038,11.529 36.546,13.079 37.87,12.129 39.215,13.062 
		38.703,11.511 40.049,10.528 38.393,10.548 	"/>
	<polygon fill="#FFFFFF" points="43.197,8.963 42.685,10.548 40.998,10.569 42.367,11.529 41.873,13.079 43.197,12.129 
		44.543,13.062 44.029,11.511 45.375,10.528 43.723,10.548 	"/>
	<polygon fill="#FFFFFF" points="40.519,12.577 40.005,14.162 38.317,14.182 39.688,15.145 39.188,16.693 40.519,15.743 
		41.864,16.676 41.351,15.125 42.694,14.143 41.04,14.162 	"/>
	<polygon fill="#FFFFFF" points="35.205,12.577 34.689,14.162 33.008,14.182 34.372,15.145 33.879,16.693 35.205,15.743 
		36.549,16.676 36.035,15.125 37.38,14.143 35.727,14.162 	"/>
	<polygon fill="#FFFFFF" points="45.854,12.577 45.34,14.162 43.656,14.182 45.021,15.145 44.527,16.693 45.854,15.743 
		47.199,16.676 46.687,15.125 48.031,14.143 46.378,14.162 	"/>
	<polygon fill="#FFFFFF" points="48.52,8.963 48.002,10.548 46.321,10.569 47.686,11.529 47.193,13.079 48.52,12.129 49.863,13.062 
		49.348,11.511 50.694,10.528 49.043,10.548 	"/>
	<polygon fill="#0097D8" points="19.52,25.741 6.054,25.214 5.755,20.474 0.111,19.869 1.617,7.158 5.529,6.854 5.604,0.537 
		11.695,0.688 12.146,7.532 3.572,11.296 12.977,13.704 14.105,23.253 19.145,14.982 26.14,16.636 26.441,20.173 19.822,20.622 	"/>
	<polygon fill="#0097D8" points="13.934,0.76 17.871,5.068 19.357,4.328 19.061,0.837 	"/>
	<polygon fill="#0097D8" points="21.885,9.455 26.043,14.215 26.119,7.076 23.814,6.705 	"/>
	<g>
		<path fill="#0097D8" d="M64.476,0.612v4.793h5.056V0.612h2.746v12.489h-2.746V7.714h-5.056v5.388h-2.746V0.612H64.476z"/>
		<path fill="#0097D8" d="M74.481,6.62c0.221-0.588,0.536-1.09,0.945-1.504c0.408-0.414,0.897-0.734,1.469-0.962
			c0.571-0.228,1.212-0.341,1.924-0.341c0.711,0,1.355,0.113,1.933,0.341s1.07,0.548,1.478,0.962s0.723,0.916,0.945,1.504
			c0.221,0.59,0.333,1.245,0.333,1.969c0,0.723-0.111,1.376-0.333,1.959c-0.222,0.583-0.537,1.082-0.945,1.495
			c-0.408,0.414-0.901,0.732-1.478,0.954c-0.577,0.221-1.222,0.332-1.933,0.332c-0.712,0-1.353-0.111-1.924-0.332
			c-0.572-0.222-1.062-0.54-1.469-0.954c-0.409-0.413-0.724-0.912-0.945-1.495c-0.222-0.583-0.333-1.236-0.333-1.959
			C74.149,7.865,74.26,7.21,74.481,6.62z M76.738,9.646c0.07,0.345,0.189,0.653,0.359,0.928c0.169,0.273,0.394,0.492,0.673,0.655
			c0.28,0.164,0.63,0.245,1.05,0.245c0.419,0,0.772-0.081,1.058-0.245c0.286-0.163,0.513-0.382,0.682-0.655
			c0.169-0.274,0.289-0.583,0.358-0.928c0.07-0.344,0.105-0.696,0.105-1.058s-0.035-0.718-0.105-1.067
			c-0.07-0.35-0.189-0.659-0.358-0.927c-0.169-0.269-0.396-0.487-0.682-0.656c-0.286-0.169-0.639-0.254-1.058-0.254
			c-0.42,0-0.77,0.085-1.05,0.254s-0.504,0.388-0.673,0.656c-0.169,0.268-0.289,0.577-0.359,0.927
			c-0.07,0.35-0.105,0.706-0.105,1.067S76.668,9.303,76.738,9.646z"/>
		<path fill="#0097D8" d="M87.207,10.854c0.11,0.192,0.253,0.351,0.428,0.473c0.175,0.122,0.376,0.213,0.604,0.271
			c0.228,0.058,0.464,0.087,0.708,0.087c0.175,0,0.359-0.021,0.551-0.062c0.192-0.04,0.367-0.104,0.524-0.192
			c0.158-0.087,0.289-0.203,0.394-0.35c0.105-0.146,0.158-0.329,0.158-0.551c0-0.373-0.248-0.653-0.744-0.84
			s-1.187-0.373-2.073-0.56C87.396,9.05,87.043,8.953,86.7,8.842c-0.344-0.11-0.65-0.256-0.918-0.437
			c-0.269-0.181-0.484-0.408-0.647-0.683c-0.163-0.273-0.245-0.609-0.245-1.006c0-0.583,0.114-1.061,0.341-1.435
			c0.228-0.373,0.528-0.667,0.901-0.883s0.793-0.368,1.26-0.455c0.466-0.088,0.944-0.131,1.434-0.131s0.965,0.046,1.426,0.14
			c0.46,0.094,0.872,0.251,1.233,0.472c0.361,0.222,0.662,0.517,0.901,0.884c0.239,0.367,0.382,0.831,0.428,1.391h-2.361
			c-0.035-0.478-0.216-0.802-0.542-0.971c-0.326-0.169-0.711-0.254-1.154-0.254c-0.14,0-0.292,0.009-0.455,0.026
			c-0.164,0.018-0.312,0.056-0.446,0.114c-0.134,0.058-0.248,0.143-0.341,0.253c-0.094,0.111-0.14,0.26-0.14,0.446
			c0,0.222,0.082,0.402,0.245,0.542c0.164,0.141,0.376,0.254,0.639,0.342c0.262,0.087,0.562,0.166,0.901,0.235
			c0.338,0.07,0.682,0.146,1.032,0.228c0.361,0.082,0.714,0.182,1.058,0.298c0.344,0.116,0.65,0.271,0.918,0.463
			c0.268,0.192,0.484,0.432,0.647,0.718c0.164,0.286,0.245,0.639,0.245,1.059c0,0.595-0.12,1.093-0.358,1.495
			c-0.239,0.402-0.551,0.726-0.936,0.971s-0.825,0.417-1.321,0.517c-0.496,0.099-1,0.148-1.513,0.148
			c-0.524,0-1.038-0.053-1.539-0.157c-0.501-0.105-0.948-0.28-1.338-0.525c-0.391-0.244-0.711-0.568-0.962-0.971
			c-0.251-0.402-0.388-0.906-0.411-1.513h2.361C87.041,10.432,87.096,10.661,87.207,10.854z"/>
		<path fill="#0097D8" d="M96.872,4.058v1.155h0.035c0.303-0.49,0.688-0.846,1.154-1.067c0.466-0.222,0.979-0.332,1.539-0.332
			c0.711,0,1.324,0.134,1.837,0.402c0.513,0.268,0.938,0.624,1.277,1.066c0.338,0.443,0.589,0.96,0.752,1.548
			c0.163,0.59,0.245,1.205,0.245,1.846c0,0.606-0.082,1.189-0.245,1.749c-0.164,0.561-0.411,1.056-0.744,1.487
			c-0.332,0.432-0.747,0.775-1.242,1.032c-0.496,0.256-1.076,0.385-1.741,0.385c-0.56,0-1.076-0.114-1.548-0.341
			c-0.473-0.228-0.86-0.562-1.164-1.006h-0.035v4.285H94.51V4.058H96.872z M100.099,11.229c0.274-0.163,0.496-0.376,0.665-0.638
			c0.169-0.263,0.289-0.569,0.358-0.919c0.07-0.35,0.105-0.705,0.105-1.066s-0.038-0.718-0.114-1.067s-0.201-0.662-0.376-0.936
			c-0.175-0.274-0.399-0.496-0.673-0.665c-0.274-0.169-0.609-0.254-1.006-0.254c-0.408,0-0.75,0.085-1.023,0.254
			s-0.496,0.388-0.665,0.656c-0.169,0.268-0.289,0.577-0.359,0.927c-0.07,0.35-0.104,0.712-0.104,1.085
			c0,0.361,0.038,0.717,0.113,1.066s0.198,0.656,0.368,0.919c0.169,0.262,0.394,0.475,0.673,0.638
			c0.28,0.164,0.618,0.245,1.015,0.245C99.483,11.475,99.825,11.394,100.099,11.229z"/>
		<path fill="#0097D8" d="M105.268,2.658V0.612h2.484v2.046H105.268z M107.751,4.058v9.044h-2.484V4.058H107.751z"/>
		<path fill="#0097D8" d="M114.679,4.058V5.72h-1.819v4.479c0,0.419,0.07,0.699,0.21,0.839c0.14,0.141,0.42,0.21,0.839,0.21
			c0.14,0,0.274-0.006,0.402-0.018c0.128-0.011,0.251-0.028,0.368-0.052v1.924c-0.21,0.035-0.443,0.059-0.7,0.07
			c-0.257,0.011-0.507,0.018-0.752,0.018c-0.385,0-0.75-0.026-1.093-0.079s-0.647-0.154-0.91-0.307
			c-0.262-0.151-0.469-0.367-0.621-0.646c-0.152-0.28-0.228-0.647-0.228-1.103V5.72h-1.504V4.058h1.504V1.347h2.484v2.711H114.679z"
			/>
		<path fill="#0097D8" d="M116.2,5.388c0.256-0.385,0.583-0.694,0.979-0.928c0.396-0.232,0.843-0.399,1.338-0.498
			s0.994-0.148,1.496-0.148c0.455,0,0.916,0.032,1.382,0.096c0.466,0.064,0.892,0.189,1.277,0.376s0.7,0.446,0.945,0.778
			c0.245,0.333,0.367,0.773,0.367,1.321v4.705c0,0.408,0.023,0.799,0.07,1.172c0.047,0.374,0.128,0.653,0.245,0.84h-2.519
			c-0.046-0.14-0.084-0.282-0.114-0.429c-0.029-0.146-0.049-0.294-0.061-0.446c-0.396,0.409-0.863,0.694-1.399,0.857
			c-0.537,0.163-1.084,0.245-1.644,0.245c-0.432,0-0.834-0.053-1.207-0.157c-0.374-0.105-0.7-0.269-0.98-0.49
			c-0.28-0.222-0.499-0.501-0.656-0.84c-0.157-0.338-0.236-0.74-0.236-1.207c0-0.513,0.09-0.936,0.271-1.268
			c0.181-0.333,0.414-0.598,0.7-0.796c0.286-0.198,0.612-0.347,0.979-0.446c0.367-0.099,0.737-0.178,1.111-0.236
			c0.373-0.058,0.74-0.104,1.102-0.14c0.361-0.035,0.682-0.088,0.962-0.157c0.28-0.07,0.501-0.172,0.665-0.307
			c0.164-0.134,0.239-0.329,0.228-0.586c0-0.268-0.044-0.48-0.131-0.639c-0.087-0.157-0.204-0.279-0.35-0.367
			c-0.146-0.087-0.315-0.146-0.507-0.175s-0.399-0.044-0.621-0.044c-0.49,0-0.875,0.105-1.154,0.315s-0.443,0.56-0.49,1.049h-2.484
			C115.798,6.256,115.944,5.772,116.2,5.388z M121.107,8.895c-0.157,0.053-0.327,0.097-0.507,0.131
			c-0.181,0.035-0.37,0.064-0.568,0.088c-0.199,0.023-0.396,0.053-0.595,0.088c-0.187,0.034-0.371,0.081-0.551,0.14
			s-0.338,0.137-0.472,0.236c-0.134,0.099-0.242,0.225-0.324,0.376s-0.123,0.344-0.123,0.577c0,0.222,0.041,0.408,0.123,0.56
			s0.192,0.271,0.333,0.358c0.14,0.088,0.303,0.149,0.49,0.184c0.187,0.035,0.379,0.053,0.577,0.053c0.49,0,0.869-0.081,1.137-0.245
			c0.268-0.163,0.466-0.358,0.595-0.586c0.128-0.228,0.207-0.457,0.236-0.69c0.029-0.233,0.044-0.42,0.044-0.56V8.676
			C121.396,8.77,121.264,8.842,121.107,8.895z"/>
		<path fill="#0097D8" d="M128.462,0.612v12.489h-2.484V0.612H128.462z"/>
		<path fill="#0097D8" d="M144.73,12.148c-0.945,0.822-2.251,1.233-3.918,1.233c-1.691,0-3-0.408-3.927-1.225
			c-0.927-0.816-1.391-2.076-1.391-3.778V0.612h2.747v7.767c0,0.338,0.029,0.671,0.087,0.997c0.058,0.326,0.181,0.615,0.367,0.865
			c0.187,0.251,0.446,0.455,0.779,0.612c0.332,0.157,0.778,0.236,1.338,0.236c0.979,0,1.656-0.219,2.03-0.656
			c0.373-0.437,0.559-1.122,0.559-2.055V0.612h2.747v7.767C146.147,10.069,145.675,11.326,144.73,12.148z"/>
		<path fill="#0097D8" d="M150.607,4.058v1.26h0.053c0.314-0.524,0.723-0.906,1.225-1.146s1.015-0.358,1.539-0.358
			c0.665,0,1.21,0.09,1.636,0.271s0.761,0.432,1.006,0.752c0.245,0.321,0.417,0.712,0.517,1.173c0.099,0.46,0.148,0.971,0.148,1.53
			v5.562h-2.484V7.994c0-0.746-0.117-1.304-0.35-1.671c-0.233-0.367-0.647-0.551-1.242-0.551c-0.676,0-1.166,0.201-1.469,0.604
			c-0.304,0.402-0.455,1.064-0.455,1.985v4.74h-2.484V4.058H150.607z"/>
		<path fill="#0097D8" d="M158.689,2.658V0.612h2.483v2.046H158.689z M161.173,4.058v9.044h-2.483V4.058H161.173z"/>
		<path fill="#0097D8" d="M165.371,13.102l-3.096-9.044h2.605l1.907,6.175h0.035l1.906-6.175h2.467l-3.062,9.044H165.371z"/>
		<path fill="#0097D8" d="M174.887,10.933c0.373,0.361,0.91,0.542,1.609,0.542c0.501,0,0.933-0.125,1.295-0.376
			c0.361-0.251,0.582-0.516,0.664-0.796h2.187c-0.35,1.085-0.886,1.86-1.609,2.326c-0.724,0.467-1.598,0.7-2.624,0.7
			c-0.711,0-1.353-0.114-1.924-0.341c-0.572-0.228-1.056-0.552-1.452-0.972c-0.396-0.419-0.702-0.921-0.918-1.504
			s-0.323-1.225-0.323-1.924c0-0.677,0.11-1.307,0.332-1.89c0.221-0.583,0.536-1.087,0.944-1.513s0.896-0.762,1.46-1.006
			c0.566-0.245,1.193-0.367,1.881-0.367c0.77,0,1.44,0.148,2.012,0.445c0.571,0.298,1.041,0.697,1.408,1.198
			c0.367,0.502,0.633,1.073,0.796,1.715s0.222,1.312,0.175,2.012h-6.524C174.31,9.988,174.514,10.571,174.887,10.933z
			 M177.694,6.175c-0.298-0.326-0.749-0.49-1.356-0.49c-0.396,0-0.725,0.067-0.988,0.201c-0.262,0.135-0.472,0.301-0.629,0.499
			c-0.158,0.198-0.269,0.408-0.332,0.63c-0.064,0.221-0.103,0.419-0.114,0.595h4.04C178.198,6.979,177.992,6.501,177.694,6.175z"/>
		<path fill="#0097D8" d="M184.63,4.058v1.68h0.035c0.116-0.28,0.273-0.539,0.472-0.778c0.199-0.239,0.426-0.443,0.683-0.612
			s0.53-0.3,0.822-0.394c0.291-0.094,0.595-0.14,0.909-0.14c0.164,0,0.344,0.029,0.543,0.087v2.31
			c-0.117-0.023-0.257-0.044-0.42-0.062c-0.164-0.018-0.321-0.026-0.473-0.026c-0.455,0-0.84,0.076-1.154,0.228
			s-0.568,0.358-0.762,0.621c-0.191,0.262-0.329,0.568-0.41,0.918c-0.082,0.35-0.123,0.729-0.123,1.137v4.076h-2.483V4.058H184.63z"
			/>
		<path fill="#0097D8" d="M191.164,10.854c0.109,0.192,0.253,0.351,0.428,0.473c0.176,0.122,0.377,0.213,0.604,0.271
			c0.228,0.058,0.464,0.087,0.709,0.087c0.174,0,0.358-0.021,0.551-0.062c0.192-0.04,0.367-0.104,0.524-0.192
			c0.157-0.087,0.288-0.203,0.394-0.35c0.105-0.146,0.158-0.329,0.158-0.551c0-0.373-0.248-0.653-0.744-0.84
			s-1.187-0.373-2.072-0.56c-0.362-0.081-0.715-0.178-1.059-0.289c-0.344-0.11-0.65-0.256-0.918-0.437
			c-0.27-0.181-0.484-0.408-0.648-0.683c-0.162-0.273-0.244-0.609-0.244-1.006c0-0.583,0.113-1.061,0.341-1.435
			c0.228-0.373,0.528-0.667,0.901-0.883s0.793-0.368,1.26-0.455c0.466-0.088,0.943-0.131,1.434-0.131s0.965,0.046,1.426,0.14
			s0.871,0.251,1.233,0.472c0.361,0.222,0.661,0.517,0.901,0.884c0.238,0.367,0.381,0.831,0.428,1.391h-2.361
			c-0.035-0.478-0.216-0.802-0.543-0.971c-0.326-0.169-0.711-0.254-1.154-0.254c-0.14,0-0.291,0.009-0.454,0.026
			s-0.312,0.056-0.446,0.114c-0.135,0.058-0.248,0.143-0.341,0.253c-0.094,0.111-0.14,0.26-0.14,0.446
			c0,0.222,0.081,0.402,0.244,0.542c0.164,0.141,0.377,0.254,0.639,0.342c0.262,0.087,0.562,0.166,0.9,0.235
			c0.338,0.07,0.683,0.146,1.033,0.228c0.361,0.082,0.713,0.182,1.058,0.298c0.344,0.116,0.649,0.271,0.919,0.463
			c0.268,0.192,0.483,0.432,0.646,0.718c0.164,0.286,0.245,0.639,0.245,1.059c0,0.595-0.12,1.093-0.358,1.495
			c-0.239,0.402-0.551,0.726-0.936,0.971s-0.826,0.417-1.321,0.517c-0.495,0.099-1,0.148-1.513,0.148
			c-0.525,0-1.039-0.053-1.539-0.157c-0.502-0.105-0.948-0.28-1.339-0.525c-0.391-0.244-0.712-0.568-0.962-0.971
			c-0.251-0.402-0.389-0.906-0.411-1.513h2.361C190.997,10.432,191.053,10.661,191.164,10.854z"/>
		<path fill="#0097D8" d="M198.536,2.658V0.612h2.483v2.046H198.536z M201.02,4.058v9.044h-2.483V4.058H201.02z"/>
		<path fill="#0097D8" d="M207.947,4.058V5.72h-1.819v4.479c0,0.419,0.069,0.699,0.21,0.839c0.14,0.141,0.42,0.21,0.84,0.21
			c0.14,0,0.273-0.006,0.402-0.018c0.128-0.011,0.25-0.028,0.367-0.052v1.924c-0.21,0.035-0.443,0.059-0.699,0.07
			c-0.258,0.011-0.508,0.018-0.753,0.018c-0.385,0-0.749-0.026-1.093-0.079s-0.647-0.154-0.91-0.307
			c-0.262-0.151-0.469-0.367-0.621-0.646c-0.151-0.28-0.227-0.647-0.227-1.103V5.72h-1.505V4.058h1.505V1.347h2.483v2.711H207.947z"
			/>
		<path fill="#0097D8" d="M209.469,5.388c0.256-0.385,0.582-0.694,0.979-0.928c0.396-0.232,0.844-0.399,1.339-0.498
			s0.994-0.148,1.495-0.148c0.455,0,0.916,0.032,1.383,0.096c0.466,0.064,0.892,0.189,1.276,0.376s0.7,0.446,0.944,0.778
			c0.245,0.333,0.367,0.773,0.367,1.321v4.705c0,0.408,0.023,0.799,0.07,1.172c0.047,0.374,0.129,0.653,0.245,0.84h-2.519
			c-0.047-0.14-0.085-0.282-0.114-0.429c-0.029-0.146-0.05-0.294-0.062-0.446c-0.396,0.409-0.863,0.694-1.398,0.857
			c-0.537,0.163-1.085,0.245-1.645,0.245c-0.432,0-0.834-0.053-1.207-0.157c-0.373-0.105-0.699-0.269-0.98-0.49
			c-0.279-0.222-0.498-0.501-0.655-0.84c-0.157-0.338-0.236-0.74-0.236-1.207c0-0.513,0.091-0.936,0.271-1.268
			c0.181-0.333,0.413-0.598,0.7-0.796c0.285-0.198,0.611-0.347,0.979-0.446c0.367-0.099,0.738-0.178,1.111-0.236
			c0.373-0.058,0.74-0.104,1.102-0.14s0.683-0.088,0.963-0.157c0.279-0.07,0.501-0.172,0.664-0.307
			c0.164-0.134,0.239-0.329,0.228-0.586c0-0.268-0.044-0.48-0.132-0.639c-0.087-0.157-0.203-0.279-0.35-0.367
			c-0.146-0.087-0.314-0.146-0.507-0.175s-0.399-0.044-0.621-0.044c-0.489,0-0.874,0.105-1.154,0.315s-0.443,0.56-0.489,1.049
			h-2.484C209.066,6.256,209.212,5.772,209.469,5.388z M214.375,8.895c-0.157,0.053-0.326,0.097-0.508,0.131
			c-0.18,0.035-0.369,0.064-0.568,0.088c-0.198,0.023-0.396,0.053-0.594,0.088c-0.188,0.034-0.371,0.081-0.552,0.14
			s-0.339,0.137-0.472,0.236c-0.135,0.099-0.242,0.225-0.324,0.376s-0.123,0.344-0.123,0.577c0,0.222,0.041,0.408,0.123,0.56
			s0.192,0.271,0.332,0.358c0.141,0.088,0.304,0.149,0.49,0.184c0.187,0.035,0.379,0.053,0.577,0.053
			c0.489,0,0.868-0.081,1.138-0.245c0.268-0.163,0.466-0.358,0.594-0.586c0.129-0.228,0.207-0.457,0.236-0.69s0.044-0.42,0.044-0.56
			V8.676C214.664,8.77,214.532,8.842,214.375,8.895z"/>
		<path fill="#0097D8" d="M221.538,4.058v1.68h0.035c0.116-0.28,0.273-0.539,0.472-0.778c0.199-0.239,0.426-0.443,0.683-0.612
			s0.53-0.3,0.822-0.394c0.291-0.094,0.595-0.14,0.909-0.14c0.164,0,0.344,0.029,0.543,0.087v2.31
			c-0.117-0.023-0.257-0.044-0.42-0.062c-0.164-0.018-0.321-0.026-0.473-0.026c-0.455,0-0.84,0.076-1.154,0.228
			s-0.568,0.358-0.762,0.621c-0.191,0.262-0.329,0.568-0.41,0.918c-0.082,0.35-0.123,0.729-0.123,1.137v4.076h-2.483V4.058H221.538z
			"/>
		<path fill="#0097D8" d="M226.051,2.658V0.612h2.484v2.046H226.051z M228.535,4.058v9.044h-2.484V4.058H228.535z"/>
		<path fill="#0097D8" d="M230.547,6.62c0.221-0.588,0.535-1.09,0.944-1.504c0.407-0.414,0.897-0.734,1.47-0.962
			c0.57-0.228,1.212-0.341,1.924-0.341c0.711,0,1.355,0.113,1.933,0.341s1.069,0.548,1.478,0.962s0.724,0.916,0.945,1.504
			c0.221,0.59,0.332,1.245,0.332,1.969c0,0.723-0.111,1.376-0.332,1.959c-0.222,0.583-0.537,1.082-0.945,1.495
			c-0.408,0.414-0.9,0.732-1.478,0.954c-0.577,0.221-1.222,0.332-1.933,0.332c-0.712,0-1.354-0.111-1.924-0.332
			c-0.572-0.222-1.062-0.54-1.47-0.954c-0.409-0.413-0.724-0.912-0.944-1.495c-0.223-0.583-0.333-1.236-0.333-1.959
			C230.214,7.865,230.324,7.21,230.547,6.62z M232.803,9.646c0.07,0.345,0.189,0.653,0.359,0.928
			c0.168,0.273,0.393,0.492,0.673,0.655c0.28,0.164,0.63,0.245,1.05,0.245s0.771-0.081,1.059-0.245
			c0.285-0.163,0.513-0.382,0.682-0.655c0.169-0.274,0.289-0.583,0.358-0.928c0.07-0.344,0.104-0.696,0.104-1.058
			s-0.034-0.718-0.104-1.067c-0.069-0.35-0.189-0.659-0.358-0.927c-0.169-0.269-0.396-0.487-0.682-0.656
			c-0.287-0.169-0.639-0.254-1.059-0.254s-0.77,0.085-1.05,0.254s-0.505,0.388-0.673,0.656c-0.17,0.268-0.289,0.577-0.359,0.927
			s-0.105,0.706-0.105,1.067S232.732,9.303,232.803,9.646z"/>
	</g>
	<g>
		<path fill="#0097D8" d="M65.725,18.79v18.197h-4.001V18.79H65.725z"/>
		<path fill="#0097D8" d="M72.3,23.812v1.835h0.076c0.459-0.765,1.054-1.321,1.784-1.67c0.73-0.348,1.478-0.522,2.243-0.522
			c0.969,0,1.763,0.132,2.383,0.396c0.62,0.264,1.108,0.629,1.465,1.096c0.356,0.468,0.607,1.036,0.752,1.707
			c0.144,0.672,0.216,1.415,0.216,2.23v8.104h-3.619v-7.441c0-1.088-0.17-1.899-0.509-2.435c-0.34-0.535-0.943-0.803-1.81-0.803
			c-0.986,0-1.699,0.293-2.141,0.879c-0.442,0.587-0.663,1.551-0.663,2.894v6.906h-3.619V23.812H72.3z"/>
		<path fill="#0097D8" d="M82.596,26.232v-2.421h2.167v-1.02c0-1.173,0.365-2.133,1.096-2.88c0.73-0.748,1.835-1.122,3.313-1.122
			c0.323,0,0.646,0.013,0.969,0.038c0.322,0.026,0.637,0.048,0.943,0.064v2.701c-0.425-0.051-0.867-0.076-1.325-0.076
			c-0.493,0-0.846,0.114-1.058,0.344c-0.213,0.229-0.319,0.616-0.319,1.16v0.79h2.498v2.421h-2.498v10.755h-3.619V26.232H82.596z"/>
		<path fill="#0097D8" d="M92.943,25.748c0.374-0.561,0.85-1.011,1.427-1.351s1.228-0.582,1.95-0.727s1.448-0.217,2.179-0.217
			c0.663,0,1.333,0.047,2.013,0.141s1.3,0.276,1.86,0.548c0.561,0.271,1.02,0.649,1.376,1.134s0.535,1.126,0.535,1.925v6.855
			c0,0.595,0.034,1.164,0.102,1.707c0.067,0.544,0.187,0.952,0.357,1.224h-3.67c-0.068-0.204-0.123-0.412-0.166-0.624
			c-0.042-0.213-0.072-0.43-0.089-0.65c-0.578,0.595-1.258,1.011-2.039,1.249c-0.782,0.237-1.58,0.356-2.396,0.356
			c-0.629,0-1.215-0.076-1.759-0.229c-0.544-0.152-1.02-0.391-1.427-0.713c-0.408-0.323-0.726-0.73-0.956-1.224
			c-0.229-0.492-0.344-1.079-0.344-1.759c0-0.747,0.131-1.363,0.395-1.848c0.263-0.484,0.603-0.87,1.02-1.159
			c0.416-0.289,0.892-0.506,1.427-0.65c0.535-0.144,1.074-0.259,1.618-0.344s1.079-0.153,1.606-0.204
			c0.526-0.051,0.994-0.127,1.401-0.229c0.408-0.102,0.73-0.25,0.969-0.445c0.238-0.195,0.348-0.48,0.331-0.854
			c0-0.391-0.063-0.7-0.191-0.93s-0.297-0.408-0.51-0.535c-0.213-0.128-0.459-0.213-0.739-0.255
			c-0.28-0.043-0.582-0.064-0.905-0.064c-0.713,0-1.274,0.153-1.682,0.459c-0.408,0.306-0.646,0.815-0.714,1.529h-3.619
			C92.357,27.014,92.569,26.309,92.943,25.748z M100.092,30.858c-0.229,0.076-0.476,0.14-0.739,0.19
			c-0.264,0.051-0.54,0.094-0.828,0.128c-0.289,0.034-0.578,0.076-0.867,0.127c-0.272,0.051-0.54,0.119-0.803,0.204
			c-0.264,0.085-0.493,0.2-0.688,0.344c-0.196,0.145-0.353,0.328-0.472,0.548c-0.119,0.222-0.178,0.502-0.178,0.842
			c0,0.322,0.059,0.595,0.178,0.815c0.119,0.221,0.28,0.395,0.484,0.522c0.204,0.127,0.441,0.217,0.713,0.268
			s0.552,0.076,0.841,0.076c0.713,0,1.266-0.118,1.657-0.356c0.391-0.238,0.679-0.522,0.866-0.854
			c0.187-0.331,0.302-0.666,0.344-1.006c0.042-0.34,0.063-0.612,0.063-0.816v-1.351C100.512,30.676,100.321,30.781,100.092,30.858z"
			/>
		<path fill="#0097D8" d="M110.528,23.812v1.835h0.076c0.459-0.765,1.054-1.321,1.784-1.67c0.73-0.348,1.478-0.522,2.243-0.522
			c0.969,0,1.763,0.132,2.383,0.396c0.62,0.264,1.108,0.629,1.465,1.096c0.356,0.468,0.607,1.036,0.752,1.707
			c0.144,0.672,0.216,1.415,0.216,2.23v8.104h-3.619v-7.441c0-1.088-0.17-1.899-0.509-2.435c-0.34-0.535-0.943-0.803-1.81-0.803
			c-0.986,0-1.699,0.293-2.141,0.879c-0.442,0.587-0.663,1.551-0.663,2.894v6.906h-3.619V23.812H110.528z"/>
		<path fill="#0097D8" d="M129.438,23.812v2.421h-2.65v6.524c0,0.611,0.102,1.02,0.306,1.223c0.204,0.204,0.612,0.307,1.223,0.307
			c0.204,0,0.399-0.009,0.586-0.025c0.187-0.018,0.365-0.043,0.535-0.077v2.804c-0.306,0.051-0.646,0.085-1.02,0.102
			c-0.374,0.018-0.739,0.025-1.096,0.025c-0.561,0-1.092-0.038-1.593-0.114c-0.501-0.076-0.943-0.225-1.326-0.446
			c-0.382-0.221-0.684-0.535-0.905-0.942c-0.221-0.408-0.331-0.943-0.331-1.605v-7.773h-2.192v-2.421h2.192V19.86h3.619v3.951
			H129.438z"/>
		<path fill="#0097D8" d="M131.655,25.748c0.374-0.561,0.85-1.011,1.427-1.351s1.228-0.582,1.95-0.727s1.448-0.217,2.179-0.217
			c0.663,0,1.333,0.047,2.013,0.141s1.3,0.276,1.86,0.548c0.561,0.271,1.02,0.649,1.376,1.134c0.357,0.484,0.535,1.126,0.535,1.925
			v6.855c0,0.595,0.034,1.164,0.103,1.707c0.067,0.544,0.187,0.952,0.356,1.224h-3.67c-0.068-0.204-0.123-0.412-0.166-0.624
			c-0.042-0.213-0.072-0.43-0.089-0.65c-0.578,0.595-1.258,1.011-2.039,1.249c-0.782,0.237-1.58,0.356-2.396,0.356
			c-0.629,0-1.215-0.076-1.759-0.229c-0.544-0.152-1.02-0.391-1.427-0.713c-0.408-0.323-0.726-0.73-0.956-1.224
			c-0.229-0.492-0.344-1.079-0.344-1.759c0-0.747,0.131-1.363,0.395-1.848c0.263-0.484,0.603-0.87,1.02-1.159
			c0.416-0.289,0.892-0.506,1.427-0.65c0.535-0.144,1.074-0.259,1.618-0.344s1.079-0.153,1.606-0.204
			c0.526-0.051,0.994-0.127,1.401-0.229c0.408-0.102,0.73-0.25,0.969-0.445c0.238-0.195,0.348-0.48,0.331-0.854
			c0-0.391-0.063-0.7-0.191-0.93s-0.297-0.408-0.51-0.535c-0.213-0.128-0.459-0.213-0.739-0.255
			c-0.28-0.043-0.582-0.064-0.905-0.064c-0.713,0-1.274,0.153-1.682,0.459c-0.408,0.306-0.646,0.815-0.714,1.529h-3.619
			C131.069,27.014,131.281,26.309,131.655,25.748z M138.804,30.858c-0.229,0.076-0.476,0.14-0.739,0.19
			c-0.264,0.051-0.54,0.094-0.828,0.128c-0.289,0.034-0.578,0.076-0.867,0.127c-0.272,0.051-0.54,0.119-0.803,0.204
			c-0.264,0.085-0.493,0.2-0.688,0.344c-0.196,0.145-0.353,0.328-0.472,0.548c-0.119,0.222-0.178,0.502-0.178,0.842
			c0,0.322,0.059,0.595,0.178,0.815c0.119,0.221,0.28,0.395,0.484,0.522c0.204,0.127,0.441,0.217,0.713,0.268
			s0.552,0.076,0.841,0.076c0.713,0,1.266-0.118,1.657-0.356c0.391-0.238,0.679-0.522,0.866-0.854
			c0.187-0.331,0.302-0.666,0.344-1.006c0.042-0.34,0.063-0.612,0.063-0.816v-1.351C139.225,30.676,139.034,30.781,138.804,30.858z"
			/>
		<path fill="#0097D8" d="M156.325,32.502c0.221,0.425,0.514,0.769,0.88,1.032c0.364,0.264,0.793,0.459,1.286,0.586
			c0.493,0.128,1.003,0.191,1.529,0.191c0.356,0,0.739-0.029,1.147-0.09c0.407-0.059,0.789-0.174,1.146-0.344
			c0.356-0.17,0.654-0.403,0.893-0.701c0.236-0.297,0.355-0.675,0.355-1.134c0-0.492-0.156-0.892-0.471-1.198
			c-0.314-0.306-0.727-0.561-1.236-0.764c-0.51-0.204-1.088-0.383-1.732-0.535c-0.646-0.153-1.301-0.323-1.963-0.51
			c-0.68-0.17-1.342-0.378-1.988-0.625c-0.646-0.246-1.223-0.564-1.732-0.955c-0.51-0.392-0.922-0.88-1.236-1.466
			s-0.472-1.296-0.472-2.128c0-0.935,0.2-1.746,0.599-2.435c0.399-0.688,0.922-1.261,1.568-1.72c0.645-0.459,1.375-0.799,2.191-1.02
			c0.815-0.221,1.631-0.331,2.446-0.331c0.952,0,1.864,0.106,2.739,0.318c0.875,0.213,1.652,0.557,2.332,1.032
			s1.22,1.083,1.619,1.822c0.398,0.739,0.599,1.636,0.599,2.688h-3.874c-0.034-0.543-0.148-0.994-0.344-1.351
			s-0.455-0.637-0.777-0.841s-0.692-0.349-1.108-0.434c-0.417-0.085-0.871-0.127-1.364-0.127c-0.322,0-0.646,0.034-0.968,0.102
			c-0.323,0.068-0.616,0.188-0.88,0.356c-0.264,0.17-0.48,0.383-0.649,0.638c-0.17,0.255-0.255,0.577-0.255,0.968
			c0,0.357,0.068,0.646,0.204,0.867s0.403,0.425,0.803,0.611c0.399,0.188,0.951,0.374,1.656,0.561
			c0.705,0.188,1.627,0.425,2.766,0.714c0.339,0.068,0.812,0.191,1.414,0.369c0.603,0.179,1.202,0.464,1.797,0.854
			s1.108,0.913,1.542,1.567s0.65,1.49,0.65,2.51c0,0.833-0.162,1.605-0.484,2.319c-0.323,0.714-0.803,1.33-1.44,1.848
			c-0.638,0.519-1.427,0.922-2.37,1.211s-2.035,0.434-3.275,0.434c-1.002,0-1.975-0.124-2.918-0.37s-1.775-0.633-2.497-1.159
			c-0.723-0.526-1.296-1.198-1.721-2.014s-0.628-1.784-0.611-2.905h3.874C155.994,31.559,156.104,32.077,156.325,32.502z"/>
		<path fill="#0097D8" d="M169.501,27.545c0.323-0.857,0.781-1.589,1.376-2.192c0.595-0.603,1.309-1.07,2.141-1.401
			c0.833-0.331,1.768-0.497,2.805-0.497c1.035,0,1.975,0.166,2.815,0.497s1.559,0.799,2.153,1.401
			c0.595,0.604,1.054,1.335,1.377,2.192c0.322,0.858,0.484,1.813,0.484,2.867s-0.162,2.005-0.484,2.854
			c-0.323,0.85-0.782,1.576-1.377,2.179c-0.595,0.604-1.312,1.066-2.153,1.389c-0.841,0.323-1.78,0.484-2.815,0.484
			c-1.037,0-1.972-0.161-2.805-0.484c-0.832-0.322-1.546-0.785-2.141-1.389c-0.595-0.603-1.053-1.329-1.376-2.179
			s-0.484-1.801-0.484-2.854S169.178,28.403,169.501,27.545z M172.789,31.954c0.102,0.501,0.275,0.951,0.521,1.351
			s0.574,0.718,0.982,0.956c0.407,0.237,0.917,0.356,1.529,0.356c0.611,0,1.125-0.119,1.541-0.356
			c0.416-0.238,0.748-0.557,0.994-0.956s0.42-0.85,0.522-1.351s0.153-1.016,0.153-1.542s-0.051-1.045-0.153-1.555
			s-0.276-0.96-0.522-1.351s-0.578-0.71-0.994-0.956s-0.93-0.369-1.541-0.369c-0.612,0-1.122,0.123-1.529,0.369
			c-0.408,0.246-0.736,0.565-0.982,0.956s-0.42,0.841-0.521,1.351s-0.153,1.028-0.153,1.555S172.688,31.453,172.789,31.954z"/>
		<path fill="#0097D8" d="M183.62,26.232v-2.421h2.167v-1.02c0-1.173,0.364-2.133,1.096-2.88c0.73-0.748,1.834-1.122,3.312-1.122
			c0.322,0,0.646,0.013,0.969,0.038c0.322,0.026,0.637,0.048,0.943,0.064v2.701c-0.426-0.051-0.867-0.076-1.326-0.076
			c-0.492,0-0.846,0.114-1.057,0.344c-0.213,0.229-0.319,0.616-0.319,1.16v0.79h2.497v2.421h-2.497v10.755h-3.618V26.232H183.62z"/>
		<path fill="#0097D8" d="M193.482,22.18l2.447-3.619h4.001l-3.925,3.619H193.482z M197.203,23.812v13.176h-3.619V23.812H197.203z"
			/>
		<path fill="#0097D8" d="M200.543,25.748c0.373-0.561,0.85-1.011,1.427-1.351s1.228-0.582,1.95-0.727
			c0.722-0.145,1.447-0.217,2.179-0.217c0.663,0,1.333,0.047,2.013,0.141s1.301,0.276,1.861,0.548s1.02,0.649,1.376,1.134
			s0.535,1.126,0.535,1.925v6.855c0,0.595,0.034,1.164,0.103,1.707c0.066,0.544,0.186,0.952,0.356,1.224h-3.671
			c-0.067-0.204-0.123-0.412-0.165-0.624c-0.042-0.213-0.072-0.43-0.089-0.65c-0.578,0.595-1.258,1.011-2.039,1.249
			c-0.781,0.237-1.58,0.356-2.396,0.356c-0.629,0-1.216-0.076-1.759-0.229c-0.544-0.152-1.02-0.391-1.428-0.713
			c-0.407-0.323-0.726-0.73-0.955-1.224c-0.229-0.492-0.344-1.079-0.344-1.759c0-0.747,0.131-1.363,0.395-1.848
			s0.604-0.87,1.02-1.159s0.893-0.506,1.428-0.65c0.535-0.144,1.074-0.259,1.617-0.344c0.545-0.085,1.08-0.153,1.606-0.204
			s0.993-0.127,1.401-0.229c0.408-0.102,0.73-0.25,0.969-0.445s0.348-0.48,0.331-0.854c0-0.391-0.063-0.7-0.19-0.93
			c-0.128-0.229-0.298-0.408-0.51-0.535c-0.213-0.128-0.459-0.213-0.74-0.255c-0.279-0.043-0.582-0.064-0.904-0.064
			c-0.713,0-1.273,0.153-1.682,0.459s-0.646,0.815-0.714,1.529h-3.619C199.957,27.014,200.168,26.309,200.543,25.748z
			 M207.691,30.858c-0.229,0.076-0.477,0.14-0.739,0.19c-0.264,0.051-0.54,0.094-0.828,0.128c-0.289,0.034-0.577,0.076-0.866,0.127
			c-0.272,0.051-0.54,0.119-0.803,0.204c-0.264,0.085-0.493,0.2-0.688,0.344c-0.196,0.145-0.353,0.328-0.472,0.548
			c-0.119,0.222-0.178,0.502-0.178,0.842c0,0.322,0.059,0.595,0.178,0.815s0.28,0.395,0.484,0.522
			c0.204,0.127,0.441,0.217,0.713,0.268c0.272,0.051,0.553,0.076,0.842,0.076c0.713,0,1.266-0.118,1.656-0.356
			s0.68-0.522,0.867-0.854c0.187-0.331,0.301-0.666,0.344-1.006c0.042-0.34,0.063-0.612,0.063-0.816v-1.351
			C208.111,30.676,207.921,30.781,207.691,30.858z"/>
	</g>
</g>
</svg>
