<?xml version="1.0" encoding="utf-8"?>
<!-- Generator: Adobe Illustrator 16.0.0, SVG Export Plug-In . SVG Version: 6.00 Build 0)  -->
<!DOCTYPE svg PUBLIC "-//W3C//DTD SVG 1.1//EN" "http://www.w3.org/Graphics/SVG/1.1/DTD/svg11.dtd">
<svg version="1.1" id="Capa_1" xmlns="http://www.w3.org/2000/svg" xmlns:xlink="http://www.w3.org/1999/xlink" x="0px" y="0px"
	 width="265.828px" height="53.553px" viewBox="0 0 265.828 53.553" enable-background="new 0 0 265.828 53.553"
	 xml:space="preserve">
<g>
	<path fill="#E63027" d="M0.004,34.522c-0.082,1.805,1.207,2.594,2.96,2.594c2.626,0,2.833-1.609,2.833-2.117
		c0-1.213-0.871-1.67-1.92-1.951L2.07,32.601c-0.602-0.143-1.119-0.434-1.119-1.131c0-1.1,0.895-1.473,1.859-1.473
		c1.047,0,1.979,0.572,2.021,1.699h0.705c0.013-1.512-1.276-2.301-2.738-2.301c-2.088,0-2.555,1.357-2.555,2.086
		c0,1.15,0.801,1.566,1.672,1.785l1.65,0.404c0.686,0.166,1.525,0.496,1.525,1.338c0,1.08-1.184,1.504-1.96,1.504
		c-1.351,0-2.45-0.467-2.421-1.99H0.004"/>
	<path fill-rule="evenodd" clip-rule="evenodd" fill="#E63027" d="M7.156,33.247c0.021-0.875,0.623-1.248,1.432-1.248
		c0.768,0,1.402,0.215,1.402,1.102c0,0.592-0.302,0.664-0.841,0.723c-1.412,0.17-2.874,0.221-2.874,1.727
		c0,1.078,0.809,1.566,1.795,1.566c1.027,0,1.494-0.395,1.95-1.09h0.021c0,0.561,0.104,0.934,0.768,0.934
		c0.179,0,0.28-0.012,0.426-0.039V36.37c-0.051,0.02-0.134,0.041-0.206,0.041c-0.259,0-0.385-0.145-0.385-0.396v-2.842
		c0-1.432-1.028-1.723-1.972-1.723c-1.225,0-2.108,0.539-2.17,1.797H7.156 M9.99,34.886c0.01,1.047-0.872,1.682-1.868,1.682
		c-0.614,0-1.194-0.408-1.194-1.061c0-1.047,1.381-1.037,2.49-1.234c0.178-0.031,0.468-0.084,0.551-0.24H9.99V34.886z"/>
	<rect x="11.732" y="29.552" fill="#E63027" width="0.654" height="7.408"/>
	<path fill="#E63027" d="M17.752,31.604h-0.654v2.812c0,1.09-0.489,2.146-1.609,2.146c-1.036,0-1.402-0.506-1.432-1.473v-3.486
		h-0.652v3.477c0,1.246,0.529,2.035,1.877,2.035c0.799,0,1.506-0.408,1.847-1.119h0.022v0.965h0.602V31.604"/>
	<path fill-rule="evenodd" clip-rule="evenodd" fill="#E63027" d="M23.471,29.565h-0.654v3.074h-0.02
		c-0.282-0.771-1.061-1.174-1.858-1.174c-1.631,0-2.409,1.314-2.409,2.832s0.778,2.834,2.409,2.834c0.778,0,1.629-0.479,1.909-1.172
		h0.02v1.016h0.604V29.565 M19.185,34.298c0-1.111,0.507-2.283,1.754-2.283c1.39,0,1.878,1.172,1.878,2.283
		s-0.488,2.285-1.878,2.285C19.691,36.583,19.185,35.409,19.185,34.298"/>
	<polygon fill="#0097D8" points="24.592,36.976 25.297,36.976 25.297,30.571 25.318,30.571 27.859,36.976 28.524,36.976 
		31.057,30.571 31.078,30.571 31.078,36.976 31.784,36.976 31.784,29.565 30.748,29.565 28.193,36.063 25.63,29.565 24.592,29.565 	
		"/>
	<path fill-rule="evenodd" clip-rule="evenodd" fill="#0097D8" d="M33.494,33.263c0.02-0.875,0.622-1.248,1.432-1.248
		c0.77,0,1.4,0.219,1.4,1.1c0,0.594-0.301,0.668-0.84,0.729c-1.412,0.166-2.876,0.215-2.876,1.723c0,1.08,0.812,1.566,1.796,1.566
		c1.028,0,1.495-0.395,1.951-1.092h0.022c0,0.562,0.104,0.936,0.768,0.936c0.177,0,0.278-0.012,0.426-0.039v-0.549
		c-0.054,0.016-0.136,0.037-0.206,0.037c-0.262,0-0.385-0.145-0.385-0.395v-2.842c0-1.434-1.027-1.723-1.975-1.723
		c-1.224,0-2.104,0.537-2.168,1.797H33.494 M36.326,34.901c0.011,1.047-0.871,1.682-1.867,1.682c-0.612,0-1.193-0.408-1.193-1.062
		c0-1.049,1.379-1.035,2.49-1.236c0.178-0.027,0.469-0.078,0.551-0.236h0.02V34.901z"/>
	<path fill-rule="evenodd" clip-rule="evenodd" fill="#0097D8" d="M42.772,29.565h-0.653v3.074h-0.021
		c-0.282-0.771-1.059-1.174-1.857-1.174c-1.632,0-2.41,1.314-2.41,2.832s0.778,2.834,2.41,2.834c0.776,0,1.628-0.479,1.909-1.172
		h0.021v1.016h0.601V29.565 M38.486,34.298c0-1.111,0.509-2.283,1.755-2.283c1.389,0,1.878,1.172,1.878,2.283
		s-0.489,2.285-1.878,2.285C38.995,36.583,38.486,35.409,38.486,34.298"/>
	<path fill="#0097D8" d="M43.79,36.976h0.653v-2.854c0-1.109,0.811-1.984,1.994-1.918v-0.656c-0.965-0.041-1.693,0.467-2.026,1.328
		h-0.019v-1.254H43.79V36.976"/>
	<path fill-rule="evenodd" clip-rule="evenodd" fill="#0097D8" d="M46.841,30.614h0.654v-1.049h-0.654V30.614z M46.841,36.976h0.654
		v-5.354h-0.654V36.976z"/>
	<path fill-rule="evenodd" clip-rule="evenodd" fill="#0097D8" d="M53.234,29.565H52.58v3.074h-0.021
		c-0.28-0.771-1.058-1.174-1.857-1.174c-1.63,0-2.408,1.314-2.408,2.832s0.778,2.834,2.408,2.834c0.778,0,1.629-0.479,1.908-1.172
		h0.021v1.016h0.604V29.565 M48.947,34.298c0-1.111,0.508-2.283,1.754-2.283c1.391,0,1.879,1.172,1.879,2.283
		s-0.488,2.285-1.879,2.285C49.455,36.583,48.947,35.409,48.947,34.298"/>
	<rect x="27.664" y="0.5" fill="#E63027" stroke="#FFFFFF" width="25.586" height="25.241"/>
	<polygon fill="#FFFFFF" points="32.568,8.963 32.053,10.548 30.367,10.569 31.736,11.529 31.242,13.079 32.568,12.129 
		33.914,13.062 33.398,11.511 34.744,10.528 33.089,10.548 	"/>
	<polygon fill="#FFFFFF" points="37.87,8.963 37.357,10.548 35.673,10.569 37.038,11.529 36.546,13.079 37.87,12.129 39.215,13.062 
		38.703,11.511 40.049,10.528 38.393,10.548 	"/>
	<polygon fill="#FFFFFF" points="43.197,8.963 42.685,10.548 40.998,10.569 42.367,11.529 41.873,13.079 43.197,12.129 
		44.543,13.062 44.029,11.511 45.375,10.528 43.723,10.548 	"/>
	<polygon fill="#FFFFFF" points="40.519,12.577 40.005,14.162 38.317,14.182 39.688,15.145 39.188,16.693 40.519,15.743 
		41.864,16.676 41.351,15.125 42.694,14.143 41.04,14.162 	"/>
	<polygon fill="#FFFFFF" points="35.205,12.577 34.689,14.162 33.008,14.182 34.372,15.145 33.879,16.693 35.205,15.743 
		36.549,16.676 36.035,15.125 37.38,14.143 35.727,14.162 	"/>
	<polygon fill="#FFFFFF" points="45.854,12.577 45.34,14.162 43.656,14.182 45.021,15.145 44.527,16.693 45.854,15.743 
		47.199,16.676 46.687,15.125 48.031,14.143 46.378,14.162 	"/>
	<polygon fill="#FFFFFF" points="48.52,8.963 48.002,10.548 46.321,10.569 47.686,11.529 47.193,13.079 48.52,12.129 49.863,13.062 
		49.348,11.511 50.694,10.528 49.043,10.548 	"/>
	<polygon fill="#0097D8" points="19.52,25.741 6.054,25.214 5.755,20.474 0.111,19.869 1.617,7.158 5.529,6.854 5.604,0.537 
		11.695,0.688 12.146,7.532 3.572,11.296 12.977,13.704 14.105,23.253 19.145,14.982 26.14,16.636 26.441,20.173 19.822,20.622 	"/>
	<polygon fill="#0097D8" points="13.934,0.76 17.871,5.068 19.357,4.328 19.061,0.837 	"/>
	<polygon fill="#0097D8" points="21.885,9.455 26.043,14.215 26.119,7.076 23.814,6.705 	"/>
	<g>
		<path fill="#0097D8" d="M64.476,0.612v12.489h-2.746V0.612H64.476z"/>
		<path fill="#0097D8" d="M68.989,4.058v1.26h0.052c0.315-0.524,0.723-0.906,1.225-1.146s1.015-0.358,1.54-0.358
			c0.665,0,1.209,0.09,1.635,0.271s0.761,0.432,1.006,0.752c0.245,0.321,0.417,0.712,0.516,1.173c0.099,0.46,0.148,0.971,0.148,1.53
			v5.562h-2.484V7.994c0-0.746-0.117-1.304-0.35-1.671c-0.233-0.367-0.647-0.551-1.242-0.551c-0.676,0-1.166,0.201-1.469,0.604
			s-0.455,1.064-0.455,1.985v4.74h-2.484V4.058H68.989z"/>
		<path fill="#0097D8" d="M79.091,10.854c0.11,0.192,0.253,0.351,0.428,0.473c0.175,0.122,0.376,0.213,0.604,0.271
			c0.228,0.058,0.464,0.087,0.708,0.087c0.175,0,0.359-0.021,0.551-0.062c0.192-0.04,0.367-0.104,0.524-0.192
			c0.158-0.087,0.289-0.203,0.394-0.35c0.105-0.146,0.158-0.329,0.158-0.551c0-0.373-0.248-0.653-0.744-0.84
			s-1.187-0.373-2.073-0.56c-0.362-0.081-0.714-0.178-1.058-0.289c-0.344-0.11-0.65-0.256-0.918-0.437
			c-0.269-0.181-0.484-0.408-0.647-0.683c-0.163-0.273-0.245-0.609-0.245-1.006c0-0.583,0.114-1.061,0.341-1.435
			c0.228-0.373,0.528-0.667,0.901-0.883s0.793-0.368,1.26-0.455c0.466-0.088,0.944-0.131,1.434-0.131s0.965,0.046,1.426,0.14
			c0.46,0.094,0.872,0.251,1.233,0.472c0.361,0.222,0.662,0.517,0.901,0.884c0.239,0.367,0.382,0.831,0.428,1.391h-2.361
			C82.3,6.222,82.12,5.897,81.793,5.729c-0.326-0.169-0.711-0.254-1.154-0.254c-0.14,0-0.292,0.009-0.455,0.026
			c-0.164,0.018-0.312,0.056-0.446,0.114c-0.134,0.058-0.248,0.143-0.341,0.253c-0.094,0.111-0.14,0.26-0.14,0.446
			c0,0.222,0.082,0.402,0.245,0.542c0.164,0.141,0.376,0.254,0.639,0.342c0.262,0.087,0.562,0.166,0.901,0.235
			c0.338,0.07,0.682,0.146,1.032,0.228c0.361,0.082,0.714,0.182,1.058,0.298c0.344,0.116,0.65,0.271,0.918,0.463
			c0.268,0.192,0.484,0.432,0.647,0.718c0.164,0.286,0.245,0.639,0.245,1.059c0,0.595-0.12,1.093-0.358,1.495
			c-0.239,0.402-0.551,0.726-0.936,0.971s-0.825,0.417-1.321,0.517c-0.496,0.099-1,0.148-1.513,0.148
			c-0.524,0-1.038-0.053-1.539-0.157c-0.501-0.105-0.948-0.28-1.338-0.525c-0.391-0.244-0.711-0.568-0.962-0.971
			c-0.251-0.402-0.388-0.906-0.411-1.513h2.361C78.924,10.432,78.979,10.661,79.091,10.854z"/>
		<path fill="#0097D8" d="M91.361,4.058V5.72h-1.819v4.479c0,0.419,0.07,0.699,0.21,0.839c0.14,0.141,0.42,0.21,0.839,0.21
			c0.14,0,0.274-0.006,0.402-0.018c0.128-0.011,0.251-0.028,0.368-0.052v1.924c-0.21,0.035-0.443,0.059-0.7,0.07
			c-0.257,0.011-0.507,0.018-0.752,0.018c-0.385,0-0.75-0.026-1.093-0.079s-0.647-0.154-0.91-0.307
			c-0.262-0.151-0.469-0.367-0.621-0.646c-0.152-0.28-0.228-0.647-0.228-1.103V5.72h-1.504V4.058h1.504V1.347h2.484v2.711H91.361z"
			/>
		<path fill="#0097D8" d="M92.621,2.658V0.612h2.484v2.046H92.621z M95.104,4.058v9.044h-2.484V4.058H95.104z"/>
		<path fill="#0097D8" d="M102.032,4.058V5.72h-1.819v4.479c0,0.419,0.07,0.699,0.21,0.839c0.14,0.141,0.42,0.21,0.839,0.21
			c0.14,0,0.274-0.006,0.402-0.018c0.128-0.011,0.251-0.028,0.368-0.052v1.924c-0.21,0.035-0.443,0.059-0.7,0.07
			c-0.257,0.011-0.507,0.018-0.752,0.018c-0.385,0-0.75-0.026-1.093-0.079s-0.647-0.154-0.91-0.307
			c-0.262-0.151-0.469-0.367-0.621-0.646c-0.152-0.28-0.228-0.647-0.228-1.103V5.72h-1.504V4.058h1.504V1.347h2.484v2.711H102.032z"
			/>
		<path fill="#0097D8" d="M109.343,13.102v-1.26h-0.052c-0.315,0.525-0.723,0.904-1.225,1.138c-0.501,0.232-1.015,0.35-1.54,0.35
			c-0.665,0-1.21-0.088-1.635-0.263c-0.426-0.175-0.761-0.423-1.006-0.743c-0.245-0.32-0.417-0.711-0.516-1.172
			s-0.148-0.971-0.148-1.531V4.058h2.484v5.108c0,0.746,0.116,1.303,0.35,1.67c0.233,0.368,0.647,0.552,1.242,0.552
			c0.676,0,1.166-0.201,1.469-0.604s0.455-1.064,0.455-1.985V4.058h2.484v9.044H109.343z"/>
		<path fill="#0097D8" d="M118.562,4.058V5.72h-1.819v4.479c0,0.419,0.07,0.699,0.21,0.839c0.14,0.141,0.42,0.21,0.839,0.21
			c0.14,0,0.274-0.006,0.402-0.018c0.128-0.011,0.251-0.028,0.368-0.052v1.924c-0.21,0.035-0.443,0.059-0.7,0.07
			c-0.257,0.011-0.507,0.018-0.752,0.018c-0.385,0-0.75-0.026-1.093-0.079s-0.647-0.154-0.91-0.307
			c-0.262-0.151-0.469-0.367-0.621-0.646c-0.152-0.28-0.228-0.647-0.228-1.103V5.72h-1.504V4.058h1.504V1.347h2.484v2.711H118.562z"
			/>
		<path fill="#0097D8" d="M119.803,6.62c0.221-0.588,0.536-1.09,0.945-1.504c0.408-0.414,0.897-0.734,1.469-0.962
			c0.571-0.228,1.212-0.341,1.924-0.341c0.711,0,1.355,0.113,1.933,0.341s1.07,0.548,1.478,0.962s0.723,0.916,0.945,1.504
			c0.221,0.59,0.333,1.245,0.333,1.969c0,0.723-0.111,1.376-0.333,1.959c-0.222,0.583-0.537,1.082-0.945,1.495
			c-0.408,0.414-0.901,0.732-1.478,0.954c-0.577,0.221-1.222,0.332-1.933,0.332c-0.712,0-1.353-0.111-1.924-0.332
			c-0.572-0.222-1.062-0.54-1.469-0.954c-0.409-0.413-0.724-0.912-0.945-1.495c-0.222-0.583-0.333-1.236-0.333-1.959
			C119.471,7.865,119.582,7.21,119.803,6.62z M122.06,9.646c0.07,0.345,0.189,0.653,0.359,0.928
			c0.169,0.273,0.394,0.492,0.673,0.655c0.28,0.164,0.63,0.245,1.05,0.245c0.419,0,0.772-0.081,1.058-0.245
			c0.286-0.163,0.513-0.382,0.682-0.655c0.169-0.274,0.289-0.583,0.358-0.928c0.07-0.344,0.105-0.696,0.105-1.058
			s-0.035-0.718-0.105-1.067c-0.07-0.35-0.189-0.659-0.358-0.927c-0.169-0.269-0.396-0.487-0.682-0.656
			c-0.286-0.169-0.639-0.254-1.058-0.254c-0.42,0-0.77,0.085-1.05,0.254s-0.504,0.388-0.673,0.656
			c-0.169,0.268-0.289,0.577-0.359,0.927c-0.07,0.35-0.105,0.706-0.105,1.067S121.99,9.303,122.06,9.646z"/>
		<path fill="#0097D8" d="M141.196,0.612c0.781,0,1.446,0.113,1.994,0.341s0.994,0.527,1.339,0.9
			c0.344,0.374,0.594,0.799,0.752,1.277c0.157,0.479,0.236,0.974,0.236,1.487c0,0.501-0.079,0.994-0.236,1.478
			c-0.158,0.484-0.408,0.913-0.752,1.286c-0.345,0.373-0.791,0.673-1.339,0.9s-1.213,0.341-1.994,0.341h-2.886v4.479h-2.746V0.612
			H141.196z M140.444,6.489c0.315,0,0.618-0.023,0.91-0.07c0.292-0.046,0.548-0.137,0.77-0.271c0.222-0.134,0.4-0.324,0.534-0.568
			c0.134-0.245,0.201-0.565,0.201-0.962s-0.067-0.718-0.201-0.963c-0.134-0.244-0.312-0.434-0.534-0.568
			c-0.222-0.134-0.478-0.225-0.77-0.271c-0.292-0.047-0.595-0.07-0.91-0.07h-2.134v3.743H140.444z"/>
		<path fill="#0097D8" d="M149.059,10.854c0.111,0.192,0.254,0.351,0.429,0.473s0.376,0.213,0.604,0.271
			c0.228,0.058,0.464,0.087,0.708,0.087c0.176,0,0.359-0.021,0.552-0.062c0.192-0.04,0.367-0.104,0.524-0.192
			c0.158-0.087,0.289-0.203,0.394-0.35c0.104-0.146,0.157-0.329,0.157-0.551c0-0.373-0.248-0.653-0.743-0.84
			s-1.187-0.373-2.073-0.56c-0.361-0.081-0.714-0.178-1.058-0.289c-0.345-0.11-0.65-0.256-0.919-0.437
			c-0.268-0.181-0.483-0.408-0.646-0.683c-0.164-0.273-0.245-0.609-0.245-1.006c0-0.583,0.114-1.061,0.341-1.435
			c0.228-0.373,0.527-0.667,0.9-0.883s0.793-0.368,1.26-0.455c0.467-0.088,0.945-0.131,1.435-0.131s0.965,0.046,1.426,0.14
			c0.46,0.094,0.872,0.251,1.233,0.472c0.361,0.222,0.662,0.517,0.9,0.884c0.239,0.367,0.383,0.831,0.429,1.391h-2.361
			c-0.035-0.478-0.216-0.802-0.542-0.971s-0.712-0.254-1.154-0.254c-0.141,0-0.292,0.009-0.455,0.026
			c-0.164,0.018-0.312,0.056-0.446,0.114c-0.134,0.058-0.248,0.143-0.341,0.253c-0.094,0.111-0.141,0.26-0.141,0.446
			c0,0.222,0.082,0.402,0.245,0.542c0.163,0.141,0.376,0.254,0.639,0.342c0.263,0.087,0.562,0.166,0.901,0.235
			c0.338,0.07,0.682,0.146,1.031,0.228c0.361,0.082,0.715,0.182,1.059,0.298s0.65,0.271,0.918,0.463
			c0.269,0.192,0.484,0.432,0.647,0.718s0.245,0.639,0.245,1.059c0,0.595-0.119,1.093-0.358,1.495s-0.552,0.726-0.937,0.971
			s-0.824,0.417-1.32,0.517c-0.496,0.099-1,0.148-1.514,0.148c-0.523,0-1.037-0.053-1.539-0.157
			c-0.501-0.105-0.947-0.28-1.338-0.525c-0.391-0.244-0.711-0.568-0.962-0.971s-0.388-0.906-0.411-1.513h2.361
			C148.893,10.432,148.947,10.661,149.059,10.854z"/>
		<path fill="#0097D8" d="M156.432,2.658V0.612h2.484v2.046H156.432z M158.916,4.058v9.044h-2.484V4.058H158.916z"/>
		<path fill="#0097D8" d="M167.207,16.268v-4.303h-0.035c-0.291,0.489-0.699,0.839-1.225,1.049c-0.524,0.21-1.066,0.315-1.627,0.315
			c-0.42,0-0.854-0.079-1.303-0.236s-0.86-0.42-1.233-0.787s-0.683-0.852-0.927-1.452c-0.245-0.601-0.367-1.338-0.367-2.213
			c0-0.617,0.081-1.218,0.244-1.802c0.164-0.583,0.414-1.099,0.752-1.548c0.339-0.448,0.762-0.808,1.27-1.075
			c0.507-0.269,1.104-0.402,1.793-0.402c0.559,0,1.086,0.107,1.582,0.323s0.884,0.574,1.164,1.076h0.035V4.058h2.361v12.21H167.207z
			 M163.078,9.646c0.07,0.345,0.189,0.653,0.359,0.928c0.169,0.273,0.391,0.492,0.664,0.655c0.274,0.164,0.615,0.245,1.023,0.245
			s0.75-0.078,1.023-0.236c0.274-0.157,0.496-0.367,0.665-0.63c0.169-0.262,0.292-0.565,0.367-0.909s0.114-0.702,0.114-1.076
			c0-0.35-0.039-0.699-0.114-1.049c-0.075-0.351-0.195-0.665-0.358-0.945c-0.164-0.279-0.383-0.507-0.656-0.682
			s-0.604-0.263-0.988-0.263c-0.408,0-0.752,0.082-1.031,0.245c-0.28,0.163-0.508,0.382-0.683,0.656
			c-0.175,0.273-0.301,0.583-0.376,0.927c-0.076,0.344-0.114,0.703-0.114,1.076C162.974,8.95,163.009,9.303,163.078,9.646z"/>
		<path fill="#0097D8" d="M177.686,13.102v-1.26h-0.053c-0.314,0.525-0.723,0.904-1.225,1.138c-0.502,0.232-1.015,0.35-1.539,0.35
			c-0.665,0-1.211-0.088-1.636-0.263c-0.426-0.175-0.761-0.423-1.006-0.743s-0.417-0.711-0.517-1.172
			c-0.099-0.461-0.148-0.971-0.148-1.531V4.058h2.484v5.108c0,0.746,0.116,1.303,0.35,1.67c0.233,0.368,0.647,0.552,1.242,0.552
			c0.676,0,1.166-0.201,1.469-0.604c0.304-0.402,0.455-1.064,0.455-1.985V4.058h2.484v9.044H177.686z"/>
		<path fill="#0097D8" d="M182.006,2.658V0.612h2.483v2.046H182.006z M184.489,4.058v9.044h-2.483V4.058H184.489z"/>
		<path fill="#0097D8" d="M186.781,5.388c0.256-0.385,0.582-0.694,0.979-0.928c0.396-0.232,0.844-0.399,1.339-0.498
			s0.994-0.148,1.495-0.148c0.455,0,0.916,0.032,1.383,0.096c0.466,0.064,0.892,0.189,1.276,0.376s0.7,0.446,0.944,0.778
			c0.245,0.333,0.367,0.773,0.367,1.321v4.705c0,0.408,0.023,0.799,0.07,1.172c0.047,0.374,0.129,0.653,0.245,0.84h-2.519
			c-0.047-0.14-0.085-0.282-0.114-0.429c-0.029-0.146-0.05-0.294-0.062-0.446c-0.396,0.409-0.863,0.694-1.398,0.857
			c-0.537,0.163-1.085,0.245-1.645,0.245c-0.432,0-0.834-0.053-1.207-0.157c-0.373-0.105-0.699-0.269-0.98-0.49
			c-0.279-0.222-0.498-0.501-0.655-0.84c-0.157-0.338-0.236-0.74-0.236-1.207c0-0.513,0.091-0.936,0.271-1.268
			c0.181-0.333,0.413-0.598,0.7-0.796c0.285-0.198,0.611-0.347,0.979-0.446c0.367-0.099,0.738-0.178,1.111-0.236
			c0.373-0.058,0.74-0.104,1.102-0.14s0.683-0.088,0.963-0.157c0.279-0.07,0.501-0.172,0.664-0.307
			c0.164-0.134,0.239-0.329,0.228-0.586c0-0.268-0.044-0.48-0.132-0.639c-0.087-0.157-0.203-0.279-0.35-0.367
			c-0.146-0.087-0.314-0.146-0.507-0.175s-0.399-0.044-0.621-0.044c-0.489,0-0.874,0.105-1.154,0.315s-0.443,0.56-0.489,1.049
			h-2.484C186.379,6.256,186.524,5.772,186.781,5.388z M191.688,8.895c-0.157,0.053-0.326,0.097-0.508,0.131
			c-0.18,0.035-0.369,0.064-0.568,0.088c-0.198,0.023-0.396,0.053-0.594,0.088c-0.188,0.034-0.371,0.081-0.552,0.14
			s-0.339,0.137-0.472,0.236c-0.135,0.099-0.242,0.225-0.324,0.376s-0.123,0.344-0.123,0.577c0,0.222,0.041,0.408,0.123,0.56
			s0.192,0.271,0.332,0.358c0.141,0.088,0.304,0.149,0.49,0.184c0.187,0.035,0.379,0.053,0.577,0.053
			c0.489,0,0.868-0.081,1.138-0.245c0.268-0.163,0.466-0.358,0.594-0.586c0.129-0.228,0.207-0.457,0.236-0.69s0.044-0.42,0.044-0.56
			V8.676C191.977,8.77,191.845,8.842,191.688,8.895z M189.213,2.938l1.679-2.484h2.746l-2.694,2.484H189.213z"/>
		<path fill="#0097D8" d="M201.457,4.058V5.72h-1.819v4.479c0,0.419,0.069,0.699,0.21,0.839c0.14,0.141,0.42,0.21,0.84,0.21
			c0.14,0,0.273-0.006,0.402-0.018c0.128-0.011,0.25-0.028,0.367-0.052v1.924c-0.21,0.035-0.443,0.059-0.699,0.07
			c-0.258,0.011-0.508,0.018-0.753,0.018c-0.385,0-0.749-0.026-1.093-0.079s-0.647-0.154-0.91-0.307
			c-0.262-0.151-0.469-0.367-0.621-0.646c-0.151-0.28-0.227-0.647-0.227-1.103V5.72h-1.505V4.058h1.505V1.347h2.483v2.711H201.457z"
			/>
		<path fill="#0097D8" d="M205.008,4.058v1.68h0.035c0.116-0.28,0.273-0.539,0.473-0.778c0.197-0.239,0.425-0.443,0.682-0.612
			c0.256-0.169,0.53-0.3,0.822-0.394c0.291-0.094,0.595-0.14,0.91-0.14c0.162,0,0.344,0.029,0.541,0.087v2.31
			c-0.116-0.023-0.256-0.044-0.42-0.062c-0.162-0.018-0.32-0.026-0.472-0.026c-0.454,0-0.84,0.076-1.154,0.228
			c-0.315,0.151-0.569,0.358-0.761,0.621c-0.193,0.262-0.33,0.568-0.412,0.918c-0.081,0.35-0.121,0.729-0.121,1.137v4.076h-2.484
			V4.058H205.008z"/>
		<path fill="#0097D8" d="M209.521,2.658V0.612h2.483v2.046H209.521z M212.004,4.058v9.044h-2.483V4.058H212.004z"/>
		<path fill="#0097D8" d="M218.284,5.685c-0.396,0-0.729,0.091-0.997,0.271s-0.486,0.414-0.656,0.699
			c-0.169,0.286-0.288,0.601-0.358,0.945c-0.069,0.344-0.104,0.685-0.104,1.022c0,0.327,0.035,0.659,0.104,0.997
			c0.07,0.339,0.185,0.645,0.341,0.919c0.158,0.274,0.371,0.498,0.639,0.673c0.269,0.176,0.596,0.263,0.98,0.263
			c0.594,0,1.052-0.166,1.373-0.498c0.32-0.333,0.521-0.778,0.604-1.339h2.396c-0.164,1.201-0.631,2.117-1.4,2.747
			c-0.77,0.629-1.755,0.944-2.955,0.944c-0.678,0-1.299-0.114-1.863-0.341c-0.566-0.228-1.047-0.546-1.443-0.954
			s-0.706-0.895-0.928-1.46c-0.221-0.565-0.332-1.187-0.332-1.863c0-0.699,0.102-1.35,0.307-1.95c0.203-0.601,0.504-1.12,0.9-1.557
			c0.396-0.438,0.881-0.779,1.452-1.023c0.571-0.245,1.224-0.367,1.959-0.367c0.536,0,1.052,0.069,1.548,0.21
			c0.496,0.14,0.939,0.353,1.33,0.638c0.391,0.286,0.708,0.642,0.953,1.067c0.244,0.426,0.385,0.93,0.42,1.513h-2.432
			C219.957,6.204,219.346,5.685,218.284,5.685z"/>
		<path fill="#0097D8" d="M224.057,6.62c0.221-0.588,0.536-1.09,0.945-1.504c0.407-0.414,0.896-0.734,1.469-0.962
			c0.571-0.228,1.213-0.341,1.924-0.341s1.355,0.113,1.934,0.341c0.576,0.228,1.069,0.548,1.478,0.962s0.724,0.916,0.944,1.504
			c0.222,0.59,0.333,1.245,0.333,1.969c0,0.723-0.111,1.376-0.333,1.959c-0.221,0.583-0.536,1.082-0.944,1.495
			c-0.408,0.414-0.901,0.732-1.478,0.954c-0.578,0.221-1.223,0.332-1.934,0.332s-1.353-0.111-1.924-0.332
			c-0.572-0.222-1.062-0.54-1.469-0.954c-0.409-0.413-0.725-0.912-0.945-1.495c-0.222-0.583-0.332-1.236-0.332-1.959
			C223.725,7.865,223.835,7.21,224.057,6.62z M226.312,9.646c0.07,0.345,0.189,0.653,0.359,0.928
			c0.169,0.273,0.394,0.492,0.674,0.655c0.279,0.164,0.629,0.245,1.049,0.245s0.772-0.081,1.059-0.245
			c0.285-0.163,0.514-0.382,0.682-0.655c0.17-0.274,0.289-0.583,0.359-0.928c0.07-0.344,0.104-0.696,0.104-1.058
			s-0.034-0.718-0.104-1.067s-0.189-0.659-0.359-0.927c-0.168-0.269-0.396-0.487-0.682-0.656c-0.286-0.169-0.639-0.254-1.059-0.254
			s-0.77,0.085-1.049,0.254c-0.28,0.169-0.505,0.388-0.674,0.656c-0.17,0.268-0.289,0.577-0.359,0.927
			c-0.069,0.35-0.104,0.706-0.104,1.067S226.243,9.303,226.312,9.646z"/>
		<path fill="#0097D8" d="M63.829,27.022c0.151,0.292,0.353,0.528,0.604,0.709c0.25,0.181,0.545,0.314,0.883,0.402
			c0.338,0.087,0.688,0.131,1.049,0.131c0.245,0,0.507-0.021,0.788-0.061c0.28-0.041,0.542-0.12,0.787-0.236
			c0.245-0.117,0.449-0.277,0.612-0.481c0.163-0.204,0.245-0.464,0.245-0.778c0-0.338-0.108-0.612-0.324-0.822
			s-0.499-0.385-0.848-0.524c-0.35-0.141-0.747-0.263-1.189-0.367c-0.443-0.105-0.892-0.222-1.347-0.351
			c-0.466-0.116-0.921-0.259-1.364-0.428c-0.443-0.169-0.84-0.388-1.189-0.656c-0.35-0.269-0.633-0.604-0.849-1.006
			s-0.323-0.89-0.323-1.461c0-0.641,0.137-1.198,0.411-1.67c0.274-0.473,0.633-0.866,1.076-1.182
			c0.443-0.314,0.944-0.548,1.504-0.699c0.56-0.151,1.119-0.228,1.679-0.228c0.653,0,1.28,0.073,1.88,0.219s1.134,0.382,1.601,0.708
			c0.466,0.327,0.836,0.744,1.111,1.251c0.274,0.508,0.411,1.123,0.411,1.846h-2.659c-0.023-0.373-0.102-0.683-0.236-0.927
			c-0.134-0.245-0.312-0.438-0.534-0.578c-0.222-0.14-0.475-0.238-0.761-0.297c-0.286-0.059-0.598-0.088-0.936-0.088
			c-0.222,0-0.443,0.023-0.665,0.07c-0.222,0.047-0.423,0.129-0.604,0.245c-0.181,0.116-0.33,0.263-0.446,0.438
			s-0.175,0.396-0.175,0.664c0,0.245,0.046,0.443,0.14,0.595c0.093,0.152,0.277,0.292,0.551,0.42
			c0.274,0.129,0.653,0.257,1.137,0.385c0.483,0.129,1.116,0.292,1.898,0.49c0.233,0.047,0.557,0.131,0.971,0.254
			c0.414,0.122,0.825,0.317,1.233,0.586c0.408,0.268,0.761,0.627,1.059,1.075c0.297,0.449,0.446,1.023,0.446,1.724
			c0,0.571-0.111,1.102-0.332,1.592c-0.222,0.489-0.551,0.912-0.988,1.268c-0.438,0.356-0.98,0.633-1.627,0.831
			c-0.647,0.198-1.396,0.298-2.248,0.298c-0.688,0-1.355-0.085-2.002-0.254c-0.647-0.169-1.219-0.435-1.714-0.796
			c-0.496-0.361-0.89-0.822-1.181-1.382c-0.292-0.56-0.432-1.225-0.42-1.994h2.659C63.601,26.376,63.677,26.731,63.829,27.022z"/>
		<path fill="#0097D8" d="M75.479,27.933c0.373,0.361,0.91,0.542,1.609,0.542c0.501,0,0.933-0.125,1.294-0.376
			c0.361-0.251,0.583-0.516,0.665-0.796h2.187c-0.35,1.085-0.886,1.86-1.609,2.326c-0.723,0.467-1.598,0.7-2.624,0.7
			c-0.711,0-1.353-0.114-1.924-0.341c-0.572-0.228-1.056-0.552-1.452-0.972c-0.396-0.419-0.703-0.921-0.918-1.504
			c-0.216-0.583-0.324-1.225-0.324-1.924c0-0.677,0.111-1.307,0.333-1.89c0.221-0.583,0.536-1.087,0.944-1.513
			s0.895-0.762,1.46-1.006c0.566-0.245,1.192-0.367,1.881-0.367c0.77,0,1.44,0.148,2.011,0.445c0.571,0.298,1.041,0.697,1.408,1.198
			c0.368,0.502,0.633,1.073,0.796,1.715c0.164,0.642,0.222,1.312,0.175,2.012h-6.525C74.901,26.988,75.105,27.571,75.479,27.933z
			 M78.286,23.175c-0.297-0.326-0.75-0.49-1.356-0.49c-0.396,0-0.726,0.067-0.988,0.201c-0.262,0.135-0.472,0.301-0.629,0.499
			c-0.158,0.198-0.269,0.408-0.333,0.63c-0.064,0.221-0.102,0.419-0.114,0.595h4.041C78.79,23.979,78.583,23.501,78.286,23.175z"/>
		<path fill="#0097D8" d="M85.222,21.058v1.68h0.035c0.116-0.28,0.273-0.539,0.472-0.778c0.198-0.239,0.425-0.443,0.682-0.612
			c0.256-0.169,0.53-0.3,0.822-0.394c0.291-0.094,0.595-0.14,0.91-0.14c0.163,0,0.344,0.029,0.542,0.087v2.31
			c-0.117-0.023-0.256-0.044-0.42-0.062c-0.163-0.018-0.321-0.026-0.472-0.026c-0.455,0-0.84,0.076-1.154,0.228
			c-0.315,0.151-0.569,0.358-0.761,0.621c-0.192,0.262-0.33,0.568-0.411,0.918s-0.122,0.729-0.122,1.137v4.076H82.86v-9.044H85.222z
			"/>
		<path fill="#0097D8" d="M91.903,30.102l-3.096-9.044h2.606l1.907,6.175h0.035l1.906-6.175h2.467l-3.062,9.044H91.903z"/>
		<path fill="#0097D8" d="M98.831,19.658v-2.046h2.484v2.046H98.831z M101.314,21.058v9.044h-2.484v-9.044H101.314z"/>
		<path fill="#0097D8" d="M107.594,22.685c-0.396,0-0.729,0.091-0.997,0.271s-0.487,0.414-0.656,0.699
			c-0.169,0.286-0.289,0.601-0.359,0.945c-0.07,0.344-0.105,0.685-0.105,1.022c0,0.327,0.035,0.659,0.105,0.997
			c0.07,0.339,0.184,0.645,0.341,0.919s0.37,0.498,0.639,0.673c0.268,0.176,0.595,0.263,0.979,0.263
			c0.595,0,1.052-0.166,1.373-0.498c0.321-0.333,0.522-0.778,0.604-1.339h2.396c-0.164,1.201-0.63,2.117-1.399,2.747
			c-0.77,0.629-1.755,0.944-2.956,0.944c-0.677,0-1.298-0.114-1.863-0.341c-0.565-0.228-1.047-0.546-1.443-0.954
			c-0.397-0.408-0.706-0.895-0.927-1.46c-0.222-0.565-0.333-1.187-0.333-1.863c0-0.699,0.102-1.35,0.306-1.95
			s0.504-1.12,0.901-1.557c0.396-0.438,0.88-0.779,1.452-1.023c0.571-0.245,1.224-0.367,1.959-0.367c0.536,0,1.052,0.069,1.548,0.21
			c0.495,0.14,0.938,0.353,1.329,0.638c0.391,0.286,0.708,0.642,0.954,1.067c0.245,0.426,0.385,0.93,0.419,1.513h-2.431
			C109.267,23.204,108.655,22.685,107.594,22.685z"/>
		<path fill="#0097D8" d="M113.384,19.658v-2.046h2.484v2.046H113.384z M115.868,21.058v9.044h-2.484v-9.044H115.868z"/>
		<path fill="#0097D8" d="M117.879,23.62c0.221-0.588,0.536-1.09,0.945-1.504c0.408-0.414,0.897-0.734,1.469-0.962
			c0.571-0.228,1.212-0.341,1.924-0.341c0.711,0,1.355,0.113,1.933,0.341s1.07,0.548,1.478,0.962s0.723,0.916,0.945,1.504
			c0.221,0.59,0.333,1.245,0.333,1.969c0,0.723-0.111,1.376-0.333,1.959c-0.222,0.583-0.537,1.082-0.945,1.495
			c-0.408,0.414-0.901,0.732-1.478,0.954c-0.577,0.221-1.222,0.332-1.933,0.332c-0.712,0-1.353-0.111-1.924-0.332
			c-0.572-0.222-1.062-0.54-1.469-0.954c-0.409-0.413-0.724-0.912-0.945-1.495c-0.222-0.583-0.333-1.236-0.333-1.959
			C117.547,24.865,117.658,24.21,117.879,23.62z M120.136,26.646c0.07,0.345,0.189,0.653,0.359,0.928
			c0.169,0.273,0.394,0.492,0.673,0.655c0.28,0.164,0.63,0.245,1.05,0.245c0.419,0,0.772-0.081,1.058-0.245
			c0.286-0.163,0.513-0.382,0.682-0.655c0.169-0.274,0.289-0.583,0.358-0.928c0.07-0.344,0.105-0.696,0.105-1.058
			s-0.035-0.718-0.105-1.067c-0.07-0.35-0.189-0.659-0.358-0.927c-0.169-0.269-0.396-0.487-0.682-0.656
			c-0.286-0.169-0.639-0.254-1.058-0.254c-0.42,0-0.77,0.085-1.05,0.254s-0.504,0.388-0.673,0.656
			c-0.169,0.268-0.289,0.577-0.359,0.927c-0.07,0.35-0.105,0.706-0.105,1.067S120.066,26.303,120.136,26.646z"/>
		<path fill="#0097D8" d="M139.797,28.947c-0.292,0.489-0.673,0.843-1.146,1.058c-0.473,0.216-1.006,0.324-1.601,0.324
			c-0.677,0-1.271-0.131-1.784-0.394c-0.514-0.263-0.936-0.618-1.269-1.067c-0.332-0.448-0.583-0.965-0.752-1.548
			c-0.169-0.583-0.254-1.189-0.254-1.819c0-0.606,0.084-1.192,0.254-1.758c0.169-0.565,0.42-1.064,0.752-1.496
			c0.333-0.431,0.75-0.778,1.251-1.04c0.501-0.263,1.084-0.394,1.749-0.394c0.536,0,1.047,0.113,1.531,0.341
			s0.866,0.562,1.146,1.006h0.035v-4.548h2.484v12.489h-2.361v-1.154H139.797z M139.692,24.478c-0.07-0.344-0.189-0.647-0.358-0.909
			c-0.169-0.263-0.388-0.476-0.656-0.639c-0.268-0.163-0.606-0.245-1.014-0.245c-0.409,0-0.752,0.082-1.032,0.245
			s-0.504,0.379-0.673,0.647c-0.169,0.269-0.292,0.574-0.368,0.918s-0.114,0.703-0.114,1.076c0,0.35,0.041,0.699,0.123,1.049
			c0.082,0.351,0.213,0.662,0.394,0.937c0.181,0.273,0.408,0.495,0.682,0.664c0.274,0.17,0.604,0.254,0.989,0.254
			c0.408,0,0.749-0.081,1.023-0.245c0.274-0.163,0.493-0.382,0.656-0.655c0.163-0.274,0.28-0.586,0.35-0.937
			c0.07-0.35,0.105-0.711,0.105-1.084S139.762,24.822,139.692,24.478z"/>
		<path fill="#0097D8" d="M146.725,27.933c0.373,0.361,0.909,0.542,1.609,0.542c0.5,0,0.932-0.125,1.294-0.376
			c0.361-0.251,0.583-0.516,0.665-0.796h2.186c-0.35,1.085-0.886,1.86-1.609,2.326c-0.723,0.467-1.598,0.7-2.623,0.7
			c-0.711,0-1.354-0.114-1.924-0.341c-0.572-0.228-1.057-0.552-1.453-0.972c-0.396-0.419-0.702-0.921-0.918-1.504
			s-0.323-1.225-0.323-1.924c0-0.677,0.11-1.307,0.333-1.89c0.221-0.583,0.535-1.087,0.943-1.513s0.896-0.762,1.461-1.006
			c0.566-0.245,1.192-0.367,1.881-0.367c0.77,0,1.439,0.148,2.012,0.445c0.57,0.298,1.041,0.697,1.408,1.198
			c0.367,0.502,0.633,1.073,0.795,1.715c0.164,0.642,0.223,1.312,0.176,2.012h-6.525C146.146,26.988,146.351,27.571,146.725,27.933z
			 M149.531,23.175c-0.297-0.326-0.749-0.49-1.355-0.49c-0.396,0-0.726,0.067-0.988,0.201c-0.262,0.135-0.473,0.301-0.629,0.499
			c-0.158,0.198-0.27,0.408-0.333,0.63c-0.064,0.221-0.103,0.419-0.114,0.595h4.041C150.035,23.979,149.829,23.501,149.531,23.175z"
			/>
		<path fill="#0097D8" d="M161.33,27.022c0.151,0.292,0.353,0.528,0.604,0.709c0.25,0.181,0.545,0.314,0.883,0.402
			c0.338,0.087,0.688,0.131,1.05,0.131c0.245,0,0.507-0.021,0.788-0.061c0.279-0.041,0.541-0.12,0.787-0.236
			c0.244-0.117,0.448-0.277,0.611-0.481c0.164-0.204,0.245-0.464,0.245-0.778c0-0.338-0.108-0.612-0.323-0.822
			c-0.217-0.21-0.499-0.385-0.849-0.524c-0.351-0.141-0.747-0.263-1.189-0.367c-0.443-0.105-0.892-0.222-1.347-0.351
			c-0.467-0.116-0.922-0.259-1.365-0.428s-0.84-0.388-1.189-0.656s-0.633-0.604-0.848-1.006c-0.217-0.402-0.324-0.89-0.324-1.461
			c0-0.641,0.137-1.198,0.411-1.67c0.274-0.473,0.633-0.866,1.076-1.182c0.442-0.314,0.944-0.548,1.505-0.699
			c0.559-0.151,1.119-0.228,1.679-0.228c0.653,0,1.28,0.073,1.88,0.219c0.602,0.146,1.135,0.382,1.602,0.708
			c0.466,0.327,0.836,0.744,1.11,1.251c0.274,0.508,0.411,1.123,0.411,1.846h-2.659c-0.023-0.373-0.103-0.683-0.235-0.927
			c-0.135-0.245-0.312-0.438-0.534-0.578c-0.222-0.14-0.476-0.238-0.761-0.297c-0.286-0.059-0.598-0.088-0.936-0.088
			c-0.223,0-0.443,0.023-0.665,0.07s-0.423,0.129-0.604,0.245s-0.329,0.263-0.446,0.438s-0.175,0.396-0.175,0.664
			c0,0.245,0.046,0.443,0.14,0.595c0.094,0.152,0.277,0.292,0.551,0.42c0.274,0.129,0.653,0.257,1.138,0.385
			c0.483,0.129,1.116,0.292,1.897,0.49c0.233,0.047,0.557,0.131,0.971,0.254c0.414,0.122,0.825,0.317,1.233,0.586
			c0.408,0.268,0.761,0.627,1.059,1.075c0.298,0.449,0.446,1.023,0.446,1.724c0,0.571-0.111,1.102-0.332,1.592
			c-0.223,0.489-0.552,0.912-0.988,1.268c-0.438,0.356-0.98,0.633-1.627,0.831c-0.648,0.198-1.396,0.298-2.248,0.298
			c-0.688,0-1.355-0.085-2.003-0.254s-1.219-0.435-1.714-0.796c-0.496-0.361-0.891-0.822-1.182-1.382s-0.432-1.225-0.42-1.994h2.659
			C161.103,26.376,161.178,26.731,161.33,27.022z"/>
		<path fill="#0097D8" d="M170.653,22.388c0.257-0.385,0.583-0.694,0.979-0.928c0.396-0.232,0.843-0.399,1.338-0.498
			c0.496-0.099,0.994-0.148,1.496-0.148c0.455,0,0.916,0.032,1.382,0.096c0.466,0.064,0.892,0.189,1.276,0.376
			s0.7,0.446,0.945,0.778c0.244,0.333,0.367,0.773,0.367,1.321v4.705c0,0.408,0.023,0.799,0.07,1.172
			c0.047,0.374,0.128,0.653,0.244,0.84h-2.519c-0.046-0.14-0.085-0.282-0.114-0.429c-0.029-0.146-0.049-0.294-0.061-0.446
			c-0.396,0.409-0.863,0.694-1.399,0.857s-1.085,0.245-1.644,0.245c-0.432,0-0.834-0.053-1.207-0.157
			c-0.374-0.105-0.7-0.269-0.98-0.49c-0.279-0.222-0.498-0.501-0.656-0.84c-0.156-0.338-0.236-0.74-0.236-1.207
			c0-0.513,0.091-0.936,0.271-1.268c0.182-0.333,0.414-0.598,0.7-0.796s0.612-0.347,0.979-0.446
			c0.367-0.099,0.737-0.178,1.111-0.236c0.373-0.058,0.74-0.104,1.102-0.14s0.682-0.088,0.962-0.157
			c0.28-0.07,0.501-0.172,0.665-0.307c0.163-0.134,0.238-0.329,0.227-0.586c0-0.268-0.043-0.48-0.131-0.639
			c-0.088-0.157-0.204-0.279-0.35-0.367c-0.146-0.087-0.314-0.146-0.508-0.175c-0.191-0.029-0.398-0.044-0.621-0.044
			c-0.489,0-0.874,0.105-1.154,0.315c-0.279,0.21-0.443,0.56-0.489,1.049h-2.483C170.251,23.256,170.396,22.772,170.653,22.388z
			 M175.561,25.895c-0.158,0.053-0.327,0.097-0.508,0.131c-0.181,0.035-0.37,0.064-0.568,0.088
			c-0.199,0.023-0.396,0.053-0.595,0.088c-0.187,0.034-0.37,0.081-0.552,0.14c-0.18,0.059-0.338,0.137-0.472,0.236
			c-0.134,0.099-0.242,0.225-0.323,0.376c-0.082,0.151-0.123,0.344-0.123,0.577c0,0.222,0.041,0.408,0.123,0.56
			c0.081,0.151,0.191,0.271,0.332,0.358c0.141,0.088,0.303,0.149,0.49,0.184c0.186,0.035,0.379,0.053,0.576,0.053
			c0.49,0,0.869-0.081,1.138-0.245c0.269-0.163,0.466-0.358,0.595-0.586c0.128-0.228,0.207-0.457,0.236-0.69s0.043-0.42,0.043-0.56
			v-0.928C175.849,25.77,175.717,25.842,175.561,25.895z"/>
		<path fill="#0097D8" d="M182.916,17.612v12.489h-2.484V17.612H182.916z"/>
		<path fill="#0097D8" d="M190.996,30.102v-1.26h-0.052c-0.315,0.525-0.724,0.904-1.225,1.138c-0.501,0.232-1.015,0.35-1.54,0.35
			c-0.664,0-1.209-0.088-1.635-0.263s-0.762-0.423-1.006-0.743c-0.245-0.32-0.417-0.711-0.516-1.172
			c-0.1-0.461-0.148-0.971-0.148-1.531v-5.562h2.483v5.108c0,0.746,0.116,1.303,0.35,1.67c0.233,0.368,0.647,0.552,1.242,0.552
			c0.677,0,1.166-0.201,1.47-0.604c0.303-0.402,0.454-1.064,0.454-1.985v-4.741h2.483v9.044H190.996z"/>
		<path fill="#0097D8" d="M201.667,28.947c-0.292,0.489-0.673,0.843-1.146,1.058c-0.473,0.216-1.006,0.324-1.601,0.324
			c-0.677,0-1.271-0.131-1.784-0.394c-0.514-0.263-0.936-0.618-1.269-1.067c-0.332-0.448-0.583-0.965-0.752-1.548
			s-0.254-1.189-0.254-1.819c0-0.606,0.085-1.192,0.254-1.758s0.42-1.064,0.752-1.496c0.333-0.431,0.749-0.778,1.251-1.04
			c0.501-0.263,1.084-0.394,1.749-0.394c0.536,0,1.047,0.113,1.53,0.341c0.484,0.228,0.866,0.562,1.146,1.006h0.035v-4.548h2.483
			v12.489h-2.361v-1.154H201.667z M201.562,24.478c-0.07-0.344-0.189-0.647-0.359-0.909c-0.169-0.263-0.387-0.476-0.656-0.639
			c-0.268-0.163-0.605-0.245-1.014-0.245s-0.752,0.082-1.032,0.245s-0.505,0.379-0.673,0.647c-0.17,0.269-0.293,0.574-0.368,0.918
			s-0.114,0.703-0.114,1.076c0,0.35,0.041,0.699,0.123,1.049c0.082,0.351,0.213,0.662,0.394,0.937
			c0.181,0.273,0.408,0.495,0.683,0.664c0.273,0.17,0.604,0.254,0.988,0.254c0.408,0,0.749-0.081,1.023-0.245
			c0.273-0.163,0.492-0.382,0.656-0.655c0.162-0.274,0.279-0.586,0.35-0.937c0.07-0.35,0.104-0.711,0.104-1.084
			S201.633,24.822,201.562,24.478z"/>
		<path fill="#0097D8" d="M214.926,17.612l2.922,8.589h0.035l2.764-8.589h3.865v12.489h-2.57V21.25h-0.035l-3.062,8.852h-2.116
			l-3.062-8.764h-0.035v8.764h-2.571V17.612H214.926z"/>
		<path fill="#0097D8" d="M229.322,27.933c0.373,0.361,0.91,0.542,1.609,0.542c0.502,0,0.934-0.125,1.295-0.376
			s0.583-0.516,0.664-0.796h2.188c-0.35,1.085-0.887,1.86-1.609,2.326c-0.724,0.467-1.598,0.7-2.624,0.7
			c-0.712,0-1.353-0.114-1.925-0.341c-0.571-0.228-1.055-0.552-1.451-0.972c-0.396-0.419-0.703-0.921-0.918-1.504
			c-0.217-0.583-0.324-1.225-0.324-1.924c0-0.677,0.111-1.307,0.332-1.89c0.222-0.583,0.537-1.087,0.945-1.513
			s0.895-0.762,1.46-1.006c0.565-0.245,1.192-0.367,1.881-0.367c0.77,0,1.44,0.148,2.011,0.445c0.572,0.298,1.041,0.697,1.408,1.198
			c0.368,0.502,0.633,1.073,0.797,1.715c0.163,0.642,0.221,1.312,0.175,2.012h-6.524C228.746,26.988,228.949,27.571,229.322,27.933z
			 M232.131,23.175c-0.298-0.326-0.75-0.49-1.356-0.49c-0.396,0-0.726,0.067-0.988,0.201c-0.263,0.135-0.472,0.301-0.63,0.499
			c-0.157,0.198-0.268,0.408-0.332,0.63c-0.064,0.221-0.102,0.419-0.113,0.595h4.04C232.635,23.979,232.428,23.501,232.131,23.175z"
			/>
		<path fill="#0097D8" d="M239.066,21.058v1.26h0.052c0.315-0.524,0.724-0.906,1.225-1.146s1.015-0.358,1.54-0.358
			c0.664,0,1.209,0.09,1.635,0.271s0.762,0.432,1.006,0.752c0.245,0.321,0.417,0.712,0.516,1.173c0.1,0.46,0.148,0.971,0.148,1.53
			v5.562h-2.483v-5.107c0-0.746-0.116-1.304-0.35-1.671s-0.647-0.551-1.242-0.551c-0.677,0-1.166,0.201-1.47,0.604
			c-0.303,0.402-0.454,1.064-0.454,1.985v4.74h-2.483v-9.044H239.066z"/>
		<path fill="#0097D8" d="M252.045,21.058v1.662h-1.819v4.479c0,0.419,0.069,0.699,0.21,0.839c0.14,0.141,0.42,0.21,0.84,0.21
			c0.14,0,0.273-0.006,0.402-0.018c0.128-0.011,0.25-0.028,0.367-0.052v1.924c-0.21,0.035-0.443,0.059-0.699,0.07
			c-0.258,0.011-0.508,0.018-0.753,0.018c-0.385,0-0.749-0.026-1.093-0.079s-0.647-0.154-0.91-0.307
			c-0.262-0.151-0.469-0.367-0.621-0.646c-0.151-0.28-0.227-0.647-0.227-1.103V22.72h-1.505v-1.662h1.505v-2.711h2.483v2.711
			H252.045z"/>
		<path fill="#0097D8" d="M253.566,22.388c0.256-0.385,0.583-0.694,0.979-0.928c0.396-0.232,0.843-0.399,1.339-0.498
			c0.495-0.099,0.994-0.148,1.495-0.148c0.454,0,0.915,0.032,1.382,0.096c0.467,0.064,0.893,0.189,1.277,0.376
			s0.699,0.446,0.944,0.778c0.245,0.333,0.367,0.773,0.367,1.321v4.705c0,0.408,0.023,0.799,0.069,1.172
			c0.047,0.374,0.129,0.653,0.246,0.84h-2.52c-0.047-0.14-0.084-0.282-0.113-0.429c-0.029-0.146-0.05-0.294-0.062-0.446
			c-0.396,0.409-0.863,0.694-1.399,0.857c-0.537,0.163-1.084,0.245-1.645,0.245c-0.432,0-0.834-0.053-1.207-0.157
			c-0.373-0.105-0.699-0.269-0.979-0.49s-0.499-0.501-0.655-0.84c-0.158-0.338-0.236-0.74-0.236-1.207
			c0-0.513,0.09-0.936,0.271-1.268c0.18-0.333,0.413-0.598,0.699-0.796c0.285-0.198,0.612-0.347,0.979-0.446
			c0.367-0.099,0.737-0.178,1.11-0.236c0.373-0.058,0.74-0.104,1.103-0.14c0.361-0.035,0.683-0.088,0.962-0.157
			c0.279-0.07,0.502-0.172,0.664-0.307c0.164-0.134,0.24-0.329,0.229-0.586c0-0.268-0.045-0.48-0.132-0.639
			c-0.087-0.157-0.204-0.279-0.35-0.367c-0.146-0.087-0.315-0.146-0.507-0.175c-0.193-0.029-0.4-0.044-0.621-0.044
			c-0.49,0-0.875,0.105-1.154,0.315c-0.28,0.21-0.443,0.56-0.49,1.049h-2.484C253.164,23.256,253.311,22.772,253.566,22.388z
			 M258.473,25.895c-0.156,0.053-0.326,0.097-0.507,0.131c-0.181,0.035-0.37,0.064-0.568,0.088s-0.396,0.053-0.595,0.088
			c-0.188,0.034-0.371,0.081-0.551,0.14c-0.182,0.059-0.339,0.137-0.473,0.236c-0.135,0.099-0.242,0.225-0.324,0.376
			c-0.081,0.151-0.122,0.344-0.122,0.577c0,0.222,0.041,0.408,0.122,0.56c0.082,0.151,0.193,0.271,0.333,0.358
			c0.14,0.088,0.304,0.149,0.489,0.184c0.188,0.035,0.379,0.053,0.578,0.053c0.489,0,0.868-0.081,1.137-0.245
			c0.268-0.163,0.467-0.358,0.595-0.586s0.207-0.457,0.235-0.69c0.029-0.233,0.045-0.42,0.045-0.56v-0.928
			C258.762,25.77,258.631,25.842,258.473,25.895z"/>
		<path fill="#0097D8" d="M265.828,17.612v12.489h-2.483V17.612H265.828z"/>
	</g>
	<g>
		<path fill="#0097D8" d="M72.198,49.373c-0.119,0.713-0.391,1.38-0.816,2c-0.425,0.621-1.036,1.139-1.835,1.555
			s-1.877,0.625-3.236,0.625c-0.765,0-1.504-0.106-2.217-0.319c-0.714-0.212-1.351-0.543-1.912-0.993s-1.011-1.028-1.351-1.733
			c-0.34-0.705-0.51-1.559-0.51-2.562v-1.58h3.619v0.815c0,0.442,0.034,0.85,0.102,1.224s0.187,0.692,0.357,0.956
			c0.169,0.263,0.403,0.471,0.701,0.624c0.297,0.152,0.684,0.229,1.16,0.229c0.526,0,0.934-0.094,1.224-0.28
			c0.289-0.188,0.497-0.429,0.624-0.727c0.127-0.297,0.204-0.62,0.229-0.969c0.025-0.348,0.038-0.684,0.038-1.007V34.947h4.001
			V47.41C72.376,48.005,72.317,48.659,72.198,49.373z"/>
		<path fill="#0097D8" d="M75.587,43.702c0.323-0.857,0.781-1.589,1.376-2.192c0.594-0.603,1.308-1.07,2.141-1.401
			s1.767-0.497,2.804-0.497c1.036,0,1.975,0.166,2.816,0.497c0.841,0.331,1.559,0.799,2.154,1.401
			c0.594,0.604,1.053,1.335,1.376,2.192c0.323,0.858,0.484,1.813,0.484,2.867s-0.162,2.005-0.484,2.854S87.472,51,86.878,51.603
			c-0.595,0.604-1.312,1.066-2.154,1.389c-0.841,0.323-1.78,0.484-2.816,0.484c-1.037,0-1.971-0.161-2.804-0.484
			c-0.833-0.322-1.546-0.785-2.141-1.389c-0.595-0.603-1.054-1.329-1.376-2.179s-0.484-1.801-0.484-2.854
			S75.265,44.561,75.587,43.702z M78.875,48.111c0.102,0.501,0.276,0.951,0.522,1.351c0.246,0.399,0.574,0.718,0.981,0.956
			c0.408,0.237,0.917,0.356,1.529,0.356c0.611,0,1.125-0.119,1.542-0.356c0.417-0.238,0.748-0.557,0.994-0.956
			c0.246-0.399,0.42-0.85,0.522-1.351s0.153-1.016,0.153-1.542s-0.051-1.045-0.153-1.555s-0.276-0.96-0.522-1.351
			c-0.247-0.391-0.578-0.71-0.994-0.956s-0.93-0.369-1.542-0.369c-0.612,0-1.122,0.123-1.529,0.369s-0.735,0.565-0.981,0.956
			c-0.247,0.391-0.42,0.841-0.522,1.351c-0.102,0.51-0.153,1.028-0.153,1.555S78.773,47.61,78.875,48.111z"/>
		<path fill="#0097D8" d="M94.128,49.869c0.161,0.281,0.37,0.51,0.625,0.688s0.548,0.311,0.879,0.396
			c0.332,0.085,0.676,0.127,1.032,0.127c0.255,0,0.522-0.029,0.803-0.089c0.281-0.06,0.536-0.153,0.765-0.28
			c0.229-0.128,0.42-0.298,0.574-0.51c0.153-0.213,0.229-0.48,0.229-0.803c0-0.544-0.361-0.952-1.083-1.224s-1.729-0.544-3.02-0.815
			c-0.527-0.119-1.041-0.259-1.542-0.421c-0.501-0.161-0.947-0.373-1.338-0.637c-0.391-0.264-0.705-0.595-0.943-0.994
			c-0.238-0.399-0.357-0.888-0.357-1.466c0-0.849,0.166-1.546,0.497-2.09c0.331-0.543,0.769-0.972,1.312-1.287
			c0.543-0.313,1.155-0.535,1.835-0.662c0.679-0.128,1.376-0.191,2.09-0.191c0.713,0,1.406,0.068,2.077,0.204
			c0.671,0.136,1.27,0.365,1.797,0.688c0.526,0.322,0.964,0.751,1.312,1.287c0.348,0.535,0.556,1.21,0.624,2.025h-3.44
			c-0.051-0.696-0.314-1.168-0.79-1.414c-0.476-0.246-1.037-0.37-1.682-0.37c-0.204,0-0.425,0.014-0.663,0.039
			c-0.238,0.025-0.455,0.08-0.65,0.165c-0.195,0.086-0.361,0.209-0.497,0.37c-0.136,0.161-0.204,0.378-0.204,0.649
			c0,0.323,0.119,0.586,0.356,0.79s0.548,0.37,0.931,0.497c0.382,0.128,0.819,0.242,1.312,0.344
			c0.492,0.103,0.994,0.213,1.503,0.332c0.526,0.119,1.041,0.264,1.542,0.433c0.501,0.17,0.947,0.396,1.338,0.676
			c0.391,0.28,0.705,0.629,0.943,1.045s0.357,0.93,0.357,1.542c0,0.866-0.174,1.593-0.522,2.179s-0.803,1.058-1.363,1.415
			c-0.561,0.356-1.202,0.607-1.924,0.751c-0.722,0.145-1.457,0.217-2.205,0.217c-0.765,0-1.512-0.076-2.243-0.229
			c-0.731-0.152-1.381-0.407-1.95-0.765c-0.569-0.356-1.037-0.828-1.402-1.414s-0.565-1.321-0.599-2.204h3.44
			C93.886,49.254,93.967,49.589,94.128,49.869z"/>
		<path fill="#0097D8" d="M108.642,49.984c0.543,0.526,1.325,0.79,2.345,0.79c0.73,0,1.359-0.183,1.886-0.548
			c0.526-0.365,0.849-0.752,0.968-1.16h3.186c-0.51,1.58-1.291,2.711-2.345,3.39c-1.054,0.68-2.328,1.02-3.823,1.02
			c-1.037,0-1.971-0.165-2.803-0.497c-0.833-0.331-1.538-0.803-2.115-1.414c-0.578-0.611-1.024-1.342-1.338-2.191
			s-0.471-1.784-0.471-2.804c0-0.985,0.161-1.903,0.484-2.753c0.323-0.849,0.781-1.584,1.376-2.204
			c0.595-0.62,1.304-1.108,2.128-1.466c0.824-0.356,1.737-0.535,2.74-0.535c1.122,0,2.098,0.217,2.931,0.65
			c0.832,0.433,1.516,1.016,2.051,1.745c0.535,0.731,0.921,1.563,1.16,2.498c0.238,0.935,0.323,1.911,0.255,2.931h-9.506
			C107.801,48.608,108.098,49.458,108.642,49.984z M112.733,43.052c-0.434-0.476-1.092-0.713-1.976-0.713
			c-0.578,0-1.058,0.098-1.44,0.293s-0.688,0.438-0.917,0.727c-0.229,0.289-0.391,0.595-0.484,0.917
			c-0.094,0.323-0.149,0.611-0.166,0.866h5.887C113.467,44.225,113.166,43.528,112.733,43.052z M108.795,38.337l2.447-3.619h4.001
			l-3.925,3.619H108.795z"/>
		<path fill="#0097D8" d="M137.645,53.004c-0.867,0.365-1.742,0.549-2.625,0.549c-1.394,0-2.646-0.242-3.759-0.727
			s-2.052-1.151-2.816-2.001c-0.765-0.85-1.351-1.848-1.759-2.994c-0.408-1.147-0.612-2.383-0.612-3.709
			c0-1.358,0.204-2.62,0.612-3.784s0.994-2.179,1.759-3.046c0.764-0.866,1.703-1.546,2.816-2.038
			c1.113-0.493,2.366-0.739,3.759-0.739c0.934,0,1.839,0.14,2.714,0.42c0.875,0.28,1.665,0.692,2.37,1.236
			c0.705,0.544,1.287,1.215,1.746,2.014s0.74,1.716,0.841,2.752h-3.823c-0.238-1.02-0.697-1.784-1.376-2.294
			c-0.68-0.509-1.504-0.764-2.472-0.764c-0.901,0-1.666,0.174-2.294,0.522c-0.628,0.348-1.138,0.815-1.529,1.401
			c-0.391,0.586-0.676,1.253-0.854,2.001c-0.178,0.747-0.268,1.521-0.268,2.318c0,0.765,0.089,1.509,0.268,2.23
			c0.178,0.723,0.463,1.372,0.854,1.949c0.391,0.578,0.9,1.041,1.529,1.39s1.393,0.522,2.294,0.522c1.325,0,2.349-0.336,3.071-1.007
			s1.143-1.644,1.262-2.918h-4.027v-2.982h7.646v9.838h-2.549l-0.408-2.064C139.302,51.998,138.512,52.64,137.645,53.004z"/>
		<path fill="#0097D8" d="M149.699,49.984c0.543,0.526,1.325,0.79,2.345,0.79c0.73,0,1.359-0.183,1.886-0.548
			c0.527-0.365,0.85-0.752,0.969-1.16h3.186c-0.51,1.58-1.291,2.711-2.345,3.39c-1.054,0.68-2.327,1.02-3.823,1.02
			c-1.036,0-1.971-0.165-2.803-0.497c-0.833-0.331-1.538-0.803-2.115-1.414c-0.578-0.611-1.023-1.342-1.338-2.191
			s-0.472-1.784-0.472-2.804c0-0.985,0.161-1.903,0.483-2.753c0.323-0.849,0.781-1.584,1.377-2.204
			c0.595-0.62,1.304-1.108,2.128-1.466c0.824-0.356,1.737-0.535,2.739-0.535c1.122,0,2.099,0.217,2.932,0.65
			c0.832,0.433,1.516,1.016,2.051,1.745c0.535,0.731,0.922,1.563,1.16,2.498s0.322,1.911,0.255,2.931h-9.507
			C148.858,48.608,149.155,49.458,149.699,49.984z M153.79,43.052c-0.434-0.476-1.093-0.713-1.976-0.713
			c-0.578,0-1.058,0.098-1.439,0.293c-0.383,0.195-0.688,0.438-0.918,0.727c-0.229,0.289-0.391,0.595-0.484,0.917
			c-0.094,0.323-0.148,0.611-0.166,0.866h5.888C154.524,44.225,154.223,43.528,153.79,43.052z"/>
		<path fill="#0097D8" d="M163.895,39.969v2.446h0.051c0.17-0.408,0.399-0.786,0.689-1.134c0.288-0.349,0.619-0.646,0.993-0.893
			c0.374-0.246,0.772-0.438,1.198-0.573c0.424-0.136,0.866-0.204,1.324-0.204c0.238,0,0.502,0.043,0.791,0.128v3.364
			c-0.17-0.034-0.374-0.064-0.611-0.09c-0.238-0.025-0.469-0.038-0.688-0.038c-0.663,0-1.224,0.11-1.683,0.331
			c-0.459,0.222-0.828,0.522-1.108,0.905c-0.28,0.382-0.479,0.828-0.599,1.338s-0.179,1.062-0.179,1.656v5.938h-3.618V39.969
			H163.895z"/>
		<path fill="#0097D8" d="M173.885,39.969v1.783h0.051c0.477-0.679,1.049-1.206,1.721-1.58c0.671-0.373,1.439-0.561,2.307-0.561
			c0.832,0,1.593,0.162,2.281,0.484c0.688,0.323,1.21,0.892,1.566,1.708c0.391-0.578,0.922-1.088,1.594-1.529
			c0.671-0.441,1.465-0.663,2.383-0.663c0.696,0,1.342,0.085,1.937,0.255s1.104,0.442,1.529,0.815
			c0.425,0.374,0.756,0.863,0.994,1.466c0.237,0.604,0.356,1.329,0.356,2.179v8.818h-3.619v-7.468c0-0.441-0.017-0.857-0.051-1.248
			s-0.127-0.73-0.28-1.02s-0.378-0.519-0.675-0.688c-0.298-0.17-0.701-0.255-1.211-0.255s-0.922,0.098-1.236,0.293
			s-0.561,0.45-0.738,0.765c-0.18,0.314-0.299,0.672-0.357,1.07c-0.06,0.399-0.09,0.803-0.09,1.211v7.34h-3.618v-7.391
			c0-0.391-0.009-0.777-0.026-1.16c-0.017-0.382-0.088-0.734-0.216-1.058c-0.128-0.322-0.341-0.582-0.638-0.777
			s-0.734-0.293-1.312-0.293c-0.17,0-0.395,0.038-0.675,0.115c-0.28,0.076-0.553,0.221-0.815,0.433
			c-0.264,0.213-0.488,0.519-0.676,0.918s-0.28,0.922-0.28,1.567v7.646h-3.619V39.969H173.885z"/>
		<path fill="#0097D8" d="M193.942,41.905c0.374-0.561,0.85-1.011,1.427-1.351c0.578-0.34,1.229-0.582,1.95-0.727
			s1.448-0.217,2.179-0.217c0.663,0,1.334,0.047,2.014,0.141s1.3,0.276,1.86,0.548c0.562,0.271,1.02,0.649,1.376,1.134
			c0.357,0.484,0.535,1.126,0.535,1.925v6.855c0,0.595,0.034,1.164,0.103,1.707c0.067,0.544,0.187,0.952,0.356,1.224h-3.67
			c-0.068-0.204-0.123-0.412-0.166-0.624c-0.042-0.213-0.072-0.43-0.088-0.65c-0.578,0.595-1.258,1.011-2.039,1.249
			c-0.782,0.237-1.58,0.356-2.396,0.356c-0.629,0-1.215-0.076-1.758-0.229c-0.545-0.152-1.02-0.391-1.428-0.713
			c-0.408-0.323-0.727-0.73-0.955-1.224c-0.23-0.492-0.345-1.079-0.345-1.759c0-0.747,0.132-1.363,0.396-1.848
			c0.263-0.484,0.603-0.87,1.02-1.159c0.416-0.289,0.892-0.506,1.427-0.65c0.535-0.144,1.074-0.259,1.618-0.344
			s1.079-0.153,1.605-0.204c0.527-0.051,0.994-0.127,1.402-0.229c0.408-0.102,0.73-0.25,0.969-0.445
			c0.237-0.195,0.348-0.48,0.33-0.854c0-0.391-0.062-0.7-0.19-0.93s-0.298-0.408-0.51-0.535c-0.213-0.128-0.459-0.213-0.739-0.255
			c-0.28-0.043-0.582-0.064-0.904-0.064c-0.714,0-1.274,0.153-1.682,0.459c-0.408,0.306-0.646,0.815-0.715,1.529h-3.619
			C193.356,43.171,193.568,42.466,193.942,41.905z M201.092,47.016c-0.23,0.076-0.477,0.14-0.74,0.19s-0.539,0.094-0.828,0.128
			s-0.577,0.076-0.866,0.127c-0.272,0.051-0.54,0.119-0.803,0.204c-0.264,0.085-0.493,0.2-0.688,0.344
			c-0.195,0.145-0.353,0.328-0.471,0.548c-0.119,0.222-0.179,0.502-0.179,0.842c0,0.322,0.06,0.595,0.179,0.815
			c0.118,0.221,0.279,0.395,0.484,0.522c0.203,0.127,0.441,0.217,0.713,0.268s0.553,0.076,0.842,0.076
			c0.713,0,1.266-0.118,1.656-0.356s0.68-0.522,0.866-0.854c0.187-0.331,0.302-0.666,0.345-1.006
			c0.041-0.34,0.062-0.612,0.062-0.816v-1.351C201.512,46.833,201.32,46.938,201.092,47.016z"/>
		<path fill="#0097D8" d="M208.188,37.93v-2.982h3.619v2.982H208.188z M211.808,39.969v13.176h-3.619V39.969H211.808z"/>
		<path fill="#0097D8" d="M218.103,39.969v1.835h0.076c0.459-0.765,1.054-1.321,1.784-1.67c0.73-0.348,1.479-0.522,2.242-0.522
			c0.969,0,1.764,0.132,2.384,0.396s1.108,0.629,1.466,1.096c0.355,0.468,0.606,1.036,0.752,1.707
			c0.144,0.672,0.216,1.415,0.216,2.23v8.104h-3.619v-7.441c0-1.088-0.17-1.899-0.509-2.435c-0.341-0.535-0.943-0.803-1.811-0.803
			c-0.985,0-1.699,0.293-2.141,0.879c-0.441,0.587-0.662,1.551-0.662,2.894v6.906h-3.619V39.969H218.103z"/>
	</g>
</g>
</svg>
