<?xml version="1.0" encoding="utf-8"?>
<!-- Generator: Adobe Illustrator 16.0.0, SVG Export Plug-In . SVG Version: 6.00 Build 0)  -->
<!DOCTYPE svg PUBLIC "-//W3C//DTD SVG 1.1//EN" "http://www.w3.org/Graphics/SVG/1.1/DTD/svg11.dtd">
<svg version="1.1" id="Layer_1" xmlns="http://www.w3.org/2000/svg" xmlns:xlink="http://www.w3.org/1999/xlink" x="0px" y="0px"
	 width="595px" height="523.262px" viewBox="123.5 35.869 595 523.262" enable-background="new 123.5 35.869 595 523.262"
	 xml:space="preserve">
<path fill="#FFD500" fill-opacity="0.5" d="M134.766,544.256L421,35.869l286.234,508.387H134.766z"/>
<g>
	<path fill="#FFD500" fill-opacity="0.5" d="M714.514,514.506L446.764,50.754c-5.314-9.203-15.133-14.875-25.764-14.875s-20.448,5.672-25.764,14.875
		l-267.75,463.752c-5.315,9.203-5.315,20.547,0,29.75c5.316,9.203,15.133,14.875,25.764,14.875h535.5
		c10.631,0,20.448-5.672,25.764-14.875C719.828,535.053,719.828,523.709,714.514,514.506z M153.25,529.381L421,65.629
		l267.75,463.752H153.25L153.25,529.381z"/>
	<path fill-opacity="0.5" d="M403.149,156.981L403.148,399.5c0,9.865,7.985,17.85,17.852,17.85c9.864,0,17.85-7.984,17.85-17.85l0.001-242.519
		c0-9.865-7.984-17.85-17.85-17.85C411.136,139.132,403.149,147.117,403.149,156.981z"/>
	<circle cx="421" cy="473.75" r="35.7"  fill-opacity="0.5"/>
</g>
</svg>
