<?xml version="1.0" encoding="utf-8"?>
<!-- Svg Vector Icons : http://www.onlinewebfonts.com/icon -->
<!DOCTYPE svg PUBLIC "-//W3C//DTD SVG 1.1//EN" "http://www.w3.org/Graphics/SVG/1.1/DTD/svg11.dtd">
<svg version="1.1" xmlns="http://www.w3.org/2000/svg" xmlns:xlink="http://www.w3.org/1999/xlink" x="0px" y="0px" viewBox="0 0 1000 1000" enable-background="new 0 0 1000 1000" xml:space="preserve">
<metadata> Svg Vector Icons : http://www.onlinewebfonts.com/icon </metadata>
<g>
<path fill="white" d="M367.9,496.3l0.4-0.1l-0.4-0.1L26.1,138.3C-31,83.5,77.7-30.9,139,22.2l428.4,435.6c21.6,21.4,20.1,58.6,0,76.7L139,970.1C77.7,1023.2-31,908.8,26.1,854L367.9,496.3z"/>
<path fill="white" d="M774.8,504l0.4-0.1l-0.4-0.1L433,146C375.9,91.2,484.6-23.2,545.9,29.9l428.4,435.6c21.6,21.4,20.1,58.6,0,76.7L545.9,977.8c-61.3,53.1-170.1-61.3-112.9-116.1L774.8,504z"/></g>
</svg>