<?xml version="1.0" encoding="utf-8"?>
<!-- Generator: Adobe Illustrator 16.0.0, SVG Export Plug-In . SVG Version: 6.00 Build 0)  -->
<!DOCTYPE svg PUBLIC "-//W3C//DTD SVG 1.1//EN" "http://www.w3.org/Graphics/SVG/1.1/DTD/svg11.dtd">
<svg version="1.1" id="Capa_1" xmlns="http://www.w3.org/2000/svg" xmlns:xlink="http://www.w3.org/1999/xlink" x="0px" y="0px"
	 width="594.999px" height="595.007px" viewBox="123.499 -0.001 594.999 595.007"
	 enable-background="new 123.499 -0.001 594.999 595.007" xml:space="preserve">
<g>
	<path fill="#E63027" fill-opacity="0.5" d="M631.464,87.036c-116.044-116.044-304.872-116.056-420.928,0s-116.044,304.872,0,420.928
		c116.044,116.056,304.872,116.056,420.928,0C747.508,391.908,747.508,203.08,631.464,87.036z M538.372,414.872
		c-8.94,8.94-23.433,8.94-32.374,0L421,329.874l-89.04,89.039c-8.94,8.94-23.433,8.94-32.374,0s-8.94-23.434,0-32.374l89.04-89.039
		l-84.999-84.999c-8.94-8.94-8.94-23.444,0-32.374c8.94-8.94,23.433-8.94,32.374,0L421,265.126l80.946-80.946
		c8.94-8.94,23.433-8.94,32.373,0c8.94,8.941,8.94,23.434,0,32.374L453.374,297.5l84.998,84.998
		C547.312,391.438,547.312,405.932,538.372,414.872z"/>
</g>
</svg>
