<?xml version="1.0" encoding="utf-8"?>
<!-- Generator: Adobe Illustrator 16.0.0, SVG Export Plug-In . SVG Version: 6.00 Build 0)  -->
<!DOCTYPE svg PUBLIC "-//W3C//DTD SVG 1.1//EN" "http://www.w3.org/Graphics/SVG/1.1/DTD/svg11.dtd">
<svg version="1.1" id="Capa_1" xmlns="http://www.w3.org/2000/svg" xmlns:xlink="http://www.w3.org/1999/xlink" x="0px" y="0px"
	 width="261.155px" height="178.079px" viewBox="0 0 261.155 178.079" enable-background="new 0 0 261.155 178.079"
	 xml:space="preserve">
<g>
	<polygon fill="#0097D8" points="94.588,122.248 29.331,119.689 27.88,96.727 0.539,93.804 7.823,32.201 26.789,30.746 27.152,0.12 
		56.674,0.847 58.87,34.018 17.308,52.254 62.884,63.918 68.35,110.205 92.769,70.114 126.669,78.138 128.123,95.27 96.058,97.454 	
		"/>
	<polygon fill="#0097D8" points="68.35,1.21 87.664,22.355 94.951,18.721 93.498,1.587 	"/>
	<polygon fill="#0097D8" points="107.355,43.865 127.76,67.206 128.124,32.202 116.822,30.381 	"/>
	<path fill="#E63027" d="M0.019,165.272c-0.408,8.863,5.909,12.731,14.515,12.731c12.881,0,13.897-7.894,13.897-10.385
		c0-5.954-4.278-8.196-9.42-9.572l-8.859-2.19c-2.95-0.713-5.498-2.139-5.498-5.548c0-5.398,4.379-7.235,9.114-7.235
		c5.146,0,9.725,2.804,9.928,8.347h3.461c0.054-7.431-6.261-11.299-13.442-11.299c-10.233,0-12.522,6.673-12.522,10.233
		c0,5.65,3.918,7.692,8.196,8.762l8.094,1.981c3.365,0.816,7.487,2.444,7.487,6.567c0,5.301-5.804,7.386-9.624,7.386
		c-6.619,0-12.017-2.291-11.865-9.778H0.019"/>
	<path fill-rule="evenodd" clip-rule="evenodd" fill="#E63027" d="M35.098,159.011c0.101-4.275,3.055-6.108,7.027-6.108
		c3.768,0,6.875,1.064,6.875,5.397c0,2.902-1.478,3.257-4.125,3.561c-6.927,0.817-14.104,1.067-14.104,8.456
		c0,5.295,3.969,7.687,8.808,7.687c5.039,0,7.333-1.935,9.572-5.347h0.102c0,2.752,0.509,4.588,3.766,4.588
		c0.87,0,1.378-0.058,2.089-0.204v-2.698c-0.254,0.099-0.66,0.198-1.018,0.198c-1.269,0-1.882-0.709-1.882-1.935v-13.952
		c0-7.026-5.042-8.45-9.674-8.45c-6.009,0-10.338,2.645-10.644,8.808H35.098 M49,167.057c0.051,5.141-4.278,8.252-9.163,8.252
		c-3.007,0-5.857-1.992-5.857-5.199c0-5.14,6.77-5.088,12.22-6.06c0.865-0.15,2.289-0.406,2.696-1.168H49V167.057z"/>
	<rect x="57.553" y="140.885" fill="#E63027" width="3.207" height="36.354"/>
	<path fill="#E63027" d="M87.077,150.968h-3.206v13.8c0,5.341-2.395,10.541-7.891,10.541c-5.092,0-6.877-2.5-7.026-7.234v-17.106
		h-3.209v17.057c0,6.109,2.598,9.978,9.216,9.978c3.919,0,7.382-1.986,9.063-5.495h0.102v4.738h2.95V150.968"/>
	<path fill-rule="evenodd" clip-rule="evenodd" fill="#E63027" d="M115.133,140.96h-3.207v15.073h-0.101
		c-1.377-3.769-5.195-5.755-9.116-5.755c-7.993,0-11.812,6.463-11.812,13.899c0,7.436,3.819,13.9,11.812,13.9
		c3.819,0,7.994-2.341,9.37-5.75h0.101v4.99h2.953V140.96 M94.104,164.178c0-5.449,2.495-11.201,8.605-11.201
		c6.823,0,9.217,5.752,9.217,11.201s-2.394,11.205-9.217,11.205C96.599,175.383,94.104,169.627,94.104,164.178"/>
	<polygon fill="#0097D8" points="120.637,177.32 124.098,177.32 124.098,145.895 124.202,145.895 136.676,177.32 139.933,177.32 
		152.356,145.895 152.46,145.895 152.46,177.32 155.924,177.32 155.924,140.959 150.832,140.959 138.306,172.836 125.728,140.959 
		120.637,140.959 	"/>
	<path fill-rule="evenodd" clip-rule="evenodd" fill="#0097D8" d="M164.311,159.089c0.101-4.276,3.057-6.112,7.025-6.112
		c3.769,0,6.875,1.065,6.875,5.397c0,2.902-1.479,3.261-4.125,3.565c-6.925,0.813-14.104,1.064-14.104,8.45
		c0,5.295,3.973,7.688,8.81,7.688c5.042,0,7.331-1.935,9.571-5.347h0.104c0,2.752,0.509,4.59,3.767,4.59
		c0.867,0,1.377-0.06,2.091-0.206v-2.696c-0.257,0.096-0.665,0.196-1.021,0.196c-1.274,0-1.883-0.707-1.883-1.935v-13.952
		c0-7.026-5.042-8.45-9.676-8.45c-6.007,0-10.338,2.646-10.643,8.812H164.311 M178.211,167.131c0.049,5.145-4.275,8.254-9.167,8.254
		c-3.003,0-5.854-1.991-5.854-5.201c0-5.14,6.771-5.086,12.222-6.058c0.863-0.15,2.289-0.406,2.697-1.169h0.102V167.131z"/>
	<path fill-rule="evenodd" clip-rule="evenodd" fill="#0097D8" d="M209.829,140.96h-3.207v15.073h-0.102
		c-1.375-3.769-5.194-5.755-9.115-5.755c-7.995,0-11.812,6.463-11.812,13.899c0,7.436,3.816,13.9,11.812,13.9
		c3.817,0,7.995-2.341,9.37-5.75h0.102v4.99h2.952V140.96 M188.803,164.178c0-5.449,2.495-11.201,8.603-11.201
		c6.821,0,9.217,5.752,9.217,11.201s-2.396,11.205-9.217,11.205C191.298,175.383,188.803,169.627,188.803,164.178"/>
	<path fill="#0097D8" d="M214.823,177.32h3.207v-14.009c0-5.444,3.972-9.72,9.779-9.416v-3.209c-4.736-0.205-8.303,2.29-9.933,6.515
		h-0.102v-6.158h-2.952V177.32"/>
	<path fill-rule="evenodd" clip-rule="evenodd" fill="#0097D8" d="M229.793,146.102H233v-5.142h-3.207V146.102z M229.793,177.32H233
		v-26.277h-3.207V177.32z"/>
	<path fill-rule="evenodd" clip-rule="evenodd" fill="#0097D8" d="M261.155,140.96h-3.209v15.073h-0.103
		c-1.375-3.769-5.193-5.755-9.116-5.755c-7.992,0-11.813,6.463-11.813,13.899c0,7.436,3.821,13.9,11.813,13.9
		c3.821,0,7.999-2.341,9.371-5.75h0.101v4.99h2.956V140.96 M240.125,164.178c0-5.449,2.493-11.201,8.603-11.201
		c6.826,0,9.219,5.752,9.219,11.201s-2.393,11.205-9.219,11.205C242.618,175.383,240.125,169.627,240.125,164.178"/>
	<rect x="138.862" fill="#E63027" width="121.701" height="121.697"/>
	<polygon fill="#FFFFFF" points="161.742,40.986 159.283,48.664 151.23,48.765 157.764,53.423 155.406,60.929 161.742,56.314 
		168.174,60.839 165.713,53.326 172.138,48.566 164.237,48.664 	"/>
	<polygon fill="#FFFFFF" points="187.085,40.986 184.629,48.664 176.575,48.765 183.104,53.423 180.749,60.929 187.085,56.314 
		193.503,60.839 191.061,53.326 197.489,48.566 189.57,48.664 	"/>
	<polygon fill="#FFFFFF" points="212.534,40.986 210.08,48.664 202.029,48.765 208.561,53.423 206.203,60.929 212.534,56.314 
		218.964,60.839 216.511,53.326 222.938,48.566 215.048,48.664 	"/>
	<polygon fill="#FFFFFF" points="199.733,58.488 197.283,66.166 189.225,66.263 195.756,70.926 193.385,78.433 199.733,73.827 
		206.161,78.338 203.713,70.832 210.128,66.066 202.229,66.166 	"/>
	<polygon fill="#FFFFFF" points="174.348,58.488 171.885,66.166 163.846,66.263 170.365,70.926 168.008,78.433 174.348,73.827 
		180.764,78.338 178.305,70.832 184.736,66.066 176.839,66.166 	"/>
	<polygon fill="#FFFFFF" points="225.225,58.488 222.771,66.166 214.726,66.263 221.248,70.926 218.893,78.433 225.225,73.827 
		231.651,78.338 229.198,70.832 235.627,66.066 227.732,66.166 	"/>
	<polygon fill="#FFFFFF" points="237.961,40.986 235.499,48.664 227.464,48.765 233.979,53.423 231.625,60.929 237.961,56.314 
		244.378,60.839 241.923,53.326 248.351,48.566 240.453,48.664 	"/>
</g>
</svg>
